<svg id="Layer_1" data-name="Layer 1" xmlns="http://www.w3.org/2000/svg" viewBox="0 0 501.03 502.63"><defs><style>.cls-1{fill:none;stroke:#323232;stroke-miterlimit:10;}</style></defs><title>logo_2</title><g id="surface45"><path class="cls-1" d="M496.8,208.48l-6.6,4.35-7.7,5.54-8.7,6.57-9.62,7.46-10.45,8.19-11.2,8.78-11.86,9.22-12.45,9.52-12.93,9.66L392,287.43l-13.67,9.5-13.9,9.21-14.06,8.75-14.11,8.17-14.1,7.42-14,6.53L294.3,342.5l-13.53,4.3-13.18,3-13.4,1.64-14.19.52-14.85-.52L209.77,350,194,347.75,178,344.82l-16.18-3.51-16.19-4L129.51,333l-15.82-4.59-15.44-4.74L83.33,318.9l-14.28-4.68-13.5-4.49L43,305.54l-11.57-3.78L21,298.51l-9.11-2.62L4.17,294"/><path class="cls-1" d="M334.52,486.7l-5.43-5.76-6.78-6.64-8-7.44-9-8.21-9.85-8.9L285,440.21l-11.1-10.11-11.49-10.64-11.71-11.1-11.78-11.5L227.2,385l-11.43-12.13-11-12.36L194.31,348l-9.7-12.63L175.8,322.7,168,310l-6.54-12.6L156.34,285h0L152.44,272l-2.91-13.9-2-14.72L146.3,228l-.48-15.94.16-16.31.71-16.56,1.17-16.64L149.41,146l1.84-16.38,2-16,2.15-15.52,2.18-14.87,2.13-14.08,2-13.14,1.75-12.05,1.43-10.81,1-9.42.53-7.9"/><path class="cls-1" d="M32.75,374.08l4.74-6.34,5.38-7.81,6-9.11,6.54-10.25,7.09-11.22,7.6-12,8.08-12.65,8.52-13.13,8.94-13.42L105,264.57,114.62,251l10-13.31,10.3-12.95,10.56-12.41,10.8-11.71,11-10.83L178.45,180l11.3-8.58,11.42-7.21,12.08-6,13.2-5.24,14.17-4.49,15-3.8,15.63-3.18,16.11-2.62,16.44-2.12,16.61-1.67,16.61-1.3,16.46-1,16.14-.72,15.67-.51,15-.38,14.24-.31,13.29-.29,12.17-.33,10.89-.44,9.46-.6,7.87-.84"/><path class="cls-1" d="M92.41,57.56l7.06,3.58,8.62,4,10,4.33,11.21,4.7,12.27,5.07,13.13,5.44,13.84,5.8,14.38,6.16,14.74,6.52L212.6,110l15,7.23,14.81,7.59,14.51,7.95,14,8.3,13.37,8.64,12.54,9,11.54,9.33,10.38,9.69,9,10,8,10.87,7.4,12.13L350,224l6.29,14.11L362.09,253l5.32,15.44,4.89,15.85,4.47,16.09,4.1,16.16,3.76,16.05,3.46,15.8,3.18,15.36,2.93,14.76,2.73,14,2.55,13,2.4,11.94,2.3,10.67,2.21,9.21,2.17,7.61"/><path class="cls-1" d="M414.47,62.53l-2.32,7.58-2.43,9.16-2.56,10.6-2.72,11.85-2.9,12.94-3.12,13.86-3.36,14.62-3.62,15.21L387.52,174l-4.24,15.88-4.58,16-5,15.88-5.36,15.63-5.79,15.22-6.25,14.63-6.73,13.88-7.24,13-7.77,11.87-8.34,10.62-9.36,9.74-10.69,9.36-11.86,9-12.85,8.6-13.67,8.24-14.32,7.87-14.79,7.51L223.61,384l-15.24,6.8-15.19,6.44-15,6.09L163.59,409l-14.05,5.4-13.32,5.08-12.43,4.73-11.35,4.41-10.12,4.09-8.7,3.75L86.5,440"/><path class="cls-1" d="M464.33,380.75l-7.86-1-9.45-.82-10.87-.71L424,377.57l-13.24-.66-14.19-.71-15-.81-15.59-1L350,373.2l-16.37-1.48-16.5-1.8-16.49-2.19-16.31-2.63-16-3.12-15.48-3.67L238,354l-14-4.94-13-5.64-11.88-6.41L188,329.48l-11-9L166,310.37l-10.67-11.2-10.44-12.08-10.2-12.77L124.82,261l-9.62-13.67-9.29-13.86L97,219.58l-8.56-13.74-8.15-13.41L72.54,179.5l-7.27-12.27-6.79-11.44L52.2,145.35l-5.75-9.27-5.19-7.93-4.62-6.42"/><path class="cls-1" d="M159.22,484l-.37-7.91-.81-9.45-1.15-10.83-1.43-12.07-1.6-13.16-1.72-14.09-1.74-14.89-1.69-15.53-1.54-16-1.33-16.37-1-16.56-.64-16.61L144,304l.37-16.26,1-15.87L147,256.53l2.48-14.62,3.35-13.79,4.3-12.8L162.71,203l6.95-12.4,8.17-12.44,9.23-12.42,10.13-12.35,10.86-12.22,11.44-12,11.85-11.8,12.09-11.52L255.6,94.65l12.08-10.78,11.85-10.32L291,63.73l10.85-9.25,10.12-8.65,9.22-8,8.15-7.25,6.92-6.48,5.53-5.64"/><path class="cls-1" d="M5.61,200.88l7.73-1.73,9.18-2.41,10.47-3,11.65-3.46,12.68-3.83,13.59-4.09,14.37-4.24,15-4.3,15.51-4.25,15.9-4.09,16.14-3.82,16.25-3.46,16.23-3,16.09-2.4,15.8-1.72,15.38-.94,14.83,0,14.15,1,13.34,2.07L283,156.53l13.4,4.73L310,167.2l13.82,7,13.89,7.89,13.9,8.63,13.81,9.23,13.66,9.67,13.41,10,13.08,10.11,12.68,10.08,12.19,9.91,11.63,9.6,11,9.12,10.24,8.5,9.43,7.73,8.54,6.79,7.56,5.71,6.51,4.49"/><path class="cls-1" d="M258.48,1.36l3,7.33,3.94,8.62,4.74,9.81L275.58,38l5.94,11.85,6.34,12.69L294.48,76,301.27,90l6.82,14.56,6.73,15,6.52,15.24,6.16,15.43,5.7,15.48,5.1,15.43,4.38,15.27,3.53,15L348.77,226l1.46,14.1.23,13.5-1.11,13.46-2.39,14-3.53,14.46-4.54,14.81-5.42,15-6.15,15.16-6.75,15.19-7.21,15.11-7.54,14.92-7.73,14.62L290.3,414.6l-7.7,13.71-7.48,13.1L268,453.78l-6.63,11.55-6,10.61-5.23,9.57-4.34,8.43-3.29,7.18"/><path class="cls-1" d="M498.09,216.63l-6.7,4.24-7.82,5.36-8.86,6.34-9.8,7.17-10.65,7.86L442.84,256l-12.1,8.81-12.69,9.07-13.18,9.2-13.59,9.17-13.91,9L363.23,310,349,318.21l-14.34,7.64-14.3,6.91-14.17,6-14,5-13.65,3.84-13.26,2.52-13.46,1.2-14.22,0-14.86-1-15.36-2-15.75-2.78-16-3.49L159.5,338l-16.13-4.54-16-4.9-15.73-5.14-15.34-5.25L81.49,313,67.3,307.81l-13.41-4.92-12.51-4.56-11.49-4.11L19.57,290.7l-9-2.83-7.63-2"/><path class="cls-1" d="M326.7,489.35l-5.33-5.87-6.62-6.79L307,469.05l-8.74-8.43-9.55-9.16-10.24-9.81-10.73-10.42-11.1-11-11.3-11.42L234,397l-11.23-12.17-11-12.45-10.54-12.67-10-12.83L182.05,334l-8.34-12.94-7.3-12.9-6.09-12.8-4.75-12.64-3.46-13.06-2.45-14-1.51-14.82-.68-15.48.07-16,.72-16.36,1.27-16.59,1.74-16.67,2.1-16.59,2.39-16.39,2.57-16L161,95.22l2.65-14.86L166.2,66.3l2.37-13.11,2.09-12,1.7-10.78L173.6,21l.67-7.86"/><path class="cls-1" d="M28.8,366.84l4.87-6.27,5.56-7.68,6.2-8.95,6.81-10.05,7.39-11,7.93-11.75L76,298.82,84.89,286,94.22,273,104,259.78,114,246.64l10.4-12.91,10.69-12.54,10.94-12,11.15-11.29,11.33-10.41L180,178.11l11.58-8.18,11.64-6.82,12.28-5.63,13.4-4.8,14.35-4,15.15-3.3,15.78-2.65,16.26-2.07L307,139.09,323.75,138l16.72-.74,16.56-.44,16.23-.19,15.74,0,15.11.09,14.29.12,13.33.1h12.2l10.92-.16,9.47-.38,7.86-.69"/><path class="cls-1" d="M98.88,52.43l7,3.73,8.52,4.16,9.88,4.58,11.06,5,12.07,5.41,12.92,5.81,13.6,6.2,14.11,6.59,14.46,7,14.63,7.34,14.65,7.7,14.49,8,14.17,8.4,13.67,8.74,13,9.07,12.19,9.4,11.19,9.7,10,10,8.69,10.32,7.65,11.14,7,12.39,6.39,13.46L356.09,241l5.3,15.1,4.81,15.68,4.36,16.07,3.95,16.31,3.58,16.36,3.25,16.25,3,16,2.7,15.52,2.49,14.9,2.31,14.11L394,410.41l2.08,12,2,10.73,2,9.27,2,7.62"/><path class="cls-1" d="M420.63,68l-2.47,7.55-2.64,9.11L412.69,95.2l-3,11.75-3.27,12.81-3.52,13.72-3.8,14.45L395,163l-4.4,15.42L385.83,194l-5.09,15.74-5.47,15.64-5.87,15.38-6.29,15-6.72,14.36-7.19,13.6-7.66,12.67L333.37,308l-8.69,10.32L315,327.71l-11,9L291.8,345.3l-13.18,8.19-14,7.79L250,368.69l-15.11,7-15.4,6.66L204,388.69l-15.47,6-15.25,5.63L158.4,405.6l-14.26,5-13.52,4.68L118,419.66l-11.5,4.1L96.3,427.59l-8.79,3.55-7.16,3.31"/><path class="cls-1" d="M460,387.75l-7.86-1.13-9.43-1-10.84-1-12.08-1-13.18-1-14.11-1.13-14.89-1.28-15.48-1.47L346.14,377l-16.23-2-16.36-2.35-16.34-2.73-16.14-3.17-15.8-3.65L250,358.86l-14.62-4.77-13.79-5.4-12.8-6.07-11.65-6.81-10.94-7.94-10.74-9.33L164.91,308l-10.31-11.6-10.06-12.47-9.79-13.17-9.5-13.7L116.05,243l-8.86-14.23-8.51-14.24-8.15-14.07-7.76-13.73-7.34-13.21L68.5,161,62,149.32l-6-10.63-5.52-9.43-5-8L41,114.73"/><path class="cls-1" d="M151.58,480.88l-.23-7.94-.59-9.47-.87-10.85-1.09-12.07-1.22-13.16-1.29-14.09L145,398.42l-1.18-15.51-1-16L142,350.59l-.48-16.51-.08-16.56.38-16.44.92-16.18,1.52-15.77,2.22-15.21,3-14.5,3.81-13.65L158,213.14,164,201l7.37-12.18L180,176.65l9.68-12.13,10.59-12,11.32-11.89,11.89-11.7,12.29-11.45,12.53-11.16,12.59-10.82L273.35,85l12.22-10,11.77-9.5,11.17-8.95,10.4-8.37,9.45-7.74,8.35-7.05,7.06-6.31,5.63-5.53"/><path class="cls-1" d="M7.37,192.82l7.79-1.59,9.23-2.2,10.53-2.71,11.72-3.13,12.75-3.45,13.66-3.67,14.43-3.78,15.08-3.8,15.58-3.73,16-3.55,16.18-3.27,16.29-2.89,16.26-2.42,16.09-1.84,15.8-1.17,15.36-.41,14.8.47L259,151.12l13.26,2.51,13,3.82,13.26,5.19,13.47,6.42,13.61,7.49,13.66,8.39,13.65,9.14,13.55,9.73L379.77,214l13.13,10.45L405.71,235l12.4,10.54L430,255.88l11.36,10,10.74,9.48,10,8.83,9.23,8,8.38,7,7.42,5.89,6.41,4.58"/><path class="cls-1" d="M266.72,1.73l2.9,7.4,3.75,8.71,4.47,9.92,5.09,11,5.57,12,5.93,12.83,6.18,13.57,6.32,14.2,6.31,14.71,6.21,15.11,6,15.39L331,152.1l5.14,15.61,4.55,15.54,3.84,15.36,3,15.07,2.05,14.65,1,14.13L350.37,256l-1.55,13.43L346,283.33l-4,14.37-5.06,14.68-6,14.9-6.69,15-7.3,15-7.75,14.92L301.09,387l-8.24,14.43-8.28,14-8.16,13.52-7.91,12.91L261,454l-7,11.38-6.31,10.47-5.48,9.45-4.53,8.33-3.42,7.09"/><path class="cls-1" d="M499.13,224.82l-6.79,4.12-7.95,5.18-9,6.11-10,6.88-10.84,7.53-11.63,8-12.32,8.4-12.91,8.63-13.42,8.72-13.82,8.68-14.15,8.49L362,313.77l-14.5,7.72-14.53,7.12L318.45,335l-14.34,5.52L290,345l-13.75,3.37-13.34,2.07-13.49.75-14.24-.46-14.85-1.53L205,346.72l-15.7-3.33-15.93-4.05-16-4.64-16-5.1-15.89-5.45-15.63-5.67-15.23-5.77L79.83,307l-14.07-5.61L52.45,296,40,291.07l-11.39-4.43L18.4,282.85l-9-3-7.59-2.15"/><path class="cls-1" d="M318.81,491.78l-5.23-6-6.47-6.94L299.56,471l-8.48-8.65-9.26-9.4-9.89-10.09-10.38-10.7-10.69-11.25L240,409.19l-10.89-12.14-10.77-12.48L207.83,371.8l-10.07-13-9.48-13.11-8.75-13.18-7.87-13.19-6.84-13.11-5.65-13-4.31-12.78-3-13.18-2-14.11-1-14.9-.15-15.54.62-16,1.28-16.4,1.85-16.61,2.3-16.68,2.67-16.59,2.94-16.38,3.09-16,3.16-15.48,3.13-14.83,3-14,2.76-13.08,2.42-12,2-10.74,1.46-9.37.82-7.83"/><path class="cls-1" d="M25.07,359.47l5-6.19,5.73-7.55L42.22,337l7.08-9.83L57,316.39l8.25-11.46,8.78-12,9.26-12.45L93,267.75,103.09,255l10.47-12.73,10.79-12.5,11.06-12.12L146.71,206l11.5-10.85,11.65-10,11.76-9,11.84-7.77L205.32,162l12.47-5.22,13.57-4.34,14.52-3.53,15.3-2.79L277.1,144l16.39-1.53,16.69-1,16.83-.57,16.81-.19,16.64.11,16.31.33,15.81.48,15.15.55,14.34.56,13.36.49,12.22.34,10.93.12,9.47-.17,7.86-.54"/><path class="cls-1" d="M105.5,47.5l7,3.87,8.43,4.35,9.75,4.83,10.89,5.29,11.87,5.75,12.7,6.17,13.35,6.6,13.83,7,14.16,7.4,14.33,7.78,14.31,8.14,14.15,8.51L264,132l13.31,9.17L290,150.69l11.82,9.79,10.83,10.06,9.67,10.34,8.34,10.6,7.28,11.4,6.58,12.64,5.94,13.71,5.35,14.61,4.8,15.34,4.28,15.89,3.83,16.28,3.42,16.5,3.05,16.55,2.72,16.43L380.36,357l2.22,15.66,2,15,1.89,14.22,1.8,13.26,1.75,12.1L391.8,438l1.79,9.31,1.88,7.64"/><path class="cls-1" d="M426.61,73.72,424,81.23l-2.85,9-3.1,10.43-3.35,11.63L411.07,125l-3.93,13.55-4.22,14.27-4.55,14.82-4.88,15.21-5.23,15.43-5.6,15.48-6,15.38-6.36,15.11-6.77,14.67L356.36,273l-7.63,13.3-8.07,12.38L332.11,310l-9,10-10,9.1-11.34,8.64-12.51,8.18-13.49,7.75L261.45,361,246.5,368l-15.4,6.55-15.69,6.17-15.8,5.82L183.88,392l-15.48,5.16L153.33,402l-14.47,4.57-13.71,4.28-12.75,4-11.63,3.79-10.34,3.57-8.86,3.35-7.21,3.16"/><path class="cls-1" d="M455.37,394.62l-7.85-1.29-9.4-1.25-10.8-1.27-12-1.32-13.11-1.42-14-1.56-14.77-1.73-15.37-2-15.81-2.22-16.09-2.53-16.2-2.88-16.16-3.27-16-3.71L262.19,364l-15.08-4.69-14.41-5.26-13.56-5.85-12.58-6.51-11.41-7.19-10.67-8.3L174,316.52l-10.2-10.93-9.93-12-9.67-12.85-9.37-13.56-9.07-14.07L117,238.7l-8.43-14.59-8.08-14.57-7.72-14.39-7.35-14-7-13.49-6.56-12.78L65.77,143l-5.72-10.82-5.28-9.58L50,114.42l-4.35-6.56"/><path class="cls-1" d="M144,477.53l-.09-8-.37-9.48L143,449.24l-.75-12.08L141.4,424l-.85-14.08-.81-14.84-.69-15.48-.49-15.95-.24-16.27.08-16.45.47-16.48.94-16.35L141.28,282l2.06-15.66,2.73-15.08,3.47-14.36,4.27-13.49L159,211,165.33,199l7.79-11.94,9-11.91,10.12-11.84,11-11.71L215.1,140.1l12.33-11.34,12.73-11.08,12.94-10.79,13-10.45L279,86.37l12.58-9.64,12.11-9.16,11.48-8.65,10.66-8.09,9.69-7.48L344,36.51l7.21-6.15L356.94,25"/><path class="cls-1" d="M9.39,184.81l7.82-1.44,9.28-2,10.6-2.44,11.77-2.8,12.81-3.07,13.71-3.23,14.49-3.32L105,163.21l15.62-3.2,16-3,16.21-2.71L169.14,152l16.26-1.85,16.09-1.29,15.78-.62,15.32.13,14.74,1,14,1.92,13.16,2.95,12.84,4.25,13.1,5.65,13.27,6.9,13.39,8,13.42,8.88,13.38,9.64,13.28,10.23,13.09,10.67,12.84,10.93,12.52,11,12.11,11,11.64,10.76,11.1,10.38L451,282.28l9.8,9.14,9,8.26,8.19,7.25,7.29,6,6.31,4.7"/><path class="cls-1" d="M275,2.35l2.77,7.47,3.55,8.8,4.21,10,4.77,11.11,5.2,12.1,5.53,13,5.73,13.71,5.83,14.33,5.81,14.84L324,122.93l5.43,15.51,5.07,15.67,4.59,15.71,4,15.63,3.29,15.44L348.87,216l1.54,14.69.5,14.14-.67,13.47-2,13.38-3.34,13.87-4.54,14.26-5.58,14.54-6.48,14.75-7.24,14.83-7.82,14.83-8.29,14.72L296.35,388l-8.75,14.22L278.84,416l-8.63,13.31-8.34,12.71-7.92,12-7.33,11.21L240,475.59l-5.73,9.31-4.71,8.22-3.55,7"/><path class="cls-1" d="M499.93,233,493,237,485,242l-9.15,5.86-10.14,6.6-11,7.18-11.83,7.65-12.52,8-13.13,8.18-13.63,8.24-14.05,8.18-14.35,8-14.58,7.65-14.69,7.18-14.72,6.6-14.64,5.86-14.48,5-14.21,4L274,349.1l-13.39,1.63-13.52.3-14.24-.94L218,348l-15.29-3-15.63-3.88-15.86-4.6-15.95-5.2-15.92-5.67-15.78-6-15.51-6.21L93,307.16l-14.59-6.24-14-6.06-13.19-5.75-12.29-5.32L27.63,279l-10.15-4-8.91-3.24-7.52-2.29"/><path class="cls-1" d="M310.85,494l-5.13-6.1-6.31-7.09-7.34-8-8.22-8.86-9-9.64-9.55-10.35-10-11-10.29-11.54-10.44-12-10.44-12.44-10.3-12.78-10-13.06-9.58-13.25-9-13.38L177,331l-7.4-13.41-6.36-13.32-5.2-13.15-3.88-12.92-2.59-13.28-1.5-14.19-.5-15,.39-15.59,1.17-16.07L153,187.7l2.41-16.61,2.87-16.66,3.24-16.58L165,121.51l3.63-16,3.67-15.45,3.59-14.79,3.43-14,3.14-13,2.76-11.94,2.26-10.7,1.67-9.32,1-7.8"/><path class="cls-1" d="M21.56,352l5.13-6.11,5.9-7.43,6.64-8.59,7.33-9.62,8-10.46,8.56-11.17,9.11-11.71,9.62-12.09L91.9,262.49l10.48-12.4,10.84-12.32,11.16-12.08L135.81,214l11.65-11.13,11.83-10.42,12-9.56,12-8.54L195.37,167l12.07-6,12.64-4.81,13.74-3.88,14.66-3L263.92,147l16-1.58,16.5-1,16.79-.45h16.92l16.9.37,16.7.66,16.36.85,15.86,1,15.19,1,14.36,1,13.38.88,12.24.68,10.93.41,9.47,0,7.85-.39"/><path class="cls-1" d="M112.27,42.78l6.89,4,8.34,4.55,9.6,5.07L147.82,62l11.67,6.07L172,74.58l13.08,7L198.58,89l13.85,7.82,14,8.22,14,8.59,13.8,8.94,13.44,9.27,12.95,9.59,12.27,9.88,11.45,10.16,10.46,10.41,9.3,10.66,8,10.87L338.94,205l6.17,12.88,5.48,13.94,4.86,14.83,4.28,15.55,3.77,16.1,3.29,16.48,2.87,16.68,2.52,16.72,2.19,16.58,1.94,16.28,1.73,15.8L379.62,392l1.47,14.33,1.42,13.34,1.42,12.17,1.47,10.85L387,452l1.74,7.67"/><path class="cls-1" d="M432.42,79.59l-2.76,7.48-3.05,9-3.36,10.33-3.67,11.51-4,12.53-4.31,13.38-4.66,14.08-5,14.61-5.35,15-5.71,15.18-6.09,15.23L378,233l-6.85,14.82-7.25,14.38-7.65,13.77-8.06,13L339.71,301l-8.91,11-9.35,9.72-10.31,8.77-11.65,8.26-12.81,7.78-13.79,7.3-14.6,6.87-15.24,6.45-15.68,6.05-16,5.67-16.06,5.32-16,5-15.71,4.68-15.29,4.4-14.66,4.13-13.88,3.89L106.93,410l-11.76,3.48-10.44,3.3-8.93,3.15-7.25,3"/><path class="cls-1" d="M450.59,401.34l-7.85-1.43-9.37-1.47-10.75-1.55-12-1.65-13-1.79-13.92-2-14.66-2.19-15.23-2.43-15.66-2.73-15.93-3.05-16-3.4-16-3.8-15.77-4.23-15.39-4.7-14.86-5.2L230,354l-13.33-6.31-12.33-6.92-11.17-7.56-10.4-8.67-10.12-10.07-9.84-11.31-9.55-12.36L144,277.57l-8.95-13.92-8.63-14.44-8.31-14.77-8-14.92-7.63-14.9-7.3-14.7L88.3,175.6l-6.57-13.76-6.2-13-5.82-12.1-5.43-11-5-9.72-4.63-8.26-4.22-6.62"/><path class="cls-1" d="M136.59,474l.07-8-.15-9.49-.32-10.85-.41-12.07-.46-13.13-.42-14.05-.34-14.81-.19-15.42,0-15.89.3-16.2.63-16.37,1-16.38,1.49-16.25,2-16,2.59-15.52,3.25-14.95,4-14.21,4.72-13.32,5.56-12.29,6.77-11.72,8.21-11.69,9.48-11.62L195,162.27l11.46-11.37,12.21-11.19,12.76-11,13.16-10.7,13.35-10.41,13.4-10.07,13.25-9.69,12.93-9.27,12.44-8.83,11.78-8.33,10.93-7.8,9.91-7.23,8.71-6.62,7.35-6,5.79-5.29"/><path class="cls-1" d="M11.64,176.87l7.87-1.3,9.33-1.78,10.64-2.16,11.81-2.47,12.86-2.68,13.76-2.81,14.54-2.85L107.6,158l15.66-2.67,16-2.47,16.23-2.15,16.3-1.77,16.26-1.29,16.07-.73,15.73-.08,15.28.66L249.8,149l13.94,2.39,13.05,3.4,12.7,4.67,12.92,6.11,13.07,7.36,13.14,8.45,13.17,9.38,13.1,10.13,13,10.72,12.79,11.15,12.54,11.4,12.2,11.49,11.81,11.42,11.35,11.17L439.37,279l10.22,10.18,9.56,9.45,8.81,8.53,8,7.46,7.15,6.21,6.21,4.8"/><path class="cls-1" d="M283.16,3.21l2.64,7.54,3.34,8.88,3.95,10.12L297.54,41l4.83,12.22,5.11,13.07,5.29,13.83,5.34,14.45,5.3,15,5.15,15.34,4.88,15.62L338,156.23,342,172l3.45,15.71,2.75,15.49,1.94,15.15,1,14.71v14.13L350,260.65,347.59,274l-3.82,13.77-5,14.13-6.09,14.4-7,14.57-7.76,14.64L309.5,360.1l-8.81,14.5-9.11,14.3-9.25,14-9.24,13.59L264,429.57l-8.77,12.5-8.29,11.81-7.68,11-6.91,10.15-6,9.18-4.89,8.1-3.67,6.94"/><path class="cls-1" d="M500.47,241.27l-7,3.89L485.32,250,476,255.59l-10.3,6.3-11.2,6.84-12,7.26-12.72,7.56-13.33,7.72L402.64,299l-14.25,7.68-14.55,7.46-14.77,7.12L344.2,328,329.32,334l-14.8,5.33-14.6,4.49-14.31,3.52-13.93,2.41-13.43,1.18-13.54-.16-14.23-1.42L215.7,346.8l-15.23-3.57-15.55-4.43-15.76-5.16-15.84-5.76-15.8-6.22-15.65-6.55-15.37-6.74-15-6.8-14.46-6.73-13.81-6.51-13.06-6.17L38,276.47,26.86,271.4l-10.07-4.33L8,263.64.51,261.21"/><path class="cls-1" d="M302.82,495.89l-5-6.2-6.15-7.23-7.12-8.19-8-9.07-8.65-9.87-9.2-10.6-9.6-11.24-9.88-11.81-10-12.31-10-12.73-9.83-13.07-9.52-13.33-9.08-13.52-8.5-13.63-7.77-13.67-6.9-13.62-5.89-13.51L157,289l-3.45-13-2.15-13.37-1-14.26v-15l.92-15.62,1.73-16.09,2.41-16.41,3-16.59,3.45-16.65,3.8-16.53,4-16.3,4.15-15.92,4.18-15.39,4.06-14.73L186,59.14l3.53-13,3.09-11.88,2.54-10.65,1.88-9.29,1.1-7.76"/><path class="cls-1" d="M18.29,344.42l5.25-6,6.07-7.3,6.85-8.41L44,313.3l8.25-10.2,8.87-10.86,9.44-11.38,10-11.73L91,257.19l10.84-12L113,233.3l11.52-11.64,11.78-11.25,12-10.68,12.15-10,12.25-9.12,12.3-8.1,12.31-6.93L209.57,160l12.82-4.4,13.88-3.42,14.8-2.54,15.55-1.74,16.16-1,16.59-.41,16.87.12,17,.57,17,.93,16.75,1.2,16.4,1.39,15.89,1.49,15.21,1.5,14.38,1.43,13.39,1.27,12.24,1,10.94.68,9.46.26,7.84-.24"/><path class="cls-1" d="M119.18,38.26,126,42.39l8.23,4.75,9.46,5.31,10.54,5.86,11.45,6.39,12.21,6.89,12.81,7.35L204,86.76,217.5,95l13.66,8.64,13.61,9L258.2,122l13.07,9.69,12.56,10L295.72,152l11.06,10.52,10.07,10.75,8.92,10.95,7.62,11.13,6.51,11.88,5.73,13.1,5,14.16,4.36,15,3.77,15.75L362,281.54l2.75,16.65L367.09,315l2,16.87,1.67,16.73,1.42,16.41L373.38,381l1.11,15.26,1.05,14.42,1,13.41,1.08,12.24,1.2,10.89,1.36,9.37,1.59,7.68"/><path class="cls-1" d="M438.05,85.62l-2.9,7.45L431.89,102l-3.62,10.23-4,11.38L420,136l-4.7,13.2L410.17,163l-5.44,14.39-5.81,14.73-6.19,14.92L386.16,222l-6.94,14.82-7.33,14.52-7.71,14.07-8.1,13.45-8.49,12.69-8.88,11.74L329.44,314l-9.67,9.39-10.61,8.44-11.94,7.87L284.12,347,270,353.87l-14.89,6.4-15.51,6-15.95,5.54-16.22,5.17-16.3,4.81L175,386.23,159,390.42l-15.48,3.93-14.85,3.7-14,3.48-13,3.31L89.74,408l-10.53,3-9,3-7.29,2.88"/><path class="cls-1" d="M445.6,407.92l-7.84-1.58-9.34-1.69-10.7-1.82-11.88-2-12.93-2.16-13.8-2.39-14.53-2.64-15.09-2.91L334,387.53,318.25,384,302.41,380l-15.78-4.33L271.09,371l-15.18-5.2-14.62-5.7-13.94-6.21-13.08-6.75-12.08-7.33-10.9-7.93-10.11-9-9.8-10.43-9.47-11.67L152.75,288l-8.83-13.59-8.51-14.28-8.17-14.78-7.85-15.11L111.87,215l-7.19-15.21-6.84-15-6.52-14.59-6.16-14-5.84-13.24-5.48-12.3L68.7,119.46l-4.79-9.85-4.44-8.36-4.09-6.69"/><path class="cls-1" d="M129.26,470.16l.22-8,.06-9.5,0-10.84-.07-12.05-.07-13.1v-14l.12-14.76.31-15.36.54-15.8.83-16.12,1.18-16.27,1.58-16.27L136,292l2.55-15.83,3.13-15.38L145.39,246l4.43-14L155,218.8l6-12.1,7.16-11.5,8.62-11.42,9.89-11.33,11-11.18,11.9-11,12.63-10.82,13.19-10.58,13.56-10.3,13.76-10,13.78-9.67,13.62-9.31,13.28-8.9,12.76-8.47,12.06-8,11.19-7.5,10.12-7,8.9-6.41,7.47-5.8,5.88-5.18"/><path class="cls-1" d="M14.13,169l7.92-1.16,9.36-1.56,10.68-1.89L54,162.26,66.84,160l13.8-2.39,14.55-2.38,15.18-2.32L126,150.72l16-1.92,16.23-1.61,16.29-1.2,16.23-.73,16-.17,15.68.46,15.2,1.19,14.59,2,13.82,2.86,12.94,3.82,12.55,5.11,12.73,6.55,12.84,7.82,12.89,8.93L343,193.68l12.81,10.61,12.67,11.2,12.47,11.62L393.12,239,405,250.92l11.49,11.84,11.05,11.58,10.52,11.13L448,296l9.31,9.75,8.6,8.78,7.83,7.67,7,6.38,6.1,4.9"/><path class="cls-1" d="M291.34,4.33l2.5,7.6,3.15,9,3.68,10.2,4.13,11.32,4.46,12.31L314,67.9l4.84,13.93,4.85,14.56,4.79,15.06L333,126.9l4.34,15.71,3.95,15.85,3.48,15.86,2.89,15.75,2.2,15.53,1.41,15.18.53,14.71-.48,14.11L349.79,263l-2.9,13.23-4.29,13.66-5.53,14-6.61,14.23-7.52,14.38-8.29,14.43-8.89,14.4-9.34,14.28-9.62,14-9.75,13.75-9.72,13.35L257.8,429.6l-9.19,12.27-8.68,11.6-8,10.83-7.2,10-6.21,9-5.08,8-3.79,6.85"/><path class="cls-1" d="M500.76,249.52l-7.06,3.77-8.29,4.63L476,263.29l-10.44,6-11.37,6.5L442,282.64l-12.9,7.13L415.59,297l-14,7.28-14.43,7.17-14.74,6.94L357.45,325l-15,6.12-15,5.52-14.93,4.81-14.71,4-14.4,3-14,1.93-13.47.73-13.53-.6-14.2-1.91-14.73-3.08-15.15-4.09-15.45-5-15.64-5.72-15.71-6.31-15.66-6.78-15.5-7.09-15.21-7.28-14.82-7.31L76,288.73l-13.67-7-12.91-6.58-12.05-6.06-11.06-5.39-9.95-4.59-8.74-3.63L.21,253"/><path class="cls-1" d="M294.74,497.59l-4.92-6.31-6-7.38-6.9-8.36-7.69-9.26-8.33-10.09-8.84-10.84-9.22-11.49-9.45-12.08-9.55-12.57-9.51-13L205,382.87l-9-13.59-8.57-13.77-8-13.87-7.27-13.89-6.41-13.82-5.41-13.68L156,286.8l-3-13.15-1.7-13.44-.53-14.32.52-15,1.47-15.64,2.28-16.08,3-16.39,3.56-16.56,4-16.6L170,133.1l4.58-16.24L179.25,101l4.67-15.33L188.46,71l4.28-13.85,3.92-12.91,3.43-11.82,2.81-10.59L205,12.62l1.24-7.73"/><path class="cls-1" d="M15.24,336.75l5.37-5.94,6.25-7.15,7.06-8.23,7.81-9.15,8.52-9.93,9.17-10.55,9.75-11L79.46,263.4l10.76-11.55,11.19-11.57L113,228.81l11.86-11.2,12.11-10.79,12.3-10.22,12.45-9.52,12.53-8.66,12.56-7.66,12.52-6.5,12.45-5.21,13-4,14-3,14.92-2,15.66-1.22,16.24-.49,16.67.15,16.93.69,17.05,1.14,17,1.49,16.8,1.76,16.42,1.92,15.9,2,15.23,2,14.38,1.86L445.3,163l12.24,1.36,10.92,1,9.45.48,7.82-.1"/><path class="cls-1" d="M126.22,33.94,133,38.22l8.12,4.93,9.32,5.55,10.34,6.14L172,61.54l12,7.23,12.52,7.73,13,8.2,13.2,8.64,13.3,9,13.26,9.43,13,9.78,12.68,10.09,12.17,10.39,11.49,10.65,10.66,10.87,9.68,11.08,8.54,11.23,7.24,11.38,6.11,12.1,5.29,13.32,4.55,14.36,3.86,15.23,3.24,15.93,2.69,16.46,2.2,16.81,1.78,17,1.41,17L367,352.37l.91,16.52.73,16,.65,15.34.61,14.5.65,13.48.75,12.29.91,10.93,1.15,9.4,1.44,7.69"/><path class="cls-1" d="M443.5,91.83l-3.05,7.4L437,108.08l-3.87,10.12-4.29,11.24-4.68,12.2-5.09,13-5.48,13.66-5.88,14.14-6.26,14.47-6.66,14.64-7,14.66-7.41,14.51-7.8,14.21-8.16,13.75-8.54,13.13-8.9,12.34-9.27,11.42L328,315.9l-10,9.07-10.89,8.08-12.23,7.48-13.38,6.92-14.36,6.4L252,359.75l-15.77,5.45-16.21,5-16.46,4.64-16.53,4.3-16.42,4-16.14,3.7-15.67,3.46-15,3.25-14.18,3.07-13.18,2.94-12,2.84-10.62,2.77-9.06,2.73-7.32,2.74"/><path class="cls-1" d="M440.41,414.35l-7.82-1.74-9.31-1.9-10.63-2.09-11.81-2.3L388,403.78,374.34,401,360,397.91,345,394.52l-15.32-3.71-15.55-4.06-15.63-4.45L283,377.46l-15.31-5.26-14.93-5.71-14.39-6.18-13.68-6.68-12.82-7.19L200,338.71l-10.63-8.29-9.82-9.36-9.45-10.78-9.1-12-8.75-13.07-8.4-13.94-8-14.62-7.71-15.12-7.38-15.44-7-15.57L107,195l-6.39-15.28-6.08-14.85-5.76-14.25L83.3,137.14l-5.15-12.48-4.84-11.33-4.54-10-4.25-8.46-3.95-6.74"/><path class="cls-1" d="M122.05,466.14l.36-8,.29-9.5.24-10.83.25-12,.31-13.06.43-14,.59-14.69.79-15.28,1-15.72,1.36-16,1.73-16.14,2.12-16.15,2.59-16,3.09-15.68,3.64-15.22,4.25-14.61,4.91-13.85,5.61-12.95L162,204.6l7.55-11.26,9-11.15,10.3-11,11.4-10.84,12.31-10.65,13-10.43,13.59-10.18,14-9.9,14.15-9.6,14.16-9.26,14-8.91,13.62-8.52,13.06-8.11,12.34-7.67L346,59.91l10.34-6.7L365.36,47,373,41.4l6-5.06"/><path class="cls-1" d="M16.86,161.21l8-1,9.4-1.34,10.71-1.62,11.89-1.8,12.92-1.91,13.81-2,14.57-1.92,15.18-1.82L129,146.19l16-1.38,16.2-1.05,16.27-.65,16.18-.17,16,.39,15.61,1,15.12,1.7,14.48,2.49,13.71,3.32,12.8,4.26,12.38,5.53,12.52,7,12.61,8.28,12.63,9.39L344,196.63l12.5,11.09,12.35,11.68L381,231.48l11.87,12.32,11.55,12.38,11.16,12.27,10.72,12,10.22,11.5,9.66,10.86,9.05,10,8.37,9,7.64,7.88,6.85,6.53,6,5"/><path class="cls-1" d="M299.49,5.69l2.36,7.67,2.94,9,3.42,10.28,3.8,11.4,4.09,12.4,4.27,13.28,4.38,14,4.37,14.65,4.27,15.15,4.08,15.53,3.79,15.78,3.4,15.91,2.91,15.91,2.34,15.8,1.65,15.55.89,15.18v14.69l-1,14.08-2,13.33-3.34,13.15L341.38,292l-6,13.83-7.11,14.05-8,14.17-8.81,14.21L302,362.43l-9.85,14L282,390.25l-10.24,13.49-10.19,13.1-10,12.6-9.6,12L233,452.85l-8.36,10.63-7.48,9.8-6.46,8.87L205.39,490l-3.91,6.78"/><path class="cls-1" d="M500.8,257.78l-7.14,3.64-8.4,4.44L475.72,271l-10.58,5.7-11.52,6.13-12.35,6.48L428.2,296l-13.68,6.8-14.2,6.78-14.6,6.66-14.9,6.41-15.1,6.05-15.18,5.57-15.16,5-15,4.27L295.53,347l-14.47,2.51-14,1.45-13.49.28L240,350.13l-14.15-2.39-14.66-3.58-15.06-4.63L180.82,334l-15.51-6.27-15.56-6.87-15.51-7.33-15.33-7.63-15-7.81-14.64-7.81L75.1,282.6l-13.5-7.41-12.76-7-11.9-6.42L26,256.07l-9.85-4.85-8.65-3.83L.17,244.7"/><path class="cls-1" d="M286.61,499l-4.81-6.42L276,485.11l-6.67-8.53-7.41-9.45-8-10.3-8.48-11.06L236.59,434l-9-12.32-9.1-12.83-9-13.25L200.59,382l-8.52-13.84-8.07-14-7.48-14.09L169.76,326l-5.92-14-4.93-13.83-3.81-13.58-2.57-13.24-1.25-13.51-.05-14.35,1-15.06,2-15.63,2.84-16.06,3.54-16.36,4.13-16.51,4.59-16.53,4.92-16.41,5.13-16.16L184.64,99l5.17-15.24,5-14.57,4.71-13.77,4.3-12.83,3.76-11.75,3.09-10.53,2.3-9.18,1.38-7.69"/><path class="cls-1" d="M12.43,329l5.49-5.85,6.41-7,7.26-8,8.05-8.92,8.78-9.64,9.45-10.24,10.06-10.68,10.6-11,11.1-11.14,11.51-11.15,11.89-11,12.18-10.75,12.43-10.33,12.61-9.76,12.74-9,12.79-8.21,12.8-7.2L201.31,163l12.61-4.78,13.1-3.53,14.14-2.49,15-1.53,15.75-.69,16.32.07,16.73.71L322,152,339,153.68l17,2.06,16.81,2.31,16.43,2.46L405.21,163l15.22,2.45,14.37,2.3,13.38,2,12.21,1.7,10.91,1.25,9.44.69,7.81,0"/><path class="cls-1" d="M133.4,29.85l6.7,4.42,8,5.11,9.15,5.78,10.15,6.41,11,7,11.7,7.57,12.23,8.09L215,82.81l12.86,9,12.94,9.45,12.87,9.83,12.66,10.18,12.28,10.49,11.76,10.77,11.08,11,10.25,11.21,9.28,11.38,8.14,11.52,6.85,11.61,5.71,12.31,4.86,13.52,4.06,14.54,3.35,15.41,2.71,16.1,2.15,16.61,1.64,17,1.22,17.13.86,17.14.59,17,.37,16.62.24,16.11.17,15.42.19,14.57.25,13.53.42,12.33.63,11,.93,9.41,1.3,7.7"/><path class="cls-1" d="M448.76,98.2l-3.2,7.37-3.67,8.76-4.13,10-4.58,11.09-5,12-5.46,12.8-5.89,13.43-6.3,13.89-6.72,14.2-7.1,14.35-7.5,14.35-7.88,14.2-8.25,13.88L364.44,272l-9,12.79-9.3,12-9.64,11.07-10,10-10.28,8.73-11.16,7.72-12.5,7.08L279,347.82l-14.62,5.93L249,359.16l-16,4.93-16.44,4.51-16.68,4.11-16.75,3.77-16.62,3.46-16.33,3.2-15.84,3-15.17,2.8-14.33,2.66-13.29,2.57-12.09,2.51-10.69,2.5-9.12,2.52-7.36,2.6"/><path class="cls-1" d="M435,420.61l-7.81-1.88L418,416.61l-10.57-2.36-11.71-2.62-12.7-2.9-13.55-3.21L355.21,402l-14.75-3.85L325.33,394,310,389.4l-15.41-4.95-15.32-5.35-15.07-5.76-14.68-6.21-14.11-6.66L222,353.34l-12.55-7.61-11.52-8.13L187.55,329l-9.5-9.69L169,308.15l-8.71-12.35-8.33-13.41L144,268.12l-7.59-15-7.24-15.45L122.23,222l-6.56-15.87-6.25-15.8-5.93-15.55-5.63-15.11-5.35-14.48-5.06-13.67-4.8-12.67-4.54-11.48L73.82,97.23l-4-8.55L66,81.87"/><path class="cls-1" d="M115,461.91l.52-8,.5-9.49.52-10.81.59-12,.69-13,.85-13.89,1-14.61,1.28-15.19,1.56-15.61,1.89-15.89,2.26-16,2.67-16,3.12-15.83,3.62-15.51,4.16-15L145,240.59l5.37-13.65,6-12.74,6.76-11.67,7.94-11,9.41-10.87L191.19,170,203,159.48l12.71-10.27,13.45-10,14-9.77,14.36-9.48,14.53-9.17,14.52-8.85,14.32-8.49,13.93-8.13,13.37-7.74,12.61-7.32,11.67-6.89L363,56.92l9.23-6L380,45.51l6-4.93"/><path class="cls-1" d="M19.83,153.5l8-.87,9.43-1.13L48,150.17,59.9,148.7l12.93-1.53,13.82-1.53,14.57-1.46,15.18-1.33L132,141.74l16-.84,16.16-.5,16.21-.09,16.13.39,15.89.94,15.52,1.54,15,2.23,14.36,3,13.58,3.79,12.65,4.68,12.21,5.95,12.3,7.42L320.41,179l12.34,9.86L345,199.61l12.17,11.56,12,12.13L381,235.85l11.52,12.76,11.19,12.81,10.82,12.68,10.39,12.35,9.9,11.86,9.37,11.19L453,319.82l8.14,9.3,7.44,8.07,6.7,6.69,5.89,5.11"/><path class="cls-1" d="M307.59,7.31,309.82,15l2.73,9.1,3.15,10.35L319.17,46l3.71,12.48,3.87,13.36,3.91,14.1,3.88,14.72,3.76,15.22,3.54,15.59,3.24,15.84,2.84,15.95,2.35,15.95L352.05,195l1.11,15.55.36,15.17-.5,14.66-1.43,14-2.46,13.26-3.78,13-5.23,13.39-6.51,13.66L326,321.6l-8.55,13.95-9.33,14-9.92,13.9-10.37,13.76L277.21,390.7l-10.73,13.22-10.65,12.82-10.42,12.35-10,11.78L226,452l-8.68,10.42-7.77,9.6-6.69,8.72-5.44,7.74-4,6.69"/><path class="cls-1" d="M500.6,266l-7.23,3.51-8.5,4.25-9.66,4.87-10.72,5.38-11.66,5.79-12.49,6.07-13.23,6.26-13.84,6.33-14.35,6.28-14.76,6.15-15.05,5.87-15.23,5.51-15.31,5-15.28,4.44-15.14,3.73-14.88,2.93-14.53,2-14.07,1-13.48-.17-13.5-1.51-14.09-2.88L209,342.76l-14.94-5.16-15.21-6.06-15.36-6.81-15.4-7.43-15.32-7.87-15.15-8.18-14.86-8.32-14.45-8.32-14-8.17-13.32-7.85-12.59-7.4-11.75-6.78-10.79-6-9.73-5.1-8.56-4L.38,236.44"/><path class="cls-1" d="M278.44,500.24l-4.71-6.52-5.64-7.65-6.45-8.68-7.12-9.64-7.69-10.5L238.72,446l-8.42-12-8.58-12.56-8.63-13.07-8.56-13.5-8.34-13.82-8-14.07-7.55-14.23-7-14.3-6.25-14.28L162,310l-4.45-14-3.34-13.7L152.09,269l-.81-13.55.44-14.38L153.28,226l2.54-15.61,3.39-16,4.11-16.3,4.7-16.44,5.16-16.46,5.48-16.32,5.68-16.07,5.74-15.66L195.75,82l5.48-14.48,5.14-13.67,4.68-12.73,4.09-11.67L218.51,19,221,9.89l1.52-7.65"/><path class="cls-1" d="M9.85,321.13l5.62-5.76L22,308.51l7.45-7.84L37.77,292l9-9.36,9.73-9.91,10.35-10.32,10.91-10.59L89.2,241.09,101,230.38l12.2-10.57,12.5-10.29,12.73-9.85,12.91-9.29,13-8.58,13-7.74,13-6.74,12.93-5.63,12.76-4.36,13.23-3.1,14.25-2,15.11-1,15.82-.15,16.37.62L307.67,153l17,1.83,17.1,2.29,17,2.63,16.81,2.87,16.42,3,15.89,3,15.2,2.94,14.36,2.74,13.35,2.44,12.2,2,10.88,1.53,9.42.91,7.79.18"/><path class="cls-1" d="M140.69,26l6.64,4.54,7.89,5.3,9,6,9.95,6.67,10.76,7.31,11.42,7.89,11.93,8.44,12.28,9,12.51,9.41,12.56,9.84,12.49,10.22,12.25,10.56L282.23,132l11.34,11.14,10.66,11.35L314.07,166l8.86,11.68,7.74,11.78,6.46,11.84,5.31,12.51,4.4,13.7,3.58,14.72,2.84,15.57,2.17,16.25L357,290.82l1.08,17.09.66,17.24.3,17.24,0,17.06L359,376.16l-.27,16.18-.3,15.48-.26,14.62L358,436l.07,12.37.36,11,.71,9.43,1.16,7.71"/><path class="cls-1" d="M453.82,104.73l-3.34,7.32-3.87,8.68-4.38,9.89-4.88,10.94L432,153.4,426.16,166l-6.29,13.19-6.72,13.62L406,206.71l-7.55,14.06-7.95,14-8.33,13.86-8.69,13.54-9,13.07-9.38,12.43-9.7,11.65-10,10.71-10.29,9.63-10.57,8.38-11.43,7.35-12.75,6.67-13.91,6-14.87,5.45-15.65,4.9-16.24,4.42-16.66,4-16.9,3.58-16.94,3.24-16.81,2.94-16.5,2.69-16,2.49-15.32,2.34-14.45,2.24-13.41,2.19-12.18,2.18L63.72,393l-9.17,2.32-7.39,2.45"/><path class="cls-1" d="M429.45,426.71l-7.78-2-9.22-2.33L402,419.72l-11.61-2.94-12.58-3.27-13.39-3.59L350.32,406l-14.56-4.31L320.84,397l-15.13-5.05-15.17-5.45-15.07-5.85-14.81-6.26-14.41-6.69-13.84-7.13L219.29,353,207,345l-11.24-8.51-10.06-9-9.19-10L167.81,306l-8.31-12.68-7.89-13.73-7.5-14.6L137,249.73,130.24,234l-6.4-16-6.07-16.16L112,185.69l-5.46-15.81-5.18-15.35-4.92-14.69L91.77,126l-4.44-12.85L83.1,101.5l-4-10.23-3.86-8.64-3.69-6.86"/><path class="cls-1" d="M108,457.45l.67-8,.72-9.48.8-10.78.91-11.94,1.08-13,1.26-13.8,1.5-14.52,1.76-15.08,2.07-15.49,2.41-15.75L124,313.77l3.21-15.84,3.65-15.66L135,266.94l4.67-14.84,5.23-14.22,5.84-13.44,6.48-12.51,7.14-11.44,8.31-10.76,9.79-10.56,11.09-10.35,12.2-10.12,13.11-9.87,13.84-9.61L247,129.88l14.74-9,14.9-8.74,14.87-8.42L306.2,95.6l14.25-7.72,13.66-7.35,12.87-7L358.88,67l10.74-6.15L379,55.12l7.85-5.28L393,45"/><path class="cls-1" d="M23,145.88l8-.72,9.46-.91,10.76-1.06,11.92-1.14,12.93-1.14,13.82-1.11,14.56-1,15.15-.82,15.61-.6,15.93-.3,16.1,0,16.15.46,16,.94,15.8,1.49,15.42,2.08,14.9,2.74,14.23,3.47,13.44,4.26,12.48,5.1,12,6.35,12.07,7.86,12.09,9.17L334,191.35l12,11.25,11.83,12,11.66,12.59,11.42,13L392,253.4l10.83,13.23,10.46,13.07,10,12.74,9.58,12.2L442,316.15l8.51,10.61,7.89,9.53,7.24,8.28,6.55,6.83,5.79,5.2"/><path class="cls-1" d="M315.64,9.16l2.09,7.78,2.52,9.17,2.88,10.42,3.15,11.54,3.33,12.55L333.05,74l3.46,14.17L339.9,103l3.24,15.28,3,15.64,2.69,15.87,2.28,16,1.79,16,1.23,15.82.57,15.54-.18,15.14-1,14.62-1.91,14L348.71,270,344.5,282.9l-5.7,13.24-7,13.47-8.11,13.63L314.65,337l-9.83,13.71-10.44,13.63-10.86,13.48L272.4,391l-11.2,12.92-11.11,12.54-10.84,12.07-10.41,11.52L219.05,451l-9,10.19-8,9.41-6.92,8.55-5.61,7.62-4.13,6.59"/><path class="cls-1" d="M500.14,274.29l-7.31,3.39-8.6,4.05-9.77,4.62-10.84,5.07-11.79,5.42-12.63,5.68-13.37,5.81-14,5.85L397.35,320l-14.89,5.62-15.18,5.34-15.36,5-15.42,4.48-15.38,3.89-15.21,3.19-15,2.4-14.57,1.5-14.08.49-13.48-.62-13.46-2-14-3.36-14.47-4.6-14.82-5.68L177,329l-15.19-7.36-15.21-8-15.14-8.42-14.95-8.71-14.65-8.84-14.25-8.82-13.75-8.63L60.75,262l-12.41-7.8L36.76,247l-10.65-6.33-9.61-5.35L8,231.13l-7.2-2.94"/><path class="cls-1" d="M270.23,501.2l-4.59-6.63-5.47-7.77L254,478l-6.84-9.81-7.35-10.69L232,446l-8-12.18L215.87,421l-8.16-13.29L199.64,394,191.8,380l-7.5-14.28-7-14.43-6.44-14.48-5.73-14.46L160.2,308l-3.95-14.1-2.88-13.79-1.68-13.39-.35-13.59.93-14.39,2.07-15,3.08-15.57,3.94-16L166,175.92l5.27-16.35L177,143.21l6-16.22L189.3,111l6.27-15.56,6.18-15,5.93-14.36,5.57-13.56,5.07-12.63,4.42-11.58,3.64-10.39,2.71-9,1.66-7.61"/><path class="cls-1" d="M7.51,313.2l5.74-5.66L20,300.82l7.64-7.63,8.5-8.42,9.28-9.06,10-9.58L66,256.18,77.23,246l11.7-10.3,12.14-10.27,12.5-10.11,12.8-9.82,13-9.37,13.18-8.81,13.26-8.1,13.28-7.26,13.23-6.29,13.1-5.17,12.9-3.93,13.34-2.66L246,152.36l15.18-.52,15.88.39,16.41,1.18,16.8,1.85,17,2.41,17.1,2.86,17,3.2,16.79,3.43,16.4,3.53,15.86,3.52,15.17,3.41L440,180.8l13.32,2.84L465.45,186l10.85,1.81,9.4,1.12,7.76.33"/><path class="cls-1" d="M148.11,22.32,154.67,27l7.77,5.48,8.83,6.23L181,45.64l10.51,7.6,11.13,8.21,11.62,8.78,11.94,9.3,12.14,9.78,12.18,10.22,12.09,10.59,11.83,10.95L285.9,132.3l10.91,11.49,10.24,11.69,9.4,11.85,8.44,12,7.33,12,6.07,12.05,4.89,12.7,3.94,13.87,3.09,14.88,2.32,15.71,1.63,16.39,1,16.87.52,17.2.08,17.34-.25,17.33L355,362.8l-.69,16.77-.78,16.24-.77,15.53L352.09,426l-.53,13.61-.27,12.4.07,11,.5,9.44,1,7.71"/><path class="cls-1" d="M458.68,111.41l-3.48,7.27-4.07,8.6L446.5,137l-5.17,10.78-5.69,11.64-6.19,12.37-6.68,12.93-7.13,13.35-7.57,13.62-8,13.73-8.39,13.71-8.76,13.52-9.13,13.18-9.46,12.7-9.78,12.07-10.08,11.28-10.35,10.35-10.61,9.26-10.85,8-11.68,7-13,6.25-14.15,5.57-15.1,5-15.87,4.4-16.46,3.88L209.54,365l-17.09,3-17.13,2.7-17,2.41-16.65,2.17-16.15,2-15.44,1.88L95.53,381,82,382.85,69.76,384.7l-10.83,1.95-9.22,2.1-7.42,2.32"/><path class="cls-1" d="M423.7,432.64l-7.77-2.18-9.16-2.54L396.36,425l-11.5-3.25-12.44-3.62-13.23-4-13.88-4.37L331,405l-14.7-5.14-14.89-5.54-14.92-5.94-14.81-6.34-14.53-6.75L243,368.16l-13.55-7.59-12.82-8-12-8.44-10.93-8.88L184,325.91l-8.86-10.33-8.37-11.76-7.89-13-7.46-14.05-7-14.9-6.63-15.57-6.26-16-5.9-16.34L120,197.5l-5.27-16.33-5-16L105,149.55l-4.49-14.91-4.27-14-4.08-13L88.26,95.81,84.49,85.47l-3.65-8.72-3.56-6.91"/><path class="cls-1" d="M101.17,452.79l.82-8,.93-9.46L104,424.56l1.24-11.89,1.45-12.87,1.68-13.72,1.95-14.41,2.24-15,2.56-15.35,2.93-15.6,3.31-15.71,3.73-15.66,4.18-15.47,4.67-15.12,5.17-14.64,5.72-14L151.12,222l6.9-12.28,7.53-11.2L174.21,188l10.17-10.25,11.47-10L208.43,158l13.49-9.47,14.22-9.18,14.76-8.9,15.1-8.6,15.25-8.28,15.21-8,15-7.65L326,90.64l13.93-7,13.13-6.61,12.12-6.25L376.1,65l9.54-5.49,8-5.09,6.2-4.69"/><path class="cls-1" d="M26.46,138.36l8.06-.57,9.48-.7,10.77-.78,11.92-.8,12.93-.76,13.79-.68,14.53-.54,15.11-.34,15.56-.08,15.87.23,16,.6,16,1,16,1.49,15.69,2,15.3,2.62,14.76,3.25,14.09,4L275.63,153,288,158.52l11.81,6.76,11.83,8.28,11.8,9.61,11.74,10.74,11.63,11.7,11.48,12.46,11.28,13,11.05,13.42,10.77,13.63,10.45,13.64,10.08,13.46,9.69,13.1,9.24,12.55,8.75,11.82,8.22,10.88,7.65,9.77,7,8.47,6.38,7,5.69,5.29"/><path class="cls-1" d="M323.64,11.26l1.94,7.84,2.31,9.22L330.5,38.8l2.82,11.61,3,12.6,3,13.48,3,14.21,2.9,14.83,2.72,15.32,2.47,15.67,2.14,15.89,1.72,16,1.24,16,.67,15.8,0,15.52-.7,15.09L354,245.34l-2.39,13.87-3.34,13.08-4.66,12.79-6.14,13.07L330,311.42l-8.59,13.4-9.56,13.45L301.5,351.7l-10.94,13.35L279.2,378.22l-11.6,12.94-11.67,12.62L244.37,416,233.11,427.8l-10.8,11.25-10.15,10.64-9.33,10-8.32,9.2-7.15,8.38-5.78,7.48-4.24,6.51"/><path class="cls-1" d="M499.43,282.53,492,285.78l-8.69,3.86L473.47,294l-11,4.76-11.91,5.06-12.76,5.27-13.49,5.37-14.12,5.38-14.62,5.28-15,5.1-15.3,4.8-15.46,4.42-15.51,3.93-15.46,3.34-15.28,2.65-15,1.88-14.6,1H259.93l-13.45-1.07-13.41-2.41-13.92-3.84-14.35-5.1-14.67-6.2-14.89-7.13-15-7.91-15-8.51-14.92-9-14.73-9.23-14.44-9.36-14-9.31-13.53-9.1-12.93-8.73-12.22-8.19L37,239.68l-10.49-6.63L17,227.44,8.68,223,1.54,220"/><path class="cls-1" d="M262,501.9l-4.47-6.72-5.29-7.9-6-9-6.56-10-7-10.87-7.36-11.67-7.58-12.38-7.7-13-7.69-13.5L194.77,393l-7.33-14.25-7-14.49L174,349.62,168,335l-5.21-14.61-4.39-14.45L155,291.69l-2.39-13.87-1.23-13.44.1-13.61,1.41-14.39,2.59-15,3.62-15.52,4.5-15.89,5.24-16.14,5.84-16.25L181,141.33l6.6-16.09,6.77-15.83L201.11,94l6.67-14.89,6.4-14.24,6-13.44,5.44-12.52,4.74-11.48,3.91-10.3,2.92-9L239,.58"/><path class="cls-1" d="M5.41,305.21l5.86-5.57,6.88-6.56L26,285.65l8.71-8.16,9.52-8.76,10.24-9.24,10.9-9.58,11.49-9.79,12-9.87,12.43-9.82,12.79-9.65,13.08-9.33,13.3-8.89,13.43-8.31,13.51-7.62,13.5-6.78L194.29,164l13.26-4.71,13-3.5L234,153.6l14.42-1h15.24l15.91.93L296,155.21l16.8,2.43,17,3,17.09,3.44,17,3.77,16.76,4L397,175.89l15.82,4L428,183.81l14.27,3.62,13.27,3.23,12.12,2.72,10.82,2.09,9.36,1.34,7.75.47"/><path class="cls-1" d="M155.63,18.89l6.49,4.81,7.64,5.66,8.66,6.45L187.94,43l10.26,7.88L209,59.4l11.29,9.11,11.6,9.64,11.76,10.14,11.79,10.58,11.66,11,11.42,11.3,11,11.59,10.48,11.82,9.79,12,9,12.15,8,12.23,6.91,12.27,5.66,12.26,4.47,12.86,3.48,14,2.6,15,1.79,15.84,1.08,16.5.47,17L353.22,314l-.48,17.42-.83,17.4L350.84,366l-1.22,16.83-1.29,16.28-1.26,15.57-1.13,14.69L345,443l-.61,12.41-.21,11,.28,9.45.87,7.71"/><path class="cls-1" d="M463.35,118.24l-3.64,7.22-4.26,8.5-4.88,9.63-5.45,10.61-6,11.44-6.55,12.13-7.05,12.67L418,203.51l-8,13.31-8.42,13.4-8.81,13.36-9.2,13.16L374,269.56l-9.87,12.33L354,293.57l-10.45,10.91-10.69,10-10.92,8.89L310.81,331l-11.92,6.59-13.24,5.82-14.37,5.11L256,353l-16.08,3.87-16.66,3.36-17.06,2.88-17.26,2.49-17.3,2.15-17.14,1.87-16.79,1.66-16.28,1.5-15.56,1.42-14.67,1.38L77.56,377,65.23,378.5l-10.89,1.67-9.26,1.9-7.45,2.17"/><path class="cls-1" d="M417.76,438.4,410,436.06l-9.1-2.74-10.32-3.16-11.38-3.57-12.3-4-13.06-4.39-13.68-4.79L326,408.25l-14.47-5.61-14.63-6-14.66-6.42-14.52-6.82-14.25-7.23-13.82-7.63-13.24-8-12.52-8.44-11.64-8.85L191.66,334l-9.43-9.64-8.53-10.63-8-12.06-7.48-13.3-7-14.34-6.55-15.2-6.14-15.85-5.75-16.33L127.4,210l-5.06-16.69-4.76-16.58-4.49-16.28-4.26-15.78-4-15.11-3.87-14.23L97.2,102.19l-3.6-11.9L90.09,79.84,86.64,71l-3.43-7"/><path class="cls-1" d="M94.48,447.93l1-8,1.15-9.44L98,419.75l1.57-11.82,1.82-12.79,2.09-13.62,2.39-14.29,2.72-14.82,3.06-15.2L115,321.77l3.83-15.52,4.26-15.47,4.7-15.26L133,260.61l5.67-14.42,6.19-13.76,6.74-13,7.31-12,7.9-11,9-10.2,10.53-9.93,11.83-9.63,13-9.35,13.86-9,14.59-8.75,15.12-8.44L270.18,123l15.6-7.83,15.53-7.52,15.29-7.2,14.84-6.89L345.64,87,359,80.76l12.34-5.91,11.11-5.58L392.14,64l8.08-4.91,6.27-4.56"/><path class="cls-1" d="M30.12,130.94l8.08-.41,9.5-.49,10.78-.5,11.91-.47,12.91-.38,13.77-.26,14.48-.08,15.06.16,15.5.43,15.78.76,16,1.14,16,1.56,15.83,2L221.2,137l15.16,3.14L251,143.91l13.92,4.43L278,153.5l12.13,5.93,11.6,7.16,11.57,8.69,11.51,10,11.41,11.17,11.28,12.14,11.11,12.9L369.5,235l10.65,13.85,10.37,14,10.06,14,9.71,13.84,9.31,13.46,8.89,12.88,8.43,12.11,7.93,11.15,7.39,10,6.83,8.66,6.22,7.12,5.57,5.39"/><path class="cls-1" d="M331.57,13.61l1.8,7.89,2.1,9.27L337.8,41.3,340.3,53l2.58,12.65,2.59,13.52L348,93.38l2.41,14.86,2.21,15.34,1.93,15.68,1.59,15.9,1.17,16,.68,15.94.11,15.77-.52,15.47-1.22,15-2,14.47-2.85,13.78-3.79,13-5.08,12.64L336,300.12l-7.93,13.05L319,326.32,309,339.5l-10.83,13.15-11.42,13-11.85,12.87L262.8,391.16l-12.12,12.31-12,11.93L227,426.87l-11.19,11-10.5,10.37-9.64,9.72-8.6,9-7.36,8.2-6,7.34-4.36,6.42"/><path class="cls-1" d="M498.48,290.74,491,293.87l-8.78,3.65-10,4.1-11.05,4.45-12,4.69-12.87,4.86-13.61,4.93-14.23,4.89-14.73,4.79-15.12,4.57-15.39,4.26-15.55,3.87-15.59,3.37-15.52,2.79-15.33,2.12-15,1.34-14.6.48-14.07-.47L244.12,351l-13.33-2.86L217,343.86l-14.22-5.6-14.5-6.71-14.71-7.67-14.8-8.44-14.8-9.05-14.7-9.49-14.49-9.76-14.2-9.86-13.8-9.8-13.31-9.56-12.71-9.16-12-8.59-11.22-7.84-10.33-6.94-9.34-5.85-8.26-4.61L2.5,211.74"/><path class="cls-1" d="M253.73,502.36l-4.36-6.82-5.1-8-5.75-9.13-6.26-10.14-6.67-11-7-11.86-7.17-12.57L204.2,419.6,197,405.91l-7.07-14.12-6.81-14.44-6.45-14.66-6-14.79-5.39-14.81-4.68-14.74-3.88-14.58-2.95-14.31-1.93-13.94L151.07,262l.56-13.62,1.9-14.36,3.11-15,4.15-15.45,5.05-15.8,5.81-16,6.4-16.14,6.86-16.1,7.16-16,7.3-15.68,7.31-15.27,7.17-14.75,6.86-14.09,6.41-13.31L233,38.12,238,26.75l4.17-10.2,3.12-8.92L247.24.12"/><path class="cls-1" d="M3.55,297.14l6-5.46,7-6.41,8-7.21,8.92-7.9,9.74-8.46,10.49-8.89,11.16-9.2,11.75-9.38L88.9,224.8l12.71-9.36,13.06-9.17L128,197.43,141.57,189l13.68-7.82L169,174.1l13.7-6.3,13.59-5.34,13.42-4.26,13.15-3.06,13.52-1.77,14.48-.57,15.28.52,15.94,1.47,16.44,2.3,16.79,3,17,3.57,17.05,4L366.28,172l16.7,4.53,16.31,4.61,15.76,4.55,15.06,4.36,14.21,4.06,13.22,3.62,12.07,3.05,10.76,2.37,9.33,1.56,7.72.61"/><path class="cls-1" d="M163.25,15.69l6.42,5,7.51,5.83,8.48,6.66,9.3,7.44,10,8.15,10.55,8.82L226.45,67l11.24,10,11.38,10.48,11.38,10.92,11.25,11.32,11,11.64,10.57,11.93,10,12.15,9.34,12.32,8.53,12.43,7.57,12.49,6.48,12.49,5.26,12.44,4,13,3,14.18,2.09,15.15,1.26,16,.53,16.6-.1,17.07-.63,17.36-1.06,17.49-1.4,17.46-1.63,17.24L344.81,386,343,402.26l-1.74,15.59-1.57,14.71-1.32,13.64-.95,12.42-.5,11,.07,9.45.72,7.71"/><path class="cls-1" d="M467.8,125.21,464,132.38l-4.46,8.4-5.12,9.49-5.74,10.43-6.33,11.24-6.89,11.88-7.42,12.4L420.14,209l-8.39,13L402.93,235l-9.24,13-9.61,12.79-9.95,12.44-10.27,11.94L353.31,296.5,342.51,307l-11,9.58-11.21,8.51-11.37,7.29-12.15,6.2L283.3,344l-14.58,4.64-15.52,4-16.27,3.35-16.85,2.8-17.22,2.34L185.43,363,168,364.59l-17.28,1.33-16.92,1.13-16.39,1-15.67.95L87,370l-13.67,1-12.4,1.18L50,373.56l-9.3,1.68-7.47,2"/><path class="cls-1" d="M411.65,444l-7.71-2.49-9-3-10.22-3.42-11.26-3.87-12.14-4.32-12.89-4.77L334.92,417,321,411.32l-14.22-6.06-14.37-6.48L278,391.89,263.8,384.6l-13.94-7.69-13.5-8.09-12.93-8.48-12.19-8.85-11.31-9.24-10.29-9.6-9.12-10-8.18-10.92-7.59-12.36-7.05-13.58-6.54-14.63-6.07-15.47-5.63-16.13L134.23,223l-4.87-16.86-4.54-16.93-4.25-16.81-4-16.49-3.78-16-3.6-15.29-3.46-14.39L102.38,97l-3.28-12L95.86,74.39l-3.25-8.87-3.29-7"/><path class="cls-1" d="M88,442.85l1.12-8,1.37-9.41,1.62-10.65L94,403l2.19-12.7,2.5-13.5,2.83-14.16L104.66,348l3.55-15,3.94-15.25,4.35-15.33,4.77-15.26,5.21-15,5.67-14.68,6.16-14.17L145,229.69,152.14,217l7.72-11.77,8.26-10.68,9.38-9.92L188.38,175l12.2-9.25,13.31-8.94,14.22-8.62,14.95-8.29,15.47-8,15.79-7.67,15.92-7.36,15.85-7,15.58-6.76,15.12-6.44,14.46-6.16,13.59-5.86,12.54-5.57,11.29-5.28,9.83-5,8.19-4.72L413,59.63"/><path class="cls-1" d="M34,123.64l8.11-.27,9.51-.26,10.77-.23,11.9-.13H87.17l13.73.17,14.42.38,15,.64,15.41.94,15.7,1.29,15.84,1.67,15.84,2.11,15.7,2.58,15.42,3.1,15,3.66,14.45,4.26,13.74,4.92,12.91,5.6,11.93,6.33,11.37,7.55L315,177l11.2,10.45,11.07,11.6,10.91,12.57L358.86,225l10.5,13.89,10.24,14.27,10,14.44L399.22,282l9.31,14.21L417.46,310l8.54,13.2,8.09,12.41,7.63,11.41,7.14,10.22,6.6,8.83,6.05,7.26,5.46,5.49"/><path class="cls-1" d="M339.43,16.19l1.66,7.94L343,33.45,345,44l2.16,11.7,2.2,12.68L351.57,82l2.08,14.28,1.92,14.87,1.69,15.35,1.4,15.68,1,15.88.61,16,.12,15.9L360,205.62,358.94,221l-1.74,15-2.51,14.38L351.36,264l-4.21,12.84-5.51,12.49-7.05,12.69-8.39,12.82-9.56,12.89-10.53,12.89L294.8,353.49l-11.92,12.72-12.32,12.53L258,391l-12.58,12L233,414.6l-12.09,11.16-11.56,10.66-10.85,10.09L188.56,456l-8.86,8.77-7.58,8L166,480l-4.47,6.32"/><path class="cls-1" d="M497.27,298.93l-7.54,3-8.87,3.45-10.06,3.84-11.16,4.13-12.12,4.33-13,4.44-13.7,4.48L406.51,331l-14.83,4.27-15.21,4L361,343.05l-15.62,3.31-15.65,2.82-15.56,2.24L298.81,353l-15,.81-14.59,0-14-1-13.37-2-13.25-3.31-13.7-4.79-14.07-6.09-14.33-7.23-14.5-8.19-14.58-9-14.57-9.58-14.45-10L114.07,282.4,100.12,272,86.57,261.76l-13.06-10L61,242.16l-11.8-9L38.2,225,28,217.76l-9.2-6.1-8.14-4.79-7-3.31"/></g></svg>