<svg id="Layer_1" data-name="Layer 1" xmlns="http://www.w3.org/2000/svg" viewBox="0 0 550.96 553.96"><defs><style>.cls-1{fill:none;stroke:#323232;stroke-miterlimit:10;}</style></defs><title>logo_3</title><g id="surface21"><path class="cls-1" d="M471.42,122l-7.65,2-9.25,2.06-10.69,2.11-11.95,2.22-13.06,2.35-14,2.51L390.05,138l-15.38,3-15.8,3.22-16.08,3.53-16.19,3.87-16.11,4.24-15.89,4.65-15.48,5.1-14.92,5.58L250,177.24l-13.29,6.64-12.22,7.23-11,7.84-10.16,8.89-9.84,10.24L184,229.48l-9.19,12.41-8.87,13.24L157.4,269l-8.18,14.38-7.84,14.71L133.89,313l-7.13,14.83L120,342.46l-6.41,14.28-6,13.75-5.67,13L96.58,395.7l-4.9,11.13-4.52,9.91L83,425.27l-3.73,7"/><path class="cls-1" d="M518.94,333.44l-6.33-4.76-7.35-6-8.3-7.06-9.16-8-9.95-8.75-10.67-9.36-11.31-9.84L444,269.57l-12.36-10.31-12.76-10.34-13.1-10.19-13.34-9.91-13.53-9.48-13.63-8.89-13.66-8.15L338,195.05l-13.47-6.22-13.27-5-13-3.68L285,177.73l-14.15-1.29L256,176.13l-15.46.58-15.9,1.36-16.21,2L192,182.71l-16.43,3.07-16.31,3.43-16.08,3.7-15.71,3.86-15.19,3.91-14.55,3.86L84,208.24l-12.83,3.45-11.78,3.08-10.58,2.62-9.25,2.05-7.78,1.38"/><path class="cls-1" d="M383.46,502.57l-.18-7.93.14-9.48.37-10.87.54-12.12L385,449l.67-14.15.63-14.95.53-15.57.35-16,.1-16.39-.21-16.56-.6-16.57-1.05-16.45-1.58-16.16-2.16-15.73-2.83-15.13-3.57-14.39-4.36-13.49-5.23-12.44-6.44-11.87-7.84-11.87-9.06-11.82L332.2,187.64l-11-11.59-11.75-11.41-12.29-11.19-12.69-10.93-12.9-10.62-13-10.28-12.84-9.89-12.57-9.46-12.11-9-11.49-8.47-10.71-7.91-9.75-7.31-8.63-6.67-7.35-6-5.89-5.26"/><path class="cls-1" d="M166.74,502.33l6.13-5,7.52-5.77,8.75-6.46L199,478l10.72-7.72L221.15,462l12-8.8,12.47-9.28,12.73-9.73L271.23,424,284,413.53l12.55-10.8,12.16-11.07,11.61-11.31,10.9-11.49,10-11.65,9-11.76,7.8-11.83,6.45-11.85,5.25-12.45,4.37-13.55,3.57-14.48L380.52,266l2.17-15.87,1.57-16.34,1.06-16.62.62-16.78.24-16.75-.06-16.58-.29-16.25-.45-15.75L384.85,120l-.53-14.29-.49-13.32-.34-12.2-.14-10.92.14-9.46.49-7.87"/><path class="cls-1" d="M31.6,332.89l7.77,1.7,9.19,2.32,10.49,2.84L70.71,343l12.7,3.58,13.6,3.8,14.36,3.92,15,3.95,15.51,3.87,15.88,3.69,16.13,3.42,16.23,3,16.2,2.57,16.06,2,15.76,1.32,15.34.55,14.79-.33,14.1-1.29,13.28-2.37,13-3.67L322,366l13.55-6.28,13.7-7.33L363,344.16l13.77-9,13.68-9.59,13.51-10,13.28-10.31,12.94-10.42,12.54-10.38,12.07-10.2,11.5-9.86,10.86-9.34,10.15-8.69,9.34-7.86,8.47-6.9,7.51-5.76,6.48-4.48"/><path class="cls-1" d="M79.59,121.52l3.47,7.16L87,137.33l4.29,10,4.7,11.15L101,170.6l5.5,13,5.88,13.65,6.26,14.16,6.64,14.5,7,14.68,7.38,14.69,7.75,14.54L155.57,284,164,297.78l8.81,13.11,9.14,12.3,9.49,11.33,9.81,10.2,10.14,8.89,11,7.87,12.28,7.25,13.38,6.67,14.31,6.12,15.07,5.62,15.65,5.14L309.17,397l16.31,4.31,16.37,3.94,16.26,3.62,16,3.33,15.53,3.07,14.91,2.86,14.11,2.68,13.13,2.53,12,2.42,10.67,2.35,9.18,2.32,7.51,2.32"/><path class="cls-1" d="M274.69,27l-3.48,7.16-4.38,8.42-5.15,9.55-5.79,10.61-6.32,11.53-6.72,12.36-7,13.08-7.14,13.7-7.17,14.21-7.07,14.61-6.84,14.91-6.5,15.1-6,15.19-5.44,15.17-4.72,15-3.88,14.81-2.92,14.47-1.82,14-.61,13.48.72,13.5,2,14.13,3.16,14.64,4.16,15,5,15.31,5.78,15.47L203,378l6.83,15.46L217,408.78l7.34,15,7.39,14.61L239,452.48l7.07,13.46,6.71,12.72L259,490.54l5.56,10.9,4.79,9.83,3.87,8.64,2.83,7.33"/><path class="cls-1" d="M470.35,120.43l-7.8,1.7-9.31,1.78-10.69,1.91-11.89,2.05-12.93,2.23-13.83,2.45-14.56,2.69-15.13,3-15.54,3.26-15.79,3.6L327,149l-15.82,4.35-15.6,4.77-15.21,5.22-14.67,5.71-14,6.22L238.63,182l-12.08,7.33-10.91,7.94-10.1,9-9.79,10.41-9.47,11.62L177.14,241l-8.81,13.52-8.5,14.21-8.16,14.71-7.82,15-7.5,15.17L129.2,328.8l-6.81,14.92-6.48,14.53-6.13,13.95L104,385.4l-5.43,12.27-5.09,11.16-4.73,9.86-4.37,8.39-4,6.75"/><path class="cls-1" d="M519.55,331.62l-6.16-5.08-7.18-6.2-8.12-7.18-9-8-9.79-8.72-10.52-9.27-11.16-9.69-11.72-9.95-12.23-10.08L421,247.36l-13-9.91-13.25-9.62-13.44-9.17-13.56-8.6-13.6-7.87-13.56-7-13.45-6-13.27-4.85-13-3.56-13.35-2.27-14.26-1.14-15-.13-15.62.78-16.11,1.57-16.43,2.25-16.62,2.82-16.68,3.28-16.57,3.63-16.33,3.87-16,4-15.43,4-14.76,3.91-14,3.71-13,3.4-11.91,3-10.67,2.43-9.3,1.77-7.77,1"/><path class="cls-1" d="M385.27,502l.19-8,.41-9.48.58-10.83.68-12,.72-13.07.7-14,.61-14.73.46-15.35.24-15.8,0-16.13-.37-16.29L388.69,340l-1.23-16.19-1.76-15.93-2.35-15.51-3-14.95-3.72-14.24-4.5-13.39-5.34-12.38-6.57-11.85-8-11.86-9.29-11.81-10.39-11.74L321.2,178.5l-12.05-11.45L296.53,155.8l-13-11-13.22-10.7-13.25-10.38-13.11-10-12.79-9.59L218.87,95,207.25,86.4l-10.77-8.08-9.74-7.49L178.2,64l-7.15-6.19-5.6-5.48"/><path class="cls-1" d="M168.33,503.4l6.41-4.8,7.69-5.55,8.84-6.27,9.82-6.94,10.66-7.56,11.34-8.16L235,455.43l12.25-9.2,12.48-9.65,12.55-10.07,12.47-10.44,12.23-10.77,11.85-11.07,11.31-11.31,10.63-11.51,9.77-11.68,8.79-11.79,7.63-11.87,6.34-11.91,5.15-12.53,4.25-13.69,3.43-14.66,2.68-15.47,2-16.12,1.42-16.6.9-16.92.47-17.07.12-17-.16-16.88-.37-16.52-.49-16-.53-15.33-.5-14.49-.39-13.47-.19-12.3.07-11,.41-9.44.84-7.78"/><path class="cls-1" d="M31.72,334.81l7.74,2.07,9.14,2.59,10.39,3,11.53,3.38,12.54,3.62,13.42,3.78,14.18,3.85L125.45,361l15.3,3.71,15.67,3.5,15.9,3.21,16,2.82,16,2.33,15.87,1.76,15.6,1.09,15.21.34,14.69-.52,14-1.46L293,375.24l13-3.8,13.35-5.23L333,359.72l13.78-7.59,13.88-8.52,13.88-9.29,13.81-9.88L402,314.12l13.43-10.58,13.12-10.69,12.71-10.62,12.24-10.39,11.68-10,11.05-9.44,10.32-8.71,9.52-7.81,8.63-6.76,7.67-5.53,6.63-4.15"/><path class="cls-1" d="M78.14,122.78l3.16,7.37,3.64,8.77,4.08,10,4.53,11.11,5,12,5.4,12.83,5.82,13.46L116,212.31l6.63,14.24,7,14.39,7.41,14.39,7.8,14.25L153,283.51,161.55,297l8.89,12.85,9.23,12.06L189.25,333l9.89,10,10.23,8.8,11.11,7.8,12.43,7.17,13.6,6.57,14.56,6L276.42,385l16,5.05,16.39,4.63,16.63,4.24,16.69,3.89,16.58,3.59,16.27,3.32,15.8,3.09,15.13,2.91,14.29,2.77,13.26,2.66,12.05,2.59,10.67,2.57,9.1,2.58,7.34,2.64"/><path class="cls-1" d="M272.8,26.63,269,33.68,264.33,42,259,51.4l-5.88,10.45-6.32,11.37-6.66,12.2L233.3,98.33l-7,13.53-7,14-6.84,14.45-6.59,14.75-6.24,15-5.75,15.06-5.17,15-4.47,14.94-3.64,14.73L178,244.26l-1.66,14-.48,13.48.84,13.55,2.18,14.21,3.36,14.74,4.4,15.17,5.29,15.48,6,15.65,6.64,15.73L211.65,392l7.4,15.51,7.55,15.23,7.58,14.83,7.45,14.31,7.18,13.67,6.75,12.92,6.19,12.06,5.47,11.06,4.62,10,3.61,8.74,2.47,7.4"/><path class="cls-1" d="M469.51,118.68,461.58,120l-9.37,1.51-10.68,1.69-11.82,1.9-12.82,2.14-13.66,2.39-14.36,2.68-14.89,3-15.29,3.32-15.52,3.68-15.6,4.06L312,150.86l-15.33,4.9-14.95,5.37L267.31,167l-13.76,6.35-12.93,6.9-12,7.45-10.84,8-10.06,9.13L198,215.44l-9.43,11.85-9.11,12.94-8.8,13.82-8.47,14.53-8.16,15L146.2,299l-7.53,15.5-7.19,15.45-6.88,15.21L118,359.94,111.8,374.1l-5.91,13.36-5.59,12.37L95,411l-4.94,9.81-4.61,8.26-4.28,6.5"/><path class="cls-1" d="M520.43,329.89l-6-5.4-7-6.41-8-7.31-8.83-8.07L481,294l-10.37-9.17-11-9.53L448,265.55l-12.11-9.85-12.54-9.8-12.89-9.63L397.31,227l-13.38-8.88-13.51-8.31-13.57-7.6L343.3,195.4l-13.46-5.78-13.29-4.68-13-3.44-13.43-2.16-14.37-1-15.17,0-15.83,1-16.32,1.77-16.68,2.46-16.89,3-16.94,3.48L161,193.89l-16.62,4L128.19,202l-15.68,4.11-15,4-14.16,3.71-13.18,3.33-12,2.84-10.76,2.23L38,223.72l-7.76.65"/><path class="cls-1" d="M387.19,501.6l.55-8,.69-9.48.78-10.76.82-11.93.79-12.93.71-13.8.57-14.54.39-15.13.13-15.57-.18-15.88-.53-16.06-1-16.08-1.43-16-2-15.72L385,294.4l-3.19-14.79-3.89-14.11-4.65-13.29-5.46-12.34L361.12,228l-8.21-11.86-9.52-11.84-10.66-11.78-11.61-11.67-12.37-11.52L295.81,158l-13.33-11.09L269,136.12,255.4,125.63,242,115.49l-13-9.72-12.48-9.28-11.74-8.78L194,79.46l-9.73-7.67-8.44-7.06-7-6.38-5.3-5.69"/><path class="cls-1" d="M169.78,504.72l6.67-4.55,7.87-5.33,8.91-6.07,9.83-6.78,10.6-7.42,11.22-8,11.69-8.6,12-9.12,12.23-9.6,12.27-10,12.18-10.43L297.21,408l11.55-11.08,11-11.34L330.14,374l9.53-11.72,8.58-11.85,7.48-11.93,6.22-12L367,313.89l4.14-13.84,3.3-14.86L377,269.48l1.87-16.39,1.28-16.89.77-17.23.34-17.39V184.21L381,167l-.43-16.81-.51-16.28-.52-15.58-.45-14.69L378.81,90l0-12.4.28-11,.7-9.43,1.18-7.67"/><path class="cls-1" d="M31.55,336.77l7.71,2.43,9.06,2.87,10.3,3.21L70,348.75l12.4,3.66,13.25,3.76,14,3.77,14.61,3.7,15.1,3.55,15.48,3.3,15.72,3,15.84,2.58,15.83,2.09L218,379.66l15.46.86,15.1.11,14.6-.71,14-1.62,13.24-2.61,13-3.94,13.41-5.41,13.69-6.72,13.88-7.84,14-8.8,14-9.58,14-10.18,13.84-10.62,13.61-10.86,13.3-10.95L440,279.94l12.44-10.58,11.88-10.14,11.23-9.52L486.09,241l9.69-7.76,8.8-6.61,7.83-5.3,6.75-3.81"/><path class="cls-1" d="M76.47,123.84l2.86,7.57,3.38,8.89,3.87,10L91,161.43l4.84,12,5.32,12.68,5.77,13.27L113.1,213l6.65,14,7.07,14.12,7.47,14.11,7.88,13.95,8.25,13.65L159.05,296l9,12.59,9.34,11.85,9.67,10.94,10,9.91L207.37,350l11.23,7.74,12.61,7.09L245,371.38l14.84,5.95,15.64,5.45,16.29,5,16.72,4.57,17,4.19,17,3.86,16.9,3.58L376,407.3l16.08,3.13,15.36,3,14.48,2.86,13.39,2.8,12.12,2.76,10.66,2.79,9,2.84,7.17,3"/><path class="cls-1" d="M270.93,26l-4.18,6.93L261.87,41l-5.46,9.29-6,10.3-6.32,11.22-6.6,12.05-6.75,12.76L224,110l-6.76,13.89-6.6,14.31-6.34,14.63-6,14.84-5.48,14.94-4.9,15-4.2,14.87-3.4,14.68-2.5,14.38-1.48,14-.36,13.5,1,13.61,2.34,14.3,3.56,14.89,4.62,15.33L193,342.84l6.29,15.87,6.89,16,7.33,15.91,7.63,15.77,7.78,15.48,7.75,15.07,7.59,14.55,7.27,13.9,6.79,13.14,6.17,12.24L269.89,502,274.33,512l3.35,8.83,2.1,7.44"/><path class="cls-1" d="M468.91,116.78l-8,1L451.44,119l-10.66,1.49L429,122.26l-12.7,2-13.51,2.35-14.16,2.67-14.67,3-15.05,3.39-15.27,3.77-15.34,4.19L313,148.31,298,153.37l-14.71,5.52-14.22,6-13.57,6.52-12.79,7L230.82,186l-10.77,8.15-10,9.27-9.72,10.77-9.41,12.1-9.11,13.22L173,253.68l-8.49,14.86-8.18,15.38-7.88,15.71-7.57,15.85-7.27,15.77-7,15.51-6.66,15-6.36,14.38-6,13.52-5.75,12.46-5.45,11.21-5.15,9.76-4.85,8.1-4.55,6.25"/><path class="cls-1" d="M521.59,328.25l-5.78-5.7L509,315.92l-7.79-7.43-8.68-8.11L483,291.73l-10.24-9.08-10.91-9.39-11.5-9.55-12-9.62-12.46-9.54-12.83-9.35-13.13-9-13.35-8.59-13.49-8-13.56-7.33L346,195.71l-13.48-5.58-13.33-4.51-13.1-3.32-13.51-2.06-14.51-.86-15.35.2-16,1.15-16.58,2-17,2.65L196,188.56l-17.24,3.66-17.15,4-16.91,4.17-16.5,4.24-16,4.19L97,212.8l-14.38,3.69-13.35,3.27-12.18,2.7-10.85,2-9.36,1.23-7.72.29"/><path class="cls-1" d="M389.2,501.52l.92-8.08,1-9.46,1-10.71.94-11.82.85-12.8.72-13.65.53-14.35.29-14.92V390.37l-.33-15.67-.72-15.83L393.21,343l-1.64-15.76-2.17-15.52-2.76-15.15-3.38-14.65-4.08-14-4.8-13.23-5.58-12.31L362,230.54l-8.4-11.89-9.77-11.89-10.93-11.83L321,183.18l-12.69-11.61L295,160.13l-13.66-11.21L267.48,138l-13.85-10.64L240,117l-13.25-9.89-12.65-9.44-11.87-9-10.89-8.43-9.71-7.86-8.33-7.24-6.77-6.59-5-5.88"/><path class="cls-1" d="M171.08,506.28,178,502l8-5.11,9-5.88,9.83-6.61,10.53-7.29,11.1-7.94L238,460.65l11.82-9.07,12-9.57,12-10,11.88-10.43,11.65-10.81,11.26-11.11,10.74-11.39,10.09-11.61,9.31-11.79,8.38-11.92,7.33-12,6.12-12,5-12.75,4.05-14L372.8,287l2.42-16L377,254.37l1.16-17.21.65-17.55.23-17.72-.08-17.7-.33-17.51-.47-17.13L377.59,133l-.51-15.83-.38-14.9-.18-13.79L376.64,76l.5-11,1-9.38L379.64,48"/><path class="cls-1" d="M31.1,338.76l7.66,2.79,9,3.14,10.19,3.39,11.28,3.58,12.25,3.69,13.1,3.72,13.83,3.69,14.43,3.56,14.93,3.37,15.3,3.11,15.55,2.75,15.68,2.34L200,379.73,215.57,381l15.35.62,15-.11,14.54-.91,13.95-1.79,13.25-2.74L300.76,372l13.49-5.6L328,359.45l14-8.1,14.15-9.07,14.19-9.88,14.16-10.47,14-10.91,13.82-11.14,13.52-11.21,13.13-11.08,12.65-10.77,12.09-10.28,11.44-9.6,10.7-8.74,9.88-7.7,9-6.47,8-5.06,6.87-3.47"/><path class="cls-1" d="M74.6,124.7l2.55,7.75,3.12,9,3.67,10.09,4.21,11.05,4.74,11.87L98.14,187l5.73,13.08,6.22,13.49,6.67,13.74,7.13,13.85L131.44,255l8,13.68,8.36,13.38L156.51,295l9.12,12.36L175.09,319l9.8,10.78L195,339.53l10.42,8.64,11.36,7.69,12.81,7,14.06,6.45,15.11,5.9,16,5.4,16.62,4.94,17.07,4.53,17.33,4.17,17.38,3.85,17.23,3.59,16.9,3.36,16.35,3.19,15.61,3.05,14.66,3,13.53,2.93,12.18,2.95,10.65,3,8.91,3.1,7,3.27"/><path class="cls-1" d="M269.11,25l-4.53,6.81-5.12,8L253.84,49l-6,10.16L241.5,70.19,235,82.1l-6.63,12.62L221.7,108l-6.55,13.77-6.36,14.19-6.07,14.52L197,165.19l-5.21,14.88L187.2,195l-3.94,14.82-3.17,14.66-2.29,14.38-1.31,14-.24,13.54,1.09,13.68,2.5,14.42,3.75,15L188.43,325l5.77,15.88,6.53,16.1,7.14,16.22,7.57,16.18,7.86,16,8,15.75,7.93,15.35,7.72,14.8,7.36,14.15,6.82,13.35,6.13,12.44,5.28,11.39,4.27,10.21,3.08,8.92,1.75,7.48"/><path class="cls-1" d="M468.57,114.73l-8.16.66-9.47,1-10.65,1.27-11.69,1.61-12.59,2-13.35,2.32-14,2.69-14.46,3.07-14.82,3.48-15,3.9L329.25,141l-15,4.77L299.37,151l-14.49,5.69-14,6.19-13.4,6.69-12.65,7.2L233,184.46l-10.73,8.27-10,9.4-9.72,11-9.41,12.34L184,239l-8.82,14.45-8.53,15.2-8.23,15.74-7.94,16.06-7.65,16.19-7.36,16.1-7.07,15.81-6.78,15.31-6.49,14.6L109,392.1,103,404.66l-5.64,11.23L92,425.59,87,433.53l-4.8,6"/><path class="cls-1" d="M523,326.72l-5.57-6-6.62-6.84-7.62-7.54-8.52-8.14-9.36-8.62-10.12-9-10.8-9.23L453,262l-12-9.38-12.41-9.29-12.79-9.07-13.11-8.75-13.33-8.3-13.5-7.74-13.59-7.07-13.59-6.28-13.52-5.37-13.39-4.35-13.16-3.22-13.62-2-14.66-.73-15.56.35-16.27,1.32-16.85,2.13-17.24,2.84L197,190.51l-17.56,3.83-17.47,4.13-17.22,4.31-16.82,4.34-16.23,4.25-15.5,4-14.61,3.67L68,222.26l-12.32,2.57-10.93,1.83-9.38.94-7.67-.06"/><path class="cls-1" d="M391.3,501.72l1.28-8.1,1.25-9.45L395,473.53l1.07-11.73.92-12.67.71-13.5.47-14.18.19-14.74-.13-15.16-.5-15.47-.91-15.63-1.37-15.67-1.86-15.59-2.39-15.35-3-15-3.6-14.52-4.26-13.92-5-13.17-5.72-12.3-7-11.87-8.59-11.93-10-12L332.9,197.25,320.68,185.4l-13-11.73-13.6-11.57-14-11.36-14.16-11.11-14.15-10.81-13.92-10.46-13.48-10.07-12.84-9.64-12-9.15-10.94-8.63-9.69-8.05-8.22-7.44-6.57-6.77-4.68-6.06"/><path class="cls-1" d="M172.21,508.07l7.17-4,8.18-4.88,9.07-5.68,9.84-6.46,10.47-7.17,11-7.84,11.36-8.47,11.62-9L262.63,445l11.74-10L286,424.47l11.37-10.84,11-11.18L318.81,391l9.84-11.69,9.08-11.89,8.2-12,7.18-12.11,6.05-12.14,4.91-12.88,4-14.19,3.09-15.31,2.31-16.24,1.64-17,1-17.54.55-17.9.15-18.07L376.65,184l-.38-17.84-.5-17.45-.53-16.87-.47-16.08-.31-15.12-.06-14L374.68,74,375.4,63l1.24-9.34,1.87-7.43"/><path class="cls-1" d="M30.36,340.76l7.6,3.16,8.9,3.4,10.08,3.57,11.16,3.68,12.12,3.71,13,3.69,13.67,3.59L121.14,369l14.78,3.19,15.15,2.89,15.4,2.52L182,379.68l15.57,1.58,15.48,1,15.26.37,14.95-.34,14.5-1.12,14-1.95L285,376.35l13.14-4.2,13.57-5.78,13.92-7.16,14.17-8.35,14.32-9.35,14.39-10.16,14.38-10.77,14.25-11.2L411.19,298,425,286.5l13.36-11.3,12.89-11,12.32-10.41,11.65-9.68,10.91-8.75,10.06-7.64,9.13-6.32,8.1-4.82,7-3.12"/><path class="cls-1" d="M72.55,125.34l2.23,7.93,2.85,9.09,3.47,10.12,4.06,11,4.63,11.78L95,187.68l5.72,12.9,6.23,13.28,6.73,13.51L120.85,241l7.65,13.59L136.58,268l8.49,13.13,8.88,12.7,9.26,12.13,9.6,11.45L182.75,328,193,337.68l10.54,8.58,11.5,7.65,13,7,14.32,6.41,15.4,5.87,16.3,5.36,17,4.92L308.45,388l17.69,4.16L343.89,396l17.58,3.62,17.22,3.41,16.64,3.25,15.86,3.16,14.86,3.09,13.66,3.1L452,418.78,462.59,422l8.81,3.37,6.76,3.55"/><path class="cls-1" d="M267.34,23.74l-4.86,6.65-5.36,7.88-5.77,9-6.09,10-6.32,10.94L232.48,80,226,92.52l-6.47,13.13-6.34,13.67L207,133.42l-5.81,14.44-5.41,14.68-4.93,14.81-4.35,14.86L182.85,207l-2.93,14.65-2.07,14.39-1.15,14-.12,13.6,1.2,13.77L180.44,292l3.94,15.22L189.43,323l6,16.11,6.77,16.38L209.56,372l7.81,16.47,8.07,16.33,8.16,16.05,8.09,15.62,7.85,15.09,7.43,14.4,6.85,13.58,6.1,12.64,5.17,11.56L279.17,514l2.82,9,1.38,7.51"/><path class="cls-1" d="M468.48,112.56l-8.25.29-9.51.68-10.63,1.07-11.63,1.47L416,118l-13.21,2.29L389,123l-14.28,3.14-14.61,3.58-14.81,4-14.88,4.48-14.82,5-14.63,5.41-14.3,5.89-13.84,6.38-13.26,6.87L247,175l-11.69,7.88-10.7,8.4-10,9.55-9.73,11.19-9.44,12.6-9.16,13.8-8.87,14.79L168.8,268.8l-8.31,16.09-8,16.43-7.75,16.54-7.47,16.44-7.19,16.11L123.12,366l-6.64,14.82-6.38,13.85L104,407.32l-5.83,11.25-5.58,9.62L87.28,436l-5,5.73"/><path class="cls-1" d="M524.69,325.31,519.35,319l-6.43-7-7.44-7.66-8.38-8.18-9.23-8.58-10-8.9-10.72-9.08-11.35-9.18-11.9-9.15-12.38-9-12.78-8.8-13.11-8.47-13.36-8-13.52-7.47-13.63-6.81-13.64-6-13.59-5.18-13.46-4.19-13.25-3.12-13.74-1.86-14.83-.62-15.78.49-16.54,1.47-17.13,2.3-17.56,3-17.81,3.57-17.9,4-17.81,4.28-17.56,4.42-17.13,4.43-16.54,4.31-15.77,4-14.84,3.64L66.5,224.66,54,227.09l-11,1.62-9.39.66L26,229"/><path class="cls-1" d="M393.46,502.19l1.65-8.11,1.53-9.41L398,474.09l1.19-11.63,1-12.56.71-13.35.41-14,.08-14.57-.28-15-.68-15.28-1.12-15.46-1.58-15.5-2.09-15.42L393,316.08l-3.21-14.88L386,286.77l-4.46-13.84-5.13-13.14-5.85-12.3-7.13-11.91-8.79-12-10.26-12-11.5-12-12.53-12L307,175.65l-13.94-11.73-14.33-11.53L264.24,141.1l-14.45-11L235.6,119.44l-13.71-10.27-13-9.84L196.75,90l-11-8.83-9.67-8.25L168,65.26l-6.35-7-4.37-6.24"/><path class="cls-1" d="M173.16,510.09l7.4-3.72,8.33-4.64,9.15-5.49,9.83-6.3,10.41-7.06,10.86-7.76,11.2-8.42,11.42-9,11.51-9.57L274.76,438l11.35-10.52,11.1-10.92,10.71-11.26,10.22-11.56L327.75,382l8.87-12,8-12.13,7.05-12.22,6-12.26,4.86-13L366.41,306l3-15.56,2.23-16.53,1.54-17.31,1-17.89.47-18.27.08-18.44-.22-18.43-.41-18.2-.51-17.79L373,130.39,372.62,114l-.23-15.34.07-14.12.45-12.72.94-11.1,1.51-9.29,2.2-7.29"/><path class="cls-1" d="M29.34,342.76l7.51,3.52,8.81,3.66,10,3.75,11,3.77,12,3.75,12.83,3.64L105,368.34l14.15,3.28,14.64,3,15,2.67,15.29,2.28,15.44,1.84,15.47,1.32,15.4.74,15.21.12,14.9-.57,14.49-1.32L269,379.58l13.31-3,13.22-4.34,13.68-5.95,14.07-7.39,14.34-8.6,14.53-9.63,14.61-10.44,14.61-11.06,14.51-11.48L410.19,296l14-11.7,13.63-11.53L451,261.64l12.56-10.55,11.89-9.75,11.11-8.76L496.78,225l9.29-6.17,8.23-4.57,7.08-2.78"/><path class="cls-1" d="M70.33,125.75l1.88,8.09L74.8,143l3.27,10.15,3.91,11,4.54,11.69,5.14,12.28,5.71,12.75L103.64,214l6.78,13.29,7.29,13.38L125.48,254l8.21,13.18L142.33,280l9,12.47,9.41,11.94,9.77,11.27,10.08,10.48L191,335.76l10.66,8.53,11.65,7.63,13.23,7,14.58,6.39,15.71,5.85,16.63,5.35,17.33,4.92,17.81,4.53,18.08,4.19,18.12,3.9,17.94,3.66,17.55,3.49,16.94,3.35,16.12,3.26L428.43,411l13.8,3.25,12.31,3.32,10.61,3.45,8.69,3.62,6.55,3.84"/><path class="cls-1" d="M265.64,22.21l-5.2,6.5-5.59,7.73-5.92,8.85-6.15,9.89L236.46,66l-6.38,11.66-6.39,12.4-6.29,13-6.14,13.58-5.87,14-5.56,14.38-5.14,14.63L190,174.52,186,189.36l-3.43,14.81-2.69,14.66L178,233.26l-1,14.1V261l1.32,13.88,2.8,14.72L185.22,305l5.25,16,6.21,16.39,7,16.65,7.6,16.8,8,16.79,8.27,16.64,8.35,16.36,8.24,15.95,8,15.37,7.5,14.67,6.87,13.83,6.05,12.85L277.6,505l3.9,10.47,2.55,9,1,7.52"/><path class="cls-1" d="M468.65,110.26l-8.33-.07-9.54.41-10.61.86-11.56,1.34-12.38,1.8-13.08,2.27-13.65,2.75-14.1,3.22L361,126.53l-14.61,4.18-14.67,4.65-14.62,5.13-14.44,5.61-14.12,6.1-13.69,6.58-13.13,7.07-12.44,7.55-11.62,8L227,190l-10,9.71-9.76,11.4L197.67,224l-9.22,14.1-8.95,15.12-8.68,15.9-8.4,16.47-8.14,16.79-7.88,16.9L138.79,336l-7.34,16.42-7.08,15.86-6.82,15-6.56,14-6.3,12.76-6,11.27-5.78,9.56-5.53,7.61L82.07,444"/><path class="cls-1" d="M526.63,324l-5.11-6.59-6.23-7.23L508,302.44l-8.23-8.21-9.11-8.56-9.92-8.79-10.65-8.94-11.3-9L446.94,250l-12.37-8.78-12.8-8.54-13.13-8.19-13.39-7.75-13.59-7.2L368,203l-13.72-5.83-13.68-5-13.55-4-13.35-3-13.87-1.79-15-.51-16,.62L252,185l-17.45,2.45-17.89,3.16-18.17,3.71-18.26,4.13L162,202.87,144.1,207.4l-17.48,4.51-16.85,4.35-16,4-15.08,3.61-13.93,3-12.6,2.29L41,230.61l-9.4.39-7.53-.77"/><path class="cls-1" d="M395.67,503l2-8.1,1.82-9.38L401.08,475l1.3-11.54,1-12.44.69-13.23.34-13.88,0-14.41-.44-14.84-.87-15.13-1.33-15.3-1.82-15.36-2.32-15.28-2.87-15.1-3.44-14.78-4-14.35-4.65-13.8-5.31-13.12-6-12.33-7.27-12L355,226l-10.5-12.15-11.78-12.16-12.84-12.14-13.67-12.05L292,165.62l-14.65-11.74-14.82-11.5-14.75-11.21-14.46-10.89-13.93-10.49L206.14,99.73l-12.23-9.58-11-9-9.63-8.46-8-7.81-6.14-7.13L155,51.31"/><path class="cls-1" d="M173.92,512.33l7.63-3.43,8.47-4.4,9.21-5.3,9.84-6.15,10.35-6.95,10.75-7.7,11-8.39,11.22-9,11.3-9.6L275,441.27l11.1-10.59,10.84-11,10.46-11.37,10-11.67,9.38-11.93,8.68-12.12,7.86-12.26L350.22,348l5.89-12.38,4.81-13.17,3.83-14.6L367.69,292l2.16-16.85,1.47-17.65.89-18.25.41-18.65,0-18.83L372.4,183,372,164.38l-.51-18.14L371,128.75l-.36-16.63-.13-15.57.2-14.3.63-12.82,1.16-11.13,1.79-9.23,2.52-7.13"/><path class="cls-1" d="M28,344.74l7.43,3.88,8.7,3.93L54,356.47,65,360.33l11.87,3.76,12.71,3.6L103,371.08l14,3.13L131.51,377l14.92,2.45,15.19,2L177,383.09l15.4,1.06,15.35.48,15.16-.13,14.89-.81,14.49-1.53,14-2.3,13.36-3.13,13.31-4.47,13.82-6.13,14.23-7.6,14.54-8.85,14.75-9.89,14.87-10.73L380,317.72,394.79,306l14.6-12,14.3-11.95,13.9-11.73L451,259l12.82-10.67L476,238.53l11.34-8.76,10.44-7.49,9.45-6,8.35-4.32,7.15-2.42"/><path class="cls-1" d="M67.93,125.92l1.55,8.25,2.32,9.26,3.06,10.17,3.78,11,4.44,11.61,5.11,12.16,5.72,12.59,6.31,12.89,6.87,13.09,7.4,13.16,7.9,13.12,8.36,13,8.81,12.68,9.21,12.27,9.59,11.75,9.94,11.11,10.25,10.36,10.54,9.49,10.8,8.49,11.82,7.62,13.44,7L240,363.26l16,5.85,17,5.37,17.71,4.94,18.2,4.56,18.47,4.24,18.5,4,18.31,3.74,17.9,3.57L399.35,403l16.38,3.39L431,409.73l13.93,3.42,12.37,3.53,10.59,3.67,8.57,3.87,6.32,4.12"/><path class="cls-1" d="M264,20.41l-5.53,6.32-5.83,7.57L246.61,43l-6.22,9.76-6.3,10.7L227.77,75l-6.26,12.31-6.12,13-5.92,13.53-5.64,14-5.3,14.34-4.87,14.62-4.38,14.79-3.8,14.85-3.18,14.83L179.84,216l-1.68,14.48-.82,14.17.11,13.76,1.42,14,2.95,14.89,4.29,15.63,5.45,16.22L198,335.78l7.2,17L213,369.87,221.23,387l8.46,17,8.52,16.7L246.6,437l8.06,15.69,7.56,15,6.87,14.08,6,13.06,4.94,11.9,3.7,10.58,2.28,9.12.67,7.51"/><path class="cls-1" d="M469.08,107.86l-8.39-.43-9.56.12-10.58.66-11.5,1.21-12.29,1.74-12.95,2.26-13.5,2.79-13.94,3.31-14.24,3.82-14.42,4.33-14.5,4.84-14.44,5.33-14.27,5.83-14,6.32L277,156.78l-13,7.28-12.36,7.75L240,180l-10.68,8.68-10.07,9.86-9.81,11.62-9.56,13.14-9.3,14.42-9,15.46-8.8,16.27-8.53,16.84-8.28,17.16-8,17.26-7.77,17.13-7.51,16.73-7.26,16.13-7,15.27-6.76,14.18L105.1,413l-6.25,11.28-6,9.49-5.74,7.44-5.49,5.16"/><path class="cls-1" d="M528.82,322.9,524,316l-6-7.43-7.1-7.87-8.08-8.24-9-8.52-9.84-8.7-10.6-8.8L462,257.67l-11.87-8.73-12.39-8.54L425,232.12l-13.18-7.93-13.46-7.48-13.66-7-13.78-6.33-13.83-5.61L343.27,193l-13.66-3.91-13.47-2.93-14-1.71L286.9,184l-16.27.74-17.12,1.73-17.77,2.59-18.25,3.29L199,196.23l-18.64,4.25L161.75,205l-18.28,4.61-17.83,4.57-17.18,4.38-16.35,4-15.34,3.55-14.13,2.92-12.73,2.12-11.16,1.2-9.4.11-7.45-1.12"/><path class="cls-1" d="M397.92,504l2.4-8.08,2.09-9.33,1.76-10.44,1.41-11.45,1.06-12.34.66-13.1.27-13.75-.17-14.29-.6-14.69-1.07-15-1.56-15.17-2.05-15.23-2.58-15.18-3.12-15-3.68-14.71-4.26-14.3-4.87-13.77L378.13,265,372,252.68l-7.42-12-9.2-12.18-10.76-12.28-12.07-12.32-13.14-12.32-14-12.24L290.8,167.16l-15-12-15.14-11.73L245.62,132,230.9,120.89l-14.17-10.74-13.38-10.3L191,90l-11.09-9.26-9.61-8.66-7.88-8-5.91-7.3-3.72-6.54"/><path class="cls-1" d="M174.48,514.77l7.84-3.13,8.61-4.15,9.28-5.1,9.83-6,10.29-6.85L231,481.88l10.89-8.37,11-9L264,454.83l11-10.2,10.86-10.69,10.59-11.12,10.23-11.5,9.75-11.81,9.17-12.07,8.5-12.27,7.71-12.41,6.83-12.5,5.84-12.51,4.78-13.33,3.78-14.82L366,293.49l2.1-17.16,1.43-18,.84-18.64.37-19.05V201.4l-.26-19.21-.42-19-.48-18.5-.43-17.82L368.82,110V94.17l.34-14.47L370,66.78l1.39-11.16,2-9.16,2.84-7"/><path class="cls-1" d="M26.42,346.7l7.32,4.24,8.59,4.18,9.77,4.09,10.81,4,11.76,3.78,12.6,3.55,13.32,3.28,13.94,3L129,379.37l14.84,2.23,15.12,1.79,15.29,1.31,15.36.79,15.32.22,15.16-.39,14.89-1,14.52-1.74,14-2.47,13.43-3.26,13.42-4.59,14-6.32,14.42-7.81L333.5,349l15-10.15,15.14-11,15.17-11.63,15.08-12L408.79,292l14.61-12.19,14.21-11.94,13.71-11.47,13.1-10.78,12.38-9.88L488.37,227,499,219.55l9.61-5.84,8.46-4.07,7.23-2.07"/><path class="cls-1" d="M65.39,125.85l1.2,8.39,2,9.34,2.86,10.18,3.63,10.92,4.37,11.53,5.07,12,5.75,12.44,6.37,12.73,7,12.9,7.52,13,8,12.91,8.53,12.74,9,12.48,9.41,12.08,9.78,11.58,10.13,11,10.44,10.26,10.7,9.41,10.95,8.48,12,7.62,13.68,7L239,361.23l16.36,5.88,17.35,5.41,18.09,5,18.6,4.61,18.87,4.31,18.9,4.05,18.69,3.83L384.07,398l17.56,3.59,16.63,3.54,15.48,3.55,14.07,3.61L460.25,416l10.55,3.89,8.45,4.12,6.08,4.39"/><path class="cls-1" d="M262.51,18.33l-5.85,6.15-6.06,7.39-6.2,8.57-6.28,9.63-6.29,10.59-6.25,11.47-6.12,12.24-6,12.91-5.71,13.48-5.41,14-5,14.35-4.61,14.62-4.11,14.81-3.55,14.89-2.92,14.88-2.24,14.78-1.48,14.56-.66,14.26.22,13.86,1.51,14.14L182.6,285l4.45,15.87,5.63,16.5,6.62,17,7.41,17.3,8,17.48,8.43,17.49,8.64,17.35L240.47,421,249,437.59l8.16,16,7.61,15.26,6.87,14.35,5.94,13.28,4.83,12.07,3.5,10.7,2,9.17.31,7.5"/><path class="cls-1" d="M469.8,105.36l-8.46-.79-9.56-.16-10.55.46-11.44,1.07-12.19,1.68-12.85,2.27-13.36,2.85-13.79,3.41-14.08,4-14.27,4.5-14.33,5-14.28,5.55-14.13,6.06-13.84,6.55-13.44,7-12.93,7.5-12.3,8-11.56,8.39-10.7,8.83-10.12,10-9.88,11.85-9.65,13.41-9.41,14.74-9.17,15.81L174.58,270l-8.68,17.22-8.45,17.55-8.2,17.62-8,17.47-7.71,17.06-7.46,16.4-7.21,15.5-7,14.34-6.71,12.95-6.46,11.29-6.2,9.4-6,7.27-5.69,4.87"/><path class="cls-1" d="M531.24,321.93l-4.6-7.15-5.81-7.6-6.92-8L506,290.93l-8.9-8.49-9.77-8.61-10.56-8.66-11.26-8.62L453.59,248l-12.42-8.31-12.88-8L415,224l-13.55-7.23-13.76-6.71L373.82,204l-13.94-5.41L346,193.94l-13.8-3.79-13.59-2.85-14.17-1.65L289,185.33l-16.54.83L255,188l-18.13,2.7-18.63,3.41-18.93,4-19.05,4.35L161.3,207l-18.68,4.68-18.2,4.61L106.9,220.7l-16.66,4-15.59,3.49L60.32,231l-12.89,2L36.2,234l-9.38-.16-7.35-1.47"/><path class="cls-1" d="M400.21,505.33l2.76-8.05,2.36-9.28,1.95-10.37,1.53-11.36L409.9,454l.63-13,.18-13.64-.29-14.16-.78-14.59-1.28-14.87-1.78-15.07-2.3-15.13-2.84-15.09-3.37-14.94-3.94-14.65-4.49-14.27-5.08-13.77-5.67-13.15-6.26-12.41-7.57-12.12-9.41-12.31-11-12.43-12.36-12.51-13.46-12.52-14.32-12.47-14.95-12.37-15.32-12.22-15.46-12-15.34-11.72-15-11.39-14.39-11L200.51,99.68,188,89.63l-11.13-9.49-9.57-8.87-7.75-8.2L153.9,55.6l-3.39-6.67"/><path class="cls-1" d="M174.82,517.41l8.05-2.81,8.74-3.9,9.34-4.92,9.83-5.87L221,493.14l10.54-7.59,10.75-8.37,10.87-9.07,10.89-9.71,10.8-10.29,10.64-10.8,10.36-11.26,10-11.65,9.54-12,9-12.24,8.34-12.43,7.57-12.58L347,352.53l5.79-12.66,4.75-13.5,3.76-15.07,2.86-16.4,2.07-17.5L367.66,259l.82-19,.35-19.46V200.87l-.25-19.63-.4-19.36L367.75,143l-.36-18.16-.18-17.22.1-16,.5-14.65,1-13,1.61-11.17,2.33-9.09,3.14-6.79"/><path class="cls-1" d="M24.53,348.61l7.2,4.59,8.48,4.44,9.65,4.26,10.71,4,11.66,3.78,12.5,3.5L98,376.4l13.85,2.81,14.37,2.43,14.78,2L156,385.19l15.26,1,15.34.52,15.31,0,15.17-.64L232,384.79l14.56-2,14.1-2.64,13.53-3.38,13.54-4.72,14.14-6.49,14.64-8,15-9.33,15.28-10.41,15.44-11.26,15.48-11.89,15.41-12.3,15.24-12.46,14.93-12.42,14.54-12.13,14-11.63,13.39-10.89,12.65-9.93,11.8-8.75,10.84-7.32,9.76-5.68,8.57-3.82,7.28-1.72"/><path class="cls-1" d="M62.69,125.53l.86,8.51,1.77,9.41L68,153.65l3.5,10.88L75.78,176l5,11.95,5.77,12.3,6.45,12.57,7.08,12.72,7.67,12.78L116,251l8.73,12.56,9.19,12.29,9.61,11.92,10,11.44,10.34,10.86,10.62,10.16,10.89,9.37,11.1,8.47,12.16,7.64,13.92,7L238,359.21l16.7,5.93,17.72,5.47,18.49,5.06,19,4.7,19.28,4.4,19.3,4.15,19.08,4,18.6,3.82,17.88,3.74,16.9,3.7,15.69,3.73,14.21,3.8,12.49,3.93,10.52,4.12,8.31,4.36,5.84,4.65"/><path class="cls-1" d="M261.1,16l-6.17,5.94-6.28,7.23-6.34,8.42L236,47.08l-6.29,10.5L223.53,69l-6,12.18L211.74,94l-5.51,13.47-5.18,14-4.78,14.36-4.35,14.66-3.84,14.86-3.29,15-2.67,15-2,14.86-1.29,14.67-.52,14.36.32,14,1.61,14.3,3.21,15.29,4.6,16.13,5.8,16.8,6.81,17.31,7.59,17.66,8.21,17.85,8.6,17.88,8.81,17.73,8.82,17.44,8.63,17,8.24,16.35,7.65,15.57L274.05,485l5.88,13.51,4.69,12.25,3.31,10.81,1.74,9.22-.05,7.46"/><path class="cls-1" d="M470.79,102.79l-8.49-1.17-9.57-.45-10.52.27-11.38,1L418.72,104,406,106.3l-13.25,2.91-13.66,3.52-13.94,4.11L351,121.53l-14.19,5.24-14.15,5.78-14,6.29L295,145.63l-13.35,7.26-12.87,7.73-12.26,8.16-11.56,8.58-10.74,9L224,196.55l-10,12.07-9.75,13.7-9.54,15.05-9.32,16.16-9.09,17-8.88,17.6-8.63,17.93-8.4,18-8.17,17.82-7.93,17.37-7.68,16.68-7.44,15.72L112,406.16l-6.93,13-6.68,11.31L92,439.82l-6.15,7.08-5.9,4.57"/><path class="cls-1" d="M533.91,321.12l-4.34-7.41L524,305.94l-6.74-8.08-7.82-8.3-8.81-8.45-9.72-8.53-10.53-8.53L469.1,255.6l-11.92-8.31-12.48-8.08-13-7.8L418.39,224l-13.66-7-13.89-6.47-14-5.88-14.08-5.21L348.68,195l-13.94-3.67L321,188.51l-14.34-1.6-15.7-.26-16.83.93-17.77,1.94-18.5,2.8-19,3.51-19.34,4L180,204.32,160.65,209l-19.08,4.73L123,218.35l-17.89,4.38-17,4-15.86,3.42-14.54,2.69-13,1.8-11.29.76L24,234.94l-7.23-1.8"/><path class="cls-1" d="M402.49,507l3.14-8,2.64-9.21,2.14-10.3L412,468.16,413.16,456l.6-12.9.09-13.54-.44-14.06-1-14.48L411,386.25l-2-15-2.55-15.06-3.1-15-3.63-14.88-4.19-14.63-4.74-14.26-5.29-13.78-5.85-13.2-6.41-12.48-7.72-12.23-9.61-12.45L344.6,220.65,332,207.94l-13.77-12.75-14.65-12.73-15.28-12.64-15.64-12.49L256.85,145l-15.64-12L226,121.35l-14.61-11.28L197.63,99.24,185.05,88.92l-11.17-9.73-9.53-9.08-7.62-8.39-5.46-7.62-3.05-6.79"/><path class="cls-1" d="M175,520.24l8.24-2.5,8.86-3.64,9.39-4.72,9.84-5.74L221.46,497l10.45-7.57L242.53,481l10.7-9.12,10.7-9.79,10.61-10.4L285,440.76l10.15-11.41,9.8-11.81,9.34-12.16,8.8-12.42,8.18-12.62,7.46-12.76,6.66-12.82,5.76-12.82,4.74-13.69,3.74-15.31,2.85-16.71,2.06-17.86,1.38-18.77.81-19.45.37-19.88V200.18l-.22-20.05-.35-19.77-.37-19.26-.27-18.51-.07-17.52.24-16.3.66-14.83,1.2-13.12,1.84-11.19,2.59-9L375.77,34"/><path class="cls-1" d="M22.36,350.46l7.06,4.94,8.36,4.7,9.53,4.42,10.6,4.12,11.57,3.8,12.41,3.44,13.16,3.06,13.8,2.66,14.32,2.23,14.74,1.78L153,386.9l15.25.79,15.35.25,15.33-.32,15.21-.89,15-1.51,14.63-2.15,14.19-2.82,13.63-3.5,13.68-4.85,14.34-6.64L314.42,357l15.28-9.56,15.59-10.66,15.76-11.52,15.82-12.15,15.77-12.55,15.59-12.71,15.29-12.63,14.88-12.32,14.35-11.78,13.7-11,12.93-10,12-8.72,11-7.24,9.92-5.51,8.67-3.56,7.31-1.36"/><path class="cls-1" d="M59.87,125l.49,8.62,1.5,9.47,2.46,10.21,3.37,10.85,4.23,11.4L77,187.34l5.81,12.18L89.32,212l7.21,12.56,7.82,12.61,8.4,12.55,8.93,12.4,9.4,12.13L140.92,286l10.22,11.31L161.69,308l10.84,10.09,11.07,9.33,11.26,8.48,12.34,7.68,14.17,7.07,15.75,6.51,17,6,18.1,5.55,18.9,5.16,19.43,4.81,19.7,4.51L350,387.53l19.47,4.11,19,4,18.2,3.9,17.18,3.89,15.89,3.91,14.35,4,12.55,4.15,10.48,4.34,8.17,4.6,5.59,4.9"/><path class="cls-1" d="M259.81,13.39l-6.48,5.73-6.5,7-6.46,8.27L234,43.82l-6.27,10.4-6.1,11.32-5.88,12.13-5.61,12.86L204.8,104l-5,14-4.53,14.41-4.09,14.71L187.65,162l-3,15-2.44,15.06-1.8,15-1.11,14.79-.38,14.49.42,14.11L181,265l3.32,15.52,4.74,16.41L195,314l7,17.67,7.77,18L218.14,368l8.77,18.27,9,18.15,8.95,17.84,8.73,17.36,8.3,16.71,7.68,15.9,6.84,14.91,5.81,13.75,4.56,12.42,3.11,10.93,1.46,9.25-.4,7.42"/><path class="cls-1" d="M472.07,100.15l-8.52-1.55L454,97.88l-10.5.07-11.31.84-12,1.58-12.64,2.29-13.14,3-13.54,3.64L367,113.55l-14,4.88-14.07,5.46-14,6L311,136.45l-13.64,7L284.07,151l-12.82,8L259,167.35l-11.57,8.77-10.78,9.14-10.27,10.38L216.3,208l-9.89,14-9.69,15.38-9.49,16.52-9.29,17.38-9.08,18L160,307.5l-8.63,18.37L143,344l-8.17,17.69-7.92,17-7.68,15.94-7.43,14.67-7.16,13.12-6.9,11.31L91.07,443l-6.35,6.89-6.07,4.26"/><path class="cls-1" d="M536.8,320.5l-4.06-7.66-5.36-7.95-6.58-8.17-7.69-8.33L504.39,280l-9.67-8.44-10.52-8.4-11.29-8.29-12-8.11-12.55-7.88-13.07-7.56-13.47-7.19-13.8-6.76-14-6.24-14.18-5.68-14.24-5-14.22-4.33-14.09-3.57-13.89-2.72-14.54-1.55-16-.2-17.14,1-18.12,2-18.89,2.88-19.44,3.59-19.78,4.12-19.9,4.5-19.81,4.71-19.5,4.76-19,4.65-18.25,4.37-17.3,3.93-16.14,3.33-14.76,2.56-13.16,1.63-11.37.54L21,235.89l-7.11-2.13"/><path class="cls-1" d="M404.78,508.87l3.51-7.95,2.91-9.13,2.32-10.22,1.73-11.2,1.15-12.06L417,445.5V432.05l-.58-14-1.15-14.41-1.7-14.72L411.26,374l-2.81-15-3.36-15-3.91-14.86-4.44-14.63-5-14.28-5.51-13.82-6-13.25-6.55-12.58-7.87-12.35L356,235.63l-11.5-12.82-12.92-12.94-14.08-13-15-13-15.6-12.94-16-12.8-16.08-12.59L238.94,133.2l-15.51-12L208.6,109.62,194.72,98.5,182.05,87.92l-11.21-10-9.48-9.31-7.49-8.57-5.23-7.77-2.71-6.9"/><path class="cls-1" d="M174.84,523.24l8.43-2.16,9-3.38,9.44-4.53,9.83-5.61L221.66,501,232,493.41l10.5-8.4,10.55-9.18,10.52-9.9L274,455.4l10.23-11.09,10-11.59,9.59-12L313,408.36l8.64-12.62,8.05-12.83L337,370l6.59-13,5.75-13,4.75-13.89,3.74-15.58,2.85-17,2.07-18.22,1.4-19.18.83-19.87.39-20.33.06-20.53-.17-20.49-.28-20.2L364.69,139l-.16-18.87.05-17.83L365,85.76l.84-15,1.4-13.22,2.07-11.2,2.85-8.92L375.87,31"/><path class="cls-1" d="M19.9,352.24l6.92,5.29,8.23,5,9.41,4.58,10.5,4.2,11.48,3.8,12.34,3.39,13.1,2.95,13.75,2.5,14.3,2,14.73,1.54,15.05,1,15.27.52,15.38,0,15.38-.57L211,387.31l15.05-1.74,14.73-2.36,14.29-3,13.76-3.62,13.84-5,14.54-6.81,15.13-8.41,15.58-9.78,15.91-10.89L360,324l16.19-12.4,16.14-12.79,16-12.94L423.93,273l15.24-12.5,14.7-11.91,14-11.09,13.23-10,12.29-8.7,11.25-7.14,10.06-5.34,8.76-3.29,7.34-1"/><path class="cls-1" d="M56.93,124.1l.13,8.72,1.22,9.52,2.26,10.22,3.25,10.82L68,174.72,73,186.47l5.87,12.07,6.63,12.29,7.34,12.43,8,12.45,8.6,12.41,9.15,12.24,9.63,12L138.31,284l10.45,11.21,10.78,10.68,11.06,10,11.27,9.32,11.43,8.5,12.53,7.74,14.43,7.14,16.06,6.59,17.41,6.1L272.22,367l19.31,5.28,19.85,4.94,20.13,4.67,20.13,4.45,19.87,4.27,19.33,4.15,18.53,4.09,17.45,4.09,16.1,4.12,14.49,4.22L470,415.62l10.45,4.57,8,4.83,5.32,5.14"/><path class="cls-1" d="M258.66,10.52,251.88,16l-6.71,6.87L238.57,31l-6.45,9.27-6.25,10.31-6,11.27L214.08,74l-5.46,12.85-5.11,13.5-4.72,14-4.29,14.46-3.84,14.8-3.34,15-2.79,15.15L182.32,189l-1.59,15.11L179.79,219l-.24,14.64.5,14.26,1.78,14.65,3.43,15.77L190.13,295l6.1,17.46,7.13,18L211.29,349l8.54,18.67,8.92,18.71,9.09,18.57,9.07,18.26L255.72,441,264.08,458l7.69,16.24,6.81,15.2,5.72,14,4.42,12.6,2.9,11,1.19,9.29-.75,7.35"/><path class="cls-1" d="M473.64,97.46l-8.54-1.93-9.55-1L445.1,94.4l-11.26.72-12,1.54L409.33,99l-13.05,3-13.44,3.77-13.72,4.45-13.9,5.08-14,5.69-13.95,6.27-13.82,6.8-13.59,7.3-13.24,7.77-12.8,8.21L261.6,166,250,175l-10.85,9.3L228.78,194.8l-10.21,12.55-10,14.26-9.88,15.71L189,254.19,179.45,272l-9.31,18.37L161,309l-8.89,18.75-8.66,18.51-8.44,18-8.18,17.22-7.94,16.17-7.68,14.83-7.4,13.21L96.72,437l-6.85,9.14-6.55,6.68-6.24,4"/><path class="cls-1" d="M539.91,320.08l-3.77-7.91L531,304.06l-6.4-8.27L517,287.44l-8.64-8.39-9.64-8.36-10.52-8.28-11.33-8.13-12-7.93-12.66-7.67L439,231.33l-13.62-7-14-6.53-14.2-6-14.36-5.48-14.43-4.87-14.39-4.2-14.28-3.46-14.06-2.68L311,189.58l-16.21-.15-17.46,1-18.5,2.08-19.29,2.94-19.88,3.65-20.23,4.18-20.35,4.54-20.27,4.74-19.94,4.78L119.46,222l-18.63,4.34-17.64,3.86-16.41,3.23-15,2.42-13.31,1.45-11.42.32-9.31-1-7-2.46"/><path class="cls-1" d="M407.05,511.08l3.88-7.87,3.19-9.06,2.5-10.14,1.82-11.12,1.17-12,.53-12.73L420,434.8l-.73-13.93L418,406.53,416,391.85,413.53,377l-3.07-15-3.64-15-4.17-14.87-4.71-14.65-5.22-14.32L387,289.27l-6.21-13.33-6.7-12.68-8-12.5L356,238l-11.74-13-13.2-13.2-14.37-13.29-15.29-13.31-15.93-13.26-16.29-13.13L252.84,145.8l-16.2-12.66-15.76-12.32-15-11.91-14-11.43L179,86.61,167.8,76.38l-9.43-9.54L151,58.08l-5-7.91-2.37-7"/><path class="cls-1" d="M174.49,526.42l8.6-1.82,9.08-3.12,9.5-4.35,9.83-5.48,10.09-6.55,10.27-7.52,10.38-8.44,10.41-9.26,10.37-10,10.24-10.67,10.05-11.27,9.78-11.78,9.42-12.22,9-12.56,8.5-12.85,7.92-13,7.27-13.17,6.54-13.2,5.74-13.17,4.77-14.09L356,316l2.87-17.35,2.1-18.6,1.43-19.59.89-20.32.44-20.78.12-21-.08-20.94-.19-20.63-.17-20.06-.05-19.23.2-18.15.56-16.79,1-15.2,1.61-13.32,2.3-11.21L372.19,34l4-6.18"/><path class="cls-1" d="M17.16,353.94l6.76,5.63L32,364.76l9.29,4.74,10.41,4.28,11.39,3.8,12.29,3.33,13,2.85,13.73,2.34,14.29,1.84,14.74,1.32,15.08.79,15.32.26L177,390l15.45-.84,15.36-1.39,15.16-2,14.84-2.55,14.42-3.14,13.89-3.74,14-5.08,14.78-7,15.4-8.6,15.9-10,16.26-11.13,16.49-12L375.57,310l16.55-13,16.37-13.16,16.07-13,15.64-12.67,15.06-12,14.36-11.17,13.52-10,12.56-8.67,11.45-7L517.37,204l8.84-3,7.35-.65"/><path class="cls-1" d="M53.88,123l-.24,8.8.94,9.57,2.07,10.22,3.12,10.8,4.12,11.27L69,185.31l5.93,12,6.75,12.18,7.49,12.3,8.19,12.33,8.81,12.27,9.38,12.12,9.88,11.87L135.7,281.9,146.41,293l11,10.62,11.28,10L180.19,323l11.61,8.54,12.73,7.8,14.69,7.23,16.38,6.7,17.77,6.22,18.89,5.79L292,370.67l20.28,5.11,20.56,4.84,20.56,4.63,20.27,4.47,19.7,4.36,18.86,4.3,17.72,4.29L446.25,407l14.63,4.45,12.65,4.6,10.39,4.8,7.87,5.06,5,5.37"/><path class="cls-1" d="M257.66,7.4l-7.08,5.27-6.92,6.67-6.72,8-6.5,9.15-6.25,10.25-5.95,11.22L212.59,70,207.3,82.9l-4.92,13.54-4.5,14.09-4.07,14.55L190.22,140l-3.09,15.15-2.56,15.29-2,15.33L181.18,201l-.77,15.08-.11,14.81.57,14.42,1.85,14.85,3.53,16,5,17,6.24,17.83,7.26,18.44,8.08,18.87,8.67,19.11,9.05,19.16,9.22,19,9.16,18.7,8.88,18.18,8.4,17.48,7.69,16.58,6.77,15.51,5.63,14.24,4.27,12.78,2.7,11.14.91,9.3-1.1,7.29"/><path class="cls-1" d="M475.5,94.73,467,92.42l-9.52-1.28L447,90.82l-11.2.61-11.9,1.5-12.48,2.34-13,3.15-13.36,3.9-13.64,4.62-13.82,5.3-13.9,5.93-13.89,6.52-13.76,7.07-13.55,7.57-13.22,8-12.81,8.46-12.27,8.84-11.66,9.17-10.93,9.47L231.19,194l-10.36,12.79-10.22,14.55-10.08,16-9.93,17.23-9.75,18.13-9.57,18.75L161.9,310.6l-9.17,19.12-8.95,18.86-8.71,18.33-8.47,17.5-8.22,16.39-7.94,15-7.66,13.29-7.36,11.31-7.06,9-6.74,6.48-6.4,3.64"/><path class="cls-1" d="M543.24,319.86l-3.48-8.14-4.9-8.28-6.22-8.35-7.45-8.38-8.57-8.36L503,270.07l-10.55-8.17-11.39-8-12.13-7.76-12.78-7.47-13.32-7.15-13.78-6.76-14.14-6.33-14.39-5.84L386,207.31l-14.63-4.72-14.59-4.07-14.47-3.38L328,192.5l-15-1.51-16.5-.12L278.79,192l-18.88,2.12-19.72,3-20.32,3.68L199.17,205l-20.83,4.57-20.73,4.75L137.21,219l-19.82,4.61-19,4.27-18,3.79-16.71,3.11L48.48,237.1,35,238.37l-11.47.09-9.26-1.27L7.48,234.4"/><path class="cls-1" d="M409.29,513.58l4.25-7.78,3.45-9,2.68-10.06,1.92-11,1.19-11.91.48-12.67-.21-13.33L422.17,424l-1.52-14.32L418.5,395l-2.76-14.87-3.35-15-3.9-15L404,335.21l-5-14.7-5.47-14.38-5.94-14-6.4-13.44-6.84-12.8-8.17-12.65-10.22-13-12-13.28-13.47-13.48-14.67-13.6-15.59-13.64-16.25-13.61-16.59-13.49-16.69-13.3-16.48-13-16-12.68-15.24-12.25L188.89,96.17,176,85,164.77,74.5l-9.37-9.76-7.21-8.94-4.75-8-2-7.07"/><path class="cls-1" d="M173.9,529.76l8.75-1.48,9.19-2.86,9.53-4.15,9.83-5.37,10.05-6.48,10.2-7.53,10.27-8.48L252,484.06l10.22-10.14,10.09-10.84,9.88-11.46,9.62-12,9.27-12.44L310,414.38l8.37-13.08L326.15,388l7.2-13.38,6.51-13.42,5.74-13.35,4.81-14.3,3.8-16.14,2.92-17.7,2.15-19,1.5-20,1-20.77.53-21.24.21-21.46V175.85l-.07-21.07,0-20.47.11-19.6.35-18.47.74-17,1.22-15.38,1.82-13.42,2.53-11.21,3.37-8.72,4.31-5.95"/><path class="cls-1" d="M14.14,355.54l6.59,6,7.94,5.43,9.18,4.89,10.3,4.35L59.48,380l12.23,3.27,13,2.73,13.72,2.19,14.31,1.64,14.77,1.1,15.13.55h15.38l15.52-.54,15.55-1.1,15.47-1.64L219.88,386l15-2.74,14.56-3.3,14.05-3.85,14.2-5.18,15-7.1,15.7-8.78,16.24-10.19,16.63-11.34,16.89-12.23,17-12.87,17-13.24,16.81-13.36,16.49-13.22,16-12.82,15.45-12.16,14.71-11.23,13.84-10.07,12.82-8.63L510,206.76l10.36-5,8.92-2.76,7.34-.29"/><path class="cls-1" d="M50.74,121.57l-.61,8.88.66,9.6,1.87,10.23,3,10.77,4.08,11.22,5.07,11.6,6,11.87,6.86,12.09L85.34,220l8.39,12.22,9,12.16,9.63,12,10.14,11.78,10.58,11.47,11,11.06,11.28,10.58,11.51,10,11.7,9.34,11.79,8.59,12.93,7.89,15,7.33,16.7,6.82,18.14,6.37,19.3,6,20.15,5.6,20.73,5.3,21,5,21,4.84,20.67,4.69L396,393.64l19.19,4.53,18,4.53,16.52,4.58L464.47,412l12.7,4.83,10.34,5,7.7,5.28,4.77,5.59"/><path class="cls-1" d="M256.82,4l-7.36,5-7.12,6.48-6.85,7.81-6.55,9.05-6.23,10.18-5.9,11.19-5.53,12.1-5.14,12.91-4.73,13.6-4.3,14.18-3.84,14.67-3.36,15-2.86,15.3L184.72,167l-1.78,15.5-1.21,15.43-.61,15.27v15l.65,14.6,1.9,15.06,3.61,16.31,5.09,17.36,6.35,18.21,7.38,18.86,8.21,19.32,8.79,19.57,9.17,19.63,9.31,19.49,9.24,19.16,8.94,18.61,8.42,17.89,7.68,16.95L282.58,495l5.52,14.48,4.12,13,2.49,11.24.63,9.32-1.45,7.19"/><path class="cls-1" d="M477.65,92l-8.52-2.68-9.49-1.57-10.38-.51-11.15.5-11.83,1.47-12.42,2.38L401,94.8l-13.29,4-13.58,4.81-13.76,5.52-13.85,6.17-13.85,6.79-13.74,7.34-13.53,7.85-13.23,8.31-12.83,8.71L267,163.42l-11.73,9.38-11,9.63-10.61,10.9-10.53,13L212.66,221.2l-10.32,16.37-10.18,17.58-10,18.51-9.87,19.14-9.68,19.45-9.47,19.49L143.85,351l-9,18.64-8.78,17.77-8.5,16.6-8.23,15.13-7.91,13.37-7.61,11.3-7.27,8.94L79.62,459l-6.55,3.32"/><path class="cls-1" d="M546.76,319.85l-3.16-8.36-4.66-8.42-6.05-8.44-7.33-8.41-8.51-8.33-9.61-8.22-10.57-8.05-11.46-7.85-12.25-7.59-12.91-7.3-13.49-6.95-14-6.57-14.33-6.14-14.61-5.66-14.78-5.14-14.84-4.57-14.81-4-14.67-3.31L330.31,194l-15.17-1.49-16.79-.11-18.16,1.1-19.28,2.14-20.16,3L220,202.3l-21.18,4.22-21.31,4.56-21.22,4.74-20.86,4.73-20.27,4.56-19.42,4.21L77.35,233l-17,3-15.42,2.12-13.6,1.08-11.52-.14-9.21-1.54L4,234.41"/><path class="cls-1" d="M411.49,516.38l4.61-7.68,3.72-8.88,2.85-10,2-11L425.9,467l.43-12.62L426,441.13l-1-13.85L423.26,413l-2.38-14.65-3-14.89-3.61-15-4.18-15-4.73-15-5.23-14.77-5.71-14.47-6.16-14.07-6.59-13.56-7-12.93-8.31-12.83L356,242.57,343.75,229,330,215.23l-15-13.93-15.9-14-16.55-14-16.9-13.88-17-13.69L232,132.33l-16.23-13.06-15.43-12.62L186,94.57,173,83.09,161.77,72.31l-9.31-10-7.05-9.13L140.9,45l-1.67-7.13"/><path class="cls-1" d="M173,533.23l8.9-1.12,9.27-2.59,9.59-4,9.83-5.24,10-6.43,10.12-7.53L241,497.8l10.16-9.46,10.1-10.28,9.94-11,9.75-11.67,9.47-12.22,9.13-12.68,8.74-13.06,8.27-13.33,7.75-13.53,7.15-13.62,6.49-13.63,5.76-13.56,4.85-14.52,3.87-16.43,3-18.05,2.23-19.39,1.58-20.45,1.05-21.23.63-21.72.33-21.94.14-21.87.07-21.52.12-20.89.26-20L362.32,93l.92-17.31,1.43-15.56,2-13.52,2.77-11.21,3.62-8.6L377.67,21"/><path class="cls-1" d="M10.85,357l6.4,6.3L25,369l9.06,5,10.22,4.43,11.26,3.82,12.2,3.21,13,2.62,13.73,2,14.34,1.44,14.83.88,15.21.31,15.47-.25,15.63-.8,15.68-1.35,15.6-1.88,15.42-2.41,15.14-2.93,14.73-3.44,14.22-4,14.41-5.27,15.29-7.25,16-8.94,16.6-10.37,17-11.55,17.31-12.44,17.45-13.08,17.42-13.45,17.25-13.55,16.94-13.39,16.47-13,15.84-12.26,15.08-11.3,14.17-10.07,13.09-8.58,11.88-6.82,10.5-4.79,9-2.5,7.33.06"/><path class="cls-1" d="M47.51,119.88l-1,8.94.38,9.63,1.67,10.22,2.9,10.74,4,11.18,5.1,11.54,6.08,11.8,7,12L81.53,218l8.59,12.12,9.27,12.08,9.88,11.93,10.41,11.71,10.87,11.41,11.23,11,11.54,10.56,11.77,10L177,318.24l12,8.66,13.14,8,15.24,7.46,17,7,18.51,6.53L272.6,362l20.59,5.81,21.16,5.51,21.45,5.27,21.41,5.08,21.08,4.93,20.46,4.83,19.51,4.79L436.54,403l16.73,4.82,14.89,4.93,12.74,5.07,10.29,5.26,7.54,5.5,4.47,5.79"/><path class="cls-1" d="M256.16.42l-7.65,4.77-7.31,6.27-7,7.66-6.6,8.94-6.22,10.12-5.83,11.17-5.42,12.13-5,13-4.55,13.69-4.1,14.29-3.62,14.8-3.14,15.19-2.63,15.47L185,163.5l-1.58,15.69-1,15.63-.47,15.47.12,15.19.7,14.79,2,15.29,3.68,16.61,5.17,17.71L200,308.49l7.5,19.3,8.3,19.78,8.9,20.06,9.26,20.12,9.39,20,9.3,19.62,9,19.07L270,464.73l7.65,17.32,6.65,16.14,5.42,14.75,3.95,13.14L296,537.42l.35,9.32-1.78,7.1"/><path class="cls-1" d="M480.1,89.2l-8.49-3.06-9.45-1.85-10.33-.7-11.11.4-11.78,1.44-12.36,2.42-12.85,3.33-13.24,4.2-13.53,5-13.73,5.74-13.83,6.43-13.83,7-13.74,7.63-13.54,8.13L295,143.94l-12.88,9-12.39,9.31-11.82,9.59-11.14,9.8L236,192.71,225.32,206,214.66,221.1l-10.57,16.69-10.46,17.94L183.3,274.61l-10.18,19.52-10,19.84-9.81,19.85-9.6,19.56-9.36,18.95-9.09,18-8.83,16.81-8.51,15.28-8.2,13.44-7.84,11.29L84.39,456l-7.09,6.06-6.68,3"/><path class="cls-1" d="M550.48,320.08l-2.85-8.58-4.41-8.56-5.87-8.52L530.13,286l-8.46-8.31-9.6-8.16-10.63-7.95-11.55-7.71-12.36-7.45-13.08-7.13-13.67-6.78-14.17-6.38-14.56-6-14.84-5.49-15-5-15.08-4.45-15-3.87-14.9-3.26-14.64-2.6L317.13,194l-17.1-.11L281.51,195l-19.7,2.14-20.62,3-21.27,3.7L198.24,208l-21.82,4.55-21.71,4.69-21.35,4.68-20.71,4.49-19.84,4.12-18.7,3.57L56.81,237l-15.65,2-13.74.88-11.57-.38L6.7,237.6.23,234.19"/></g></svg>