<svg id="Layer_1" data-name="Layer 1" xmlns="http://www.w3.org/2000/svg" viewBox="0 0 505.98 508.19"><defs><style>.cls-1{fill:none;stroke:#323232;stroke-miterlimit:10;}</style></defs><title>logo</title><g id="surface81"><path class="cls-1" d="M464,388.24l-6.2-3.78L450.47,380l-8.29-5-9.2-5.58-10-6.06-10.73-6.49L400.89,350,389,342.79l-12.31-7.48-12.65-7.69-12.88-7.86-13-8-13.08-8-13-8-12.91-8-12.66-7.86-12.34-7.7-11.92-7.48-11.39-7.21-11.37-7.26-11.83-7.62-12.21-7.9-12.49-8.14-12.68-8.3-12.8-8.41-12.81-8.45L151.87,193l-12.58-8.34L127,176.51l-12-8-11.56-7.7-11-7.36-10.43-7L72.2,140l-9-6-8.07-5.38L48.07,124l-6-4"/><path class="cls-1" d="M26.38,359.72l6.51-3.2,7.66-3.78,8.69-4.28,9.65-4.77,10.49-5.18L80.63,333l11.9-5.87L105,321l12.93-6.35,13.29-6.51,13.56-6.63,13.73-6.69,13.8-6.7,13.78-6.67,13.67-6.58,13.44-6.44,13.13-6.25,12.72-6,12.21-5.72,12.24-5.67,12.79-5.87,13.23-6,13.59-6.14,13.83-6.22,14-6.25,14-6.25,14-6.19,13.81-6.11,13.54-6,13.17-5.81,12.72-5.6L424.27,173l11.47-5.06,10.71-4.71,9.84-4.34,8.87-3.93,7.8-3.46,6.62-3"/><path class="cls-1" d="M285.92,6.28l-.79,7.21L284.21,22l-1,9.64L282,42.31l-1.28,11.63L279.34,66.4l-1.46,13.19-1.54,13.8-1.62,14.31-1.66,14.71-1.72,15-1.76,15.17-1.79,15.25L266,183l-1.81,15.06-1.81,14.8-1.81,14.43-1.78,13.95L257,254.62,255.21,268l-1.94,13.93-2.05,14.4-2.14,14.76-2.21,15-2.26,15.15-2.29,15.17L240,371.5l-2.28,14.92-2.26,14.63-2.2,14.24L231.16,429l-2,13.12-1.92,12.39-1.78,11.57-1.63,10.63-1.45,9.59-1.26,8.44-1,7.18"/><path class="cls-1" d="M444.13,415.24l-5.67-4.53-6.67-5.32-7.56-6.06-8.39-6.73-9.12-7.34L397,377.4l-10.32-8.33-10.81-8.74-11.19-9.05L353.14,342l-11.7-9.53-11.84-9.65-11.88-9.71-11.83-9.71-11.71-9.64-11.49-9.5-11.19-9.29-10.8-9-10.32-8.68-10.29-8.72-10.71-9.13-11-9.48-11.29-9.75-11.44-10-11.55-10.06L172.53,190,161,180,149.7,170l-11.11-9.77-10.81-9.52-10.42-9.19-10-8.77L98,124.46l-8.79-7.72-8.1-7.09-7.3-6.37-6.45-5.59L61.83,93"/><path class="cls-1" d="M14.3,328.49l6.85-2.37,8.07-2.76,9.18-3.13,10.19-3.46L59.67,313l11.89-4,12.58-4.22,13.17-4.4L111,295.85l14-4.66,14.32-4.73,14.51-4.77,14.58-4.78L183,272.17l14.42-4.67,14.2-4.56,13.85-4.43,13.41-4.25,12.87-4,12.89-4,13.46-4.09L292,238l14.29-4.25,14.54-4.3,14.7-4.3,14.74-4.29L365,216.56l14.5-4.19,14.23-4.09,13.84-4,13.35-3.84,12.76-3.67,12.05-3.48L456.93,190l10.32-3,9.31-2.74,8.17-2.45,6.93-2.12"/><path class="cls-1" d="M318.75,12.9,317.07,20l-2,8.29-2.28,9.42-2.56,10.45-2.81,11.36-3,12.17-3.21,12.87L297.81,98l-3.52,14-3.65,14.35-3.72,14.62-3.79,14.79-3.84,14.86-3.84,14.82-3.84,14.67-3.79,14.42-3.73,14.05-3.64,13.59-3.53,13-3.58,13-3.8,13.55-4,14L241.46,310l-4.22,14.57L233,339.29,228.63,354l-4.32,14.65L220,383.15l-4.21,14.19-4.1,13.81-3.95,13.32L204,437.2l-3.55,12-3.3,11.23-3,10.33-2.68,9.32-2.32,8.21-1.92,7"/><path class="cls-1" d="M420.89,439.35l-5.07-5.2L409.89,428l-6.72-7-7.43-7.77-8.07-8.47-8.63-9.1-9.12-9.64L360.39,376l-9.87-10.49-10.13-10.79-10.31-11-10.42-11.17-10.45-11.23L298.79,310,288.5,298.91l-10.11-11-9.83-10.71-9.49-10.39-9.07-10-9-10-9.38-10.49-9.65-10.88-9.87-11.18-10-11.41L192,191.36l-10.08-11.58-10-11.53L162,156.84l-9.7-11.19-9.43-10.89-9.1-10.5-8.7-10-8.23-9.47-7.69-8.82-7.1-8.08-6.42-7.27L90,74.23l-4.88-5.37"/><path class="cls-1" d="M6.48,295.92l7.1-1.49,8.36-1.72,9.5-1.91L42,288.71l11.48-2.25,12.32-2.38,13-2.5L92.46,279l14.15-2.67,14.54-2.72L136,270.84l15-2.76,15.09-2.76,15.06-2.73,14.93-2.68,14.68-2.61,14.32-2.52,13.86-2.4,13.3-2.28,13.3-2.22,13.89-2.25,14.37-2.28,14.74-2.28,15-2.29,15.15-2.28,15.19-2.26L369,232l14.94-2.19,14.65-2.14,14.26-2.09,13.75-2,13.13-1.93,12.41-1.85,11.58-1.74,10.63-1.64,9.58-1.51,8.42-1.38,7.14-1.25"/><path class="cls-1" d="M350.4,23.83l-2.54,6.8-3,8-3.49,9-3.9,10-4.29,10.89-4.61,11.66-4.9,12.32-5.16,12.9L313.1,118.8l-5.54,13.72-5.67,14-5.76,14.14-5.81,14.21L284.5,189l-5.77,14L273,216.8l-5.59,13.43-5.44,13-5.24,12.43L251.46,268,245.88,281l-5.82,13.33-6,13.65-6.15,13.87-6.24,14-6.28,14-6.26,13.94-6.2,13.77L196.83,391l-5.92,13.14-5.7,12.67-5.44,12.11-5.13,11.45-4.75,10.7-4.33,9.85-3.87,8.89-3.35,7.84-2.78,6.7"/><path class="cls-1" d="M394.64,460.14l-4.39-5.78-5.1-6.84-5.75-7.8L373.05,431l-6.88-9.46-7.35-10.17-7.74-10.77L343,389.35l-8.36-11.71-8.58-12.06-8.73-12.31L308.5,340.8l-8.84-12.54-8.8-12.53-8.7-12.42-8.53-12.23-8.3-11.94-8-11.57-7.65-11.1-7.61-11.14-7.88-11.66-8.11-12.09-8.26-12.41-8.37-12.65L201,183.73l-8.42-12.84-8.38-12.79L176,145.46l-8.1-12.4L160,121l-7.61-11.63-7.28-11.1-6.9-10.48L131.72,78l-6-9-5.43-8-4.82-7-4.18-5.93"/><path class="cls-1" d="M3.08,262.61l7.23-.6,8.51-.64,9.67-.67L39.22,260l11.68-.71,12.52-.72,13.24-.73,13.87-.74,14.38-.74,14.78-.73,15.07-.73L150,254.2l15.33-.69,15.29-.67,15.15-.63,14.9-.61,14.53-.57,14.07-.52,13.48-.47,13.48-.42,14.07-.36,14.54-.32,14.92-.28,15.17-.24,15.32-.21,15.36-.18,15.28-.17,15.1-.15,14.81-.15,14.41-.14,13.9-.15,13.28-.16,12.55-.18,11.7-.2,10.76-.22,9.69-.27,8.53-.29,7.24-.35"/><path class="cls-1" d="M380.31,38.9,377,45.33l-4,7.52-4.63,8.51-5.19,9.42L357.42,81,351.29,92l-6.51,11.56-6.84,12.09-7.12,12.51L323.48,141,316,154.05l-7.62,13.23-7.67,13.29L293,193.82l-7.62,13.11-7.52,12.87-7.34,12.55-7.14,12.14-6.85,11.61-6.91,11.59-7.26,12.05-7.57,12.43L227,304.89l-8,12.91-8.08,13-8.12,13-8.09,13-8,12.81-7.86,12.56-7.64,12.22-7.35,11.8-7,11.27-6.61,10.68-6.12,10-5.59,9.19-5,8.32L129.24,463l-3.59,6.3"/><path class="cls-1" d="M365.84,477.25,362.22,471,358,463.54l-4.7-8.49-5.16-9.43-5.56-10.29-5.93-11.05-6.24-11.71-6.5-12.27-6.71-12.74-6.87-13.11-7-13.37-7.05-13.55-7.06-13.63-7-13.6-6.93-13.48-6.81-13.27-6.61-12.95-6.39-12.54-6.1-12-6-12-6.24-12.62-6.4-13.07-6.52-13.42-6.59-13.67L211,177.37l-6.61-13.86-6.57-13.81-6.48-13.65L185,122.67l-6.18-13-6-12.55-5.73-12-5.45-11.3L156.5,63.28l-4.75-9.65L147.41,45l-3.89-7.59-3.4-6.4"/><path class="cls-1" d="M4.15,229.13l7.25.3,8.52.46,9.68.59,10.73.72L52,232l12.5,1,13.23,1,13.84,1.14,14.34,1.2,14.75,1.27,15,1.31,15.22,1.36,15.28,1.39,15.24,1.41,15.11,1.42,14.84,1.41,14.48,1.4,14,1.37,13.43,1.34,13.41,1.39,14,1.53,14.46,1.64L310,256.35l15.07,1.82L340.26,260l15.24,1.89,15.18,1.91,15,1.89,14.71,1.85,14.3,1.8,13.8,1.71,13.18,1.62,12.46,1.49,11.63,1.36,10.69,1.18,9.65,1,8.5.79,7.23.56"/><path class="cls-1" d="M408,57.82l-4.14,6-4.95,7-5.7,7.84-6.37,8.66-7,9.39-7.53,10-8,10.59-8.4,11-8.74,11.45-9,11.74-9.21,11.95-9.34,12.09-9.4,12.13-9.4,12.09-9.33,12-9.18,11.74-9,11.45-8.7,11.06-8.35,10.6-8.4,10.56-8.82,11-9.17,11.3-9.45,11.55-9.65,11.72L201,324.46l-9.81,11.82L181.4,348l-9.66,11.61-9.48,11.4L153,382.13l-8.88,10.7-8.45,10.25-8,9.7-7.39,9.07-6.75,8.39-6,7.6-5.22,6.74L98,450.39"/><path class="cls-1" d="M335,490.37l-2.82-6.69-3.21-7.9-3.55-9-3.88-10-4.16-10.94L313,434.05l-4.62-12.44-4.79-13-4.93-13.53-5.05-13.91-5.11-14.2-5.16-14.38-5.15-14.46-5.12-14.43L268,309.37l-5-14.06-4.81-13.73-4.64-13.29-4.43-12.74-4.39-12.76-4.49-13.35-4.58-13.81-4.65-14.18L226.39,187l-4.69-14.59L217,157.78l-4.64-14.58-4.58-14.4-4.49-14.12-4.39-13.74L194.68,87.7,190.6,75.05l-3.89-11.93L183,52l-3.44-10.19-3.18-9.17-2.89-8-2.58-6.78"/><path class="cls-1" d="M9.68,196.09l7.16,1.2,8.39,1.54,9.52,1.84,10.54,2.12,11.46,2.38L69,207.77l13,2.81,13.57,3,14,3.13L124,219.92l14.72,3.34,14.89,3.41,15,3.44,14.92,3.46L198.3,237l14.52,3.41L227,243.75l13.7,3.24,13.12,3.13,13.12,3.18,13.66,3.39,14.11,3.58L309.14,264l14.7,3.84,14.82,3.91,14.86,3.94,14.78,3.94,14.6,3.89,14.32,3.82L411.16,291l13.45,3.56L437.46,298l12.15,3.14L461,304l10.44,2.58,9.44,2.24,8.32,1.86,7.11,1.46"/><path class="cls-1" d="M432.82,80.26,428,85.66l-5.8,6.26-6.66,7-7.46,7.75-8.17,8.38L391.1,124l-9.34,9.42L372,143.28l-10.21,10.16-10.51,10.42-10.74,10.6L329.6,185.17l-11,10.75-10.95,10.71-10.86,10.59-10.69,10.4-10.43,10.14-10.11,9.79-9.7,9.39-9.73,9.34L236,276l-10.62,10L214.41,296.1l-11.15,10.32L192,316.81,180.66,327.2l-11.28,10.33-11.15,10.21-10.94,10-10.63,9.75-10.23,9.42-9.76,9-9.19,8.55-8.53,8-7.79,7.42-7,6.76-6,6-5,5.22"/><path class="cls-1" d="M302.72,499.26l-2-7L298.58,484l-2.36-9.4-2.53-10.45L291,452.78l-2.8-12.23-2.91-12.94-3-13.56L279.23,400l-3.12-14.47L273,370.75l-3.16-14.95-3.16-15-3.12-15-3.08-14.85-3-14.61-2.93-14.25-2.81-13.79L249,255.05l-2.63-13.23L243.73,228l-2.68-14.32L238.36,199l-2.69-15L233,168.94l-2.65-15.14-2.64-15.07-2.59-14.9-2.55-14.6L220.07,95l-2.43-13.7-2.35-13.08L213,55.89l-2.18-11.51-2.07-10.56-2-9.5L205,16l-1.71-7"/><path class="cls-1" d="M19.57,164.08l7,2.08,8.13,2.59,9.2,3.07L54,175.3l11,3.87,11.81,4.22,12.48,4.51,13,4.77,13.51,5,13.87,5.16,14.14,5.3,14.3,5.39,14.35,5.43,14.32,5.45,14.17,5.41L215,235.13l13.58,5.22,13.15,5.05,12.59,4.86,12.57,4.9L280,260.37l13.5,5.45,13.82,5.64,14,5.78,14.16,5.88L349.7,289l14.12,5.9,13.95,5.84,13.68,5.72,13.31,5.55,12.85,5.33,12.29,5.06,11.64,4.73,10.87,4.35,10,3.93,9.07,3.44,8,2.91,6.87,2.33"/><path class="cls-1" d="M454.49,105.82,449,110.58l-6.54,5.47-7.53,6.12-8.4,6.7-9.21,7.23-9.9,7.68-10.52,8.09-11,8.43L374.38,169l-11.82,8.91L350.48,187l-12.25,9.14-12.31,9.17-12.3,9.13-12.19,9-12,8.87-11.71,8.64-11.33,8.35-10.87,8-10.91,7.95-11.43,8.23-11.86,8.45-12.21,8.61-12.44,8.71L184.09,308l-12.63,8.78-12.58,8.72-12.44,8.61-12.19,8.45L122.4,350.8l-11.41,8-10.88,7.64-10.24,7.25-9.52,6.83-8.7,6.34-7.77,5.8-6.76,5.21-5.65,4.56"/><path class="cls-1" d="M269.51,503.76l-1.08-7.18-1.1-8.46-1.12-9.63-1.14-10.69-1.14-11.64-1.16-12.49-1.15-13.22-1.15-13.84-1.15-14.36-1.14-14.76-1.12-15.05-1.12-15.25-1.09-15.31-1.06-15.28-1-15.14-1-14.88-1-14.53L249.83,268l-.9-13.46-.83-13.47L247.32,227l-.73-14.55-.68-14.92-.64-15.18L244.65,167l-.58-15.37-.57-15.3-.56-15.11-.56-14.83L241.82,92l-.56-13.9-.58-13.28-.61-12.55-.64-11.69-.67-10.75L238,20.15l-.77-8.5-.82-7.2"/><path class="cls-1" d="M33.65,133.67l6.64,2.93L48,140.21l8.73,4.22,9.63,4.79,10.43,5.3L88,160.26l11.77,6.15L112,172.89l12.72,6.76,13.05,7,13.29,7.16,13.44,7.28,13.5,7.33,13.45,7.33L204.76,223l13.09,7.16,12.76,7L243,244l11.83,6.5,11.8,6.54,12.28,6.92,12.65,7.22,12.94,7.46,13.14,7.64L330.85,294l13.26,7.79,13.2,7.76,13,7.67,12.79,7.52L395.59,332l12,7,11.51,6.66,10.9,6.24,10.21,5.75,9.42,5.21,8.54,4.59,7.59,3.91,6.52,3.16"/><path class="cls-1" d="M472.55,134.05l-6,4-7.2,4.59-8.25,5.09-9.21,5.55-10.08,5.94-10.84,6.31-11.51,6.6L397.36,179l-12.55,7.08-12.92,7.23-13.19,7.34-13.37,7.41-13.45,7.42-13.42,7.39-13.31,7.3-13.09,7.16-12.77,7-12.36,6.75-11.84,6.47L243.22,264l-12.44,6.62-12.9,6.77-13.26,6.89-13.51,7-13.66,7-13.72,7-13.64,6.94L136.6,319l-13.23,6.73-12.85,6.56-12.39,6.36-11.8,6.12L75.2,350.64l-10.34,5.5-9.45,5.15L47,366l-7.37,4.31-6.17,3.81"/><path class="cls-1" d="M236,503.79l-.18-7.26,0-8.53.13-9.69.28-10.75.41-11.69.52-12.54.62-13.25.72-13.87.79-14.39.87-14.78.92-15.08.95-15.25,1-15.32,1-15.3L245,311l1-14.89,1-14.52,1-14.06.92-13.47,1-13.46L251,226.5,252.24,212l1.34-14.88L255,182l1.47-15.28L258,151.37l1.51-15.25L261,121.07l1.45-14.77,1.39-14.38,1.3-13.86,1.2-13.24,1.07-12.52.92-11.68L269,29.88l.54-9.69.32-8.52L270,4.42"/><path class="cls-1" d="M51.66,105.4l6.23,3.73,7.2,4.56L73.2,119l8.91,6,9.65,6.63L102,138.84l10.84,7.66,11.3,8.07,11.7,8.42,12,8.69,12.2,8.89,12.34,9,12.38,9.09,12.34,9.09,12.22,9,12,8.87,11.71,8.66,11.32,8.37,10.86,8,10.83,8.07,11.24,8.51,11.56,8.86,11.82,9.14,12,9.35,12.09,9.47,12.1,9.51,12,9.48,11.89,9.37,11.66,9.18,11.36,8.91,11,8.56,10.51,8.14,10,7.64,9.36,7,8.66,6.4L441.2,394l7,4.84,6.09,3.95"/><path class="cls-1" d="M486.68,164.45l-6.48,3.26-7.72,3.63-8.84,4-9.87,4.29L443,184.17,431.41,189l-12.28,5-12.9,5.18-13.39,5.32-13.78,5.43L365,215.41,350.74,221l-14.33,5.53-14.3,5.5-14.18,5.44L294,242.76l-13.6,5.2-13.16,5-12.6,4.84L242,262.61l-13.23,4.89-13.7,5-14.07,5-14.34,5.07-14.48,5.09-14.54,5.07-14.47,5-14.3,5-14,4.9-13.63,4.77-13.13,4.65-12.52,4.48-11.81,4.3-11,4.1L42.73,333.8l-9,3.61-7.85,3.33-6.59,3"/><path class="cls-1" d="M202.77,499.35l.72-7.22,1.07-8.47,1.39-9.59,1.69-10.62,1.94-11.54,2.19-12.35,2.39-13.06,2.57-13.65,2.73-14.15,2.85-14.54,2.94-14.81,3-15,3-15.06,3.07-15,3.06-14.87,3-14.62,2.94-14.27,2.84-13.79L249,253.49l2.77-13.21,3-13.78,3.19-14.23,3.34-14.57,3.45-14.81,3.52-14.95,3.55-15,3.55-14.91,3.52-14.73,3.43-14.45,3.31-14.06,3.16-13.57,3-13L294.42,56l2.46-11.46L299,34l1.79-9.53L302.22,16l1-7.19"/><path class="cls-1" d="M73.28,79.78,79,84.26l6.57,5.44L92.91,96l8.06,7.13,8.67,7.84,9.24,8.49,9.72,9,10.12,9.52L149.18,148l10.71,10.23,10.9,10.46,11,10.62,11,10.68,11,10.68,10.89,10.59,10.7,10.41,10.43,10.16L246,241.62l9.68,9.41,9.66,9.46,10,9.94,10.27,10.35,10.49,10.66,10.63,10.88,10.7,11,10.7,11.06,10.66,11,10.52,10.89L359.59,357l10.07,10.36,9.73,10,9.34,9.48,8.88,8.89L406,404l7.74,7.47,7.09,6.64,6.34,5.7,5.55,4.67"/><path class="cls-1" d="M496.64,196.46l-6.84,2.43-8.12,2.62-9.28,2.81-10.34,3-11.29,3.1-12.12,3.22-12.85,3.32-13.48,3.41-14,3.47L384,227.31l-14.69,3.55-14.87,3.55-15,3.55-14.92,3.52L309.72,245l-14.54,3.41L281,251.68l-13.72,3.22L254.14,258l-13.17,3-13.76,3.07L213,267.21l-14.64,3.09-14.89,3.09-15.05,3.09-15.1,3.06-15,3-14.85,3-14.56,2.95-14.16,2.9L81,294.26,68,297l-12.28,2.69-11.43,2.61-10.47,2.51-9.4,2.41-8.22,2.31-6.91,2.17"/><path class="cls-1" d="M170.42,490.52l1.62-7.08,2.14-8.26,2.62-9.34,3.06-10.3,3.46-11.19,3.81-12,4.11-12.62,4.39-13.19,4.6-13.65,4.79-14,4.92-14.29,5-14.45L220,335.66l5.08-14.47,5-14.33,5-14.08L239.93,279l4.68-13.29L249.07,253l4.52-12.74L258.41,227l5.07-13.67,5.28-14,5.42-14.23,5.51-14.34,5.56-14.37,5.54-14.3L296.26,128l5.35-13.86,5.18-13.5,4.95-13,4.67-12.47,4.34-11.8,3.94-11,3.51-10.18,3-9.22,2.47-8.17,1.86-7"/><path class="cls-1" d="M98.14,57.26l5.11,5.16,5.82,6.24,6.47,7.23,7,8.12,7.57,8.92,8,9.64,8.43,10.27,8.75,10.8,9,11.23,9.24,11.59L183,158.3l9.47,12L202,182.4l9.46,12.07,9.36,12L230,218.2l9,11.48,8.69,11.1L256,251.4l8.31,10.67,8.57,11.2,8.79,11.64,8.95,12,9.07,12.23,9.12,12.38L318,333.92,327,346.3l9,12.22,8.8,12,8.59,11.64,8.31,11.19,8,10.64,7.61,10,7.19,9.27,6.7,8.43,6.16,7.49,5.57,6.47,4.92,5.32"/><path class="cls-1" d="M502.25,229.53l-7.1,1.56-8.39,1.57-9.56,1.57-10.64,1.58L455,237.39,442.52,239l-13.19,1.57-13.81,1.57-14.33,1.56-14.74,1.54-15,1.53-15.23,1.52-15.3,1.49-15.27,1.47-15.12,1.44-14.87,1.42-14.51,1.38-14,1.35-13.44,1.31-13.46,1.26-14.06,1.2-14.54,1.13-14.93,1.09-15.19,1.05-15.34,1-15.38,1-15.31,1-15.13,1-14.84,1-14.42,1-13.91,1-13.28,1-12.53,1-11.67,1.08L28.93,275l-9.64,1.17-8.44,1.23-7.13,1.3"/><path class="cls-1" d="M139.53,477.44l2.48-6.82,3.18-7.92,3.81-8.92,4.39-9.82,4.9-10.62L163.66,422l5.77-12,6.11-12.49L182,384.63l6.64-13.25,6.8-13.5,6.93-13.64,7-13.7,7-13.66,6.94-13.52,6.81-13.3,6.65-13,6.42-12.55,6.13-12.05,6.19-12L262,228l6.87-12.87L276,201.94l7.3-13.36,7.41-13.48,7.45-13.5,7.43-13.43,7.33-13.27,7.18-13L327,109.2,333.69,97,340,85.21l5.88-11.12,5.37-10.42L356,54l4.19-8.75,3.48-7.79,2.72-6.73"/><path class="cls-1" d="M125.79,38.26,130.22,44l5,6.93,5.47,8,5.93,9,6.32,9.85,6.67,10.63,7,11.3,7.23,11.88,7.43,12.35,7.6,12.73,7.7,13,7.77,13.19,7.78,13.26,7.74,13.25,7.67,13.13L235,215.4,242.37,228l7.13,12.17,6.84,11.66,6.81,11.68,7,12.26,7.15,12.72,7.26,13.09,7.33,13.35,7.37,13.51L306.61,342l7.32,13.5,7.23,13.33,7.11,13.06,7,12.69,6.74,12.2,6.5,11.63,6.22,10.93,5.89,10.14,5.54,9.24,5.14,8.23,4.7,7.12,4.23,5.9"/><path class="cls-1" d="M503.39,263.07l-7.24.66-8.52.48-9.69.32-10.75.17-11.71,0-12.54-.1-13.28-.2-13.91-.3-14.41-.39-14.82-.45-15.11-.52-15.3-.56-15.37-.59L325.4,261l-15.19-.61-14.93-.61-14.57-.58-14.09-.55-13.51-.5-13.51-.55-14.1-.71-14.58-.83L196,255.15l-15.2-1-15.35-1.07L150,252l-15.31-1.1-15.13-1.09-14.84-1-14.44-1-13.92-.89-13.3-.78-12.56-.64L38.82,245l-10.77-.3-9.7-.08-8.53.15-7.25.4"/><path class="cls-1" d="M110.65,460.36l3.32-6.47,4.16-7.45,4.93-8.34,5.63-9.16,6.27-9.89,6.83-10.52,7.32-11.09,7.74-11.55,8.09-11.95,8.37-12.24,8.57-12.46,8.71-12.59L199.37,324l8.77-12.6,8.7-12.47,8.56-12.26,8.33-12,8.06-11.58L249.48,252l7.74-11.09,8.19-11.5L274,217.6l8.83-12.09,9-12.27L301,180.88l9.22-12.37,9.18-12.32L328.47,144l8.87-11.95,8.6-11.64,8.25-11.25L362,98.4l7.3-10.25L376,78.52l6-8.92,5.28-8.14,4.45-7.27,3.54-6.34"/><path class="cls-1" d="M155.73,23.11l3.68,6.26,4.06,7.51,4.39,8.64,4.69,9.68,5,10.6,5.2,11.42,5.41,12.14,5.57,12.74,5.71,13.25L205.22,129l5.88,13.94L217,157.06l5.92,14.2,5.89,14.18,5.82,14.05,5.72,13.81L246,226.77l5.43,13,5.23,12.47,5.18,12.5,5.29,13.09,5.37,13.58,5.43,14,5.46,14.23L288.82,334l5.47,14.43,5.43,14.38L305.09,377l5.29,13.91,5.18,13.52,5,13,4.89,12.4,4.71,11.66,4.51,10.84,4.28,9.88,4,8.83,3.76,7.66,3.45,6.38"/><path class="cls-1" d="M500,296.46l-7.26-.24-8.51-.61-9.65-.94-10.68-1.23-11.61-1.52-12.43-1.76-13.13-2L413,286l-14.23-2.32-14.64-2.45-14.91-2.55-15.09-2.63L339,273.4l-15.12-2.68-15-2.66-14.72-2.62-14.37-2.54-13.9-2.44-13.32-2.31-13.32-2.35-13.89-2.6L211,250.41l-14.69-2.94-14.94-3.06-15.07-3.13-15.11-3.18-15-3.16-14.86-3.12-14.58-3-14.18-2.91L78.9,223.11l-13.08-2.55-12.38-2.3-11.56-2-10.63-1.7-9.61-1.34-8.48-.94-7.24-.5"/><path class="cls-1" d="M84.3,439.57l4.09-6,5.08-6.85,6-7.64,6.79-8.34,7.52-9,8.17-9.52,8.74-10,9.22-10.42,9.63-10.75,9.94-11,10.19-11.2L180,327.55l10.41-11.34,10.4-11.3,10.32-11.18,10.13-11L231.12,272l9.54-10.4,9.11-10,9.16-10,9.67-10.31,10.07-10.58L289.07,210l10.62-11,10.76-11,10.82-11L332,166l10.63-10.84,10.41-10.65,10.1-10.38,9.68-10.06,9.2-9.65,8.6-9.19,7.92-8.66,7.15-8,6.3-7.39,5.34-6.65,4.29-5.85"/><path class="cls-1" d="M187.44,12.08l2.88,6.68,3.06,8,3.24,9.14L200,46.07l3.52,11.16,3.64,12L210.89,82l3.81,13.39,3.88,13.9,3.92,14.31,3.95,14.61,4,14.8,3.94,14.88,3.92,14.86,3.87,14.71,3.81,14.47L249.67,226l3.63,13.64,3.52,13.06,3.46,13.08,3.48,13.7,3.49,14.19,3.5,14.57,3.5,14.86,3.49,15,3.47,15.05,3.43,15,3.41,14.8,3.37,14.51,3.31,14.1L298,425.17l3.19,12.95,3.12,12.19,3,11.34,3,10.36,2.85,9.28,2.75,8.07,2.63,6.76"/><path class="cls-1" d="M492.27,329.12,485.09,328l-8.36-1.68-9.45-2.18-10.43-2.63-11.3-3-12.09-3.4-12.76-3.72-13.33-4-13.8-4.22-14.18-4.41L365,294.17l-14.61-4.65-14.67-4.69-14.62-4.7-14.49-4.67-14.25-4.58-13.89-4.45L265,262.14l-12.91-4.07L239.18,254l-13.41-4.44-13.85-4.7-14.17-4.9-14.4-5-14.52-5.15-14.56-5.19-14.48-5.17-14.31-5.11-14-5-13.67-4.8-13.2-4.56-12.64-4.28-12-3.93-11.19-3.54-10.32-3.08-9.36-2.58-8.29-2-7.12-1.4"/><path class="cls-1" d="M60.94,415.44,65.75,410l5.91-6.16,6.91-6.8,7.83-7.38,8.64-7.9,9.37-8.35,10-8.76L125,355.55l11-9.36,11.35-9.57,11.61-9.71,11.78-9.81,11.86-9.84,11.84-9.79,11.73-9.69,11.53-9.54,11.25-9.32,10.85-9,10.38-8.68,10.42-8.64,11-8.93,11.42-9.13,11.76-9.3,12-9.42,12.16-9.47,12.21-9.47,12.17-9.42,12-9.31L367,159,378.42,150l11-8.67,10.4-8.34,9.76-8,9-7.54,8.14-7.05,7.2-6.51L440,98l5-5.27"/><path class="cls-1" d="M220.35,5.38l2,7,2,8.29,2,9.48,2,10.56,2,11.53,2,12.4,2,13.14,2,13.78,2,14.3,2,14.72,1.94,15,1.92,15.21,1.89,15.29L248,181.35l1.85,15.11,1.82,14.86,1.8,14.49,1.76,14L257,253.24l1.68,13.44,1.61,14.05,1.56,14.54,1.5,14.92,1.46,15.2,1.43,15.35,1.4,15.4L269,371.47l1.38,15.14,1.38,14.84,1.39,14.43,1.41,13.9L276,443.05l1.47,12.51L279,467.2l1.57,10.66,1.62,9.57,1.7,8.36,1.77,7"/><path class="cls-1" d="M480.21,360.47l-7-2-8.09-2.73-9.08-3.39-10-4-10.81-4.51-11.53-5-12.15-5.39-12.68-5.75-13.12-6-13.46-6.28-13.69-6.46-13.86-6.58-13.9-6.64L317,289.08l-13.73-6.58L289.76,276l-13.18-6.29-12.76-6.05-12.25-5.77-12.23-5.81-12.7-6.21-13.1-6.52-13.39-6.78-13.59-6.95-13.71-7.07-13.73-7.12-13.67-7.08-13.5-7-13.25-6.83L105.79,184l-12.48-6.3-12-5.94L70,166.22l-10.63-5-9.83-4.41-9-3.76-8-3.05-6.89-2.27"/><path class="cls-1" d="M41,388.4l5.45-4.81,6.65-5.36,7.73-5.84,8.72-6.29,9.62-6.69,10.39-7L100.66,345l11.68-7.59,12.15-7.8,12.54-8,12.83-8.07,13-8.13L176,297.34,189,289.23l12.94-8,12.72-7.9,12.41-7.72,12-7.49,11.46-7.22L262,243.69l12.07-7.37,12.56-7.52,12.92-7.64,13.18-7.71,13.35-7.74L339.47,198l13.34-7.69L366,182.66l12.9-7.49,12.51-7.33,12-7.13,11.44-6.88,10.73-6.6,9.92-6.28,9-5.92,8-5.53,6.84-5.08,5.61-4.61"/><path class="cls-1" d="M253.87,3.13,255,10.31l.95,8.48.78,9.67.61,10.73.47,11.71.34,12.55.22,13.3.11,13.92,0,14.45,0,14.86-.1,15.15-.16,15.34L258,165.89l-.21,15.37-.2,15.24-.2,15-.17,14.61-.14,14.13L257,253.76l-.14,13.55-.29,14.14-.41,14.63-.53,15-.61,15.27-.66,15.43-.69,15.45-.7,15.39-.68,15.2-.63,14.91-.57,14.49-.47,14-.35,13.35-.21,12.6,0,11.74.15,10.78.38,9.7.61,8.5.89,7.21"/><path class="cls-1" d="M464.07,389.94l-6.68-2.87-7.67-3.75-8.57-4.53-9.38-5.26-10.13-5.89-10.76-6.47-11.32-7-11.81-7.4L375.56,339l-12.49-8-12.71-8.25-12.85-8.4-12.89-8.46-12.85-8.46L299,289l-12.51-8.24-12.22-8-11.84-7.72-11.38-7.36-11.34-7.4L228,242.45l-12.1-8.24-12.37-8.52L191,217l-12.64-8.87-12.65-8.91-12.6-8.87-12.44-8.77L128.41,173l-11.91-8.29L105,156.76l-11.06-7.48-10.51-7L73.52,136l-9.17-5.66L56,125.42l-7.52-4-6.56-3.11"/><path class="cls-1" d="M24.85,358.93l6-4.1,7.27-4.46,8.43-4.8L56,340.48l10.42-5.36,11.25-5.59,12-5.8,12.59-6,13.1-6.1,13.51-6.19,13.81-6.27,14-6.3,14.08-6.31,14.05-6.27,13.92-6.21L212.41,268l13.33-6,12.89-5.82L251,250.58,263.3,245l13-5.68,13.46-5.77,13.85-5.83,14.12-5.87L332,216l14.33-5.87,14.27-5.83,14.09-5.77,13.8-5.69,13.4-5.58,12.89-5.45,12.26-5.3,11.52-5.11,10.67-4.92,9.7-4.69,8.63-4.45,7.44-4.16,6.14-3.88"/><path class="cls-1" d="M287.41,5.37l.24,7.27-.13,8.53L287,30.85l-.8,10.73-1.08,11.66-1.34,12.5L282.26,79l-1.75,13.82-1.92,14.33-2,14.72-2.16,15L272.15,152l-2.27,15.26-2.29,15.23-2.26,15.07-2.22,14.83L261,226.87l-2,14-1.89,13.41-2,13.41-2.19,14-2.39,14.46L248,310.94,245.31,326l-2.74,15.2-2.78,15.24L237,371.61l-2.73,15-2.64,14.7-2.51,14.3-2.35,13.79-2.13,13.19-1.88,12.47-1.6,11.64-1.25,10.71-.89,9.67-.47,8.51,0,7.26"/><path class="cls-1" d="M444.13,417l-6.27-3.69-7.13-4.68L422.82,403l-8.62-6.44L405,389.4l-9.81-7.84-10.3-8.43-10.71-8.92-11-9.34-11.3-9.66-11.49-9.9-11.6-10.06-11.63-10.14L305.47,305,294,295l-11.3-9.85-11-9.6-10.7-9.24-10.29-8.82-10.26-8.86-10.61-9.38-10.9-9.79-11.11-10.13-11.26-10.36-11.33-10.5-11.35-10.55-11.29-10.51L151.38,167l-11-10.15L129.72,147l-10.38-9.4-10-8.9-9.5-8.3-9-7.6L82.57,106l-7.68-5.94L68,95.1l-6.12-3.91"/><path class="cls-1" d="M12.76,327.55l6.47-3.32,7.79-3.5,9-3.66,10.07-3.81,11-3.94,11.89-4,12.65-4.15,13.28-4.22,13.82-4.28L123,288.31,137.49,284l14.73-4.35L167,275.26l14.78-4.32,14.64-4.27,14.4-4.22,14-4.13,13.56-4,13-3.93,13-3.88,13.62-3.9,14.12-3.9,14.52-3.91,14.8-3.91,15-3.9,15-3.88,14.94-3.85,14.75-3.82,14.46-3.78,14-3.73,13.51-3.68L436,200.6l12.1-3.54,11.23-3.46,10.24-3.39,9.14-3.28,7.91-3.19,6.57-3.08"/><path class="cls-1" d="M320.37,12.07l-.67,7.24-1.22,8.45-1.73,9.54-2.19,10.53-2.62,11.42-3,12.21-3.31,12.89L302,97.82l-3.83,13.94-4,14.32L290,140.67l-4.26,14.77-4.32,14.82-4.33,14.79-4.28,14.64-4.2,14.4-4.07,14.06-3.9,13.6L257,254.8l-3.73,13-4,13.58-4.32,14-4.52,14.34-4.68,14.58-4.78,14.71L226.1,353.8l-4.8,14.66L216.57,383,212,397.18,207.55,411l-4.17,13.37-3.88,12.8L196,449.3l-3.12,11.33-2.65,10.45-2.14,9.47-1.55,8.39-.92,7.2"/><path class="cls-1" d="M420.75,441.2,415,436.75l-6.47-5.56-7.12-6.58-7.7-7.51-8.22-8.35-8.68-9.09-9.09-9.73-9.41-10.28-9.7-10.75-9.9-11.1-10.05-11.37L318.5,334.88l-10.17-11.62L298.2,311.64l-10-11.5-9.87-11.29-9.66-11-9.36-10.6-9-10.12-9-10.17L232,236.23l-9.49-11.18-9.65-11.55-9.76-11.79-9.83-12-9.82-12-9.78-11.95L164,154l-9.51-11.54-9.29-11.18-9-10.72-8.69-10.16-8.32-9.49-7.87-8.73-7.4-7.85-6.84-6.88-6.24-5.81L85.22,67"/><path class="cls-1" d="M5,294.82l6.84-2.49L20,289.86l9.38-2.47,10.47-2.46,11.46-2.44,12.34-2.43,13.09-2.42,13.74-2.4,14.27-2.38,14.7-2.37,15-2.35,15.19-2.32,15.28-2.31,15.24-2.28,15.1-2.26,14.84-2.24,14.47-2.21,14-2.19,13.39-2.15,13.4-2.11,14-2,14.54-2,14.93-1.92,15.2-1.88,15.37-1.84,15.41-1.81,15.34-1.8,15.15-1.8,14.85-1.8,14.42-1.81,13.9-1.83,13.24-1.86,12.48-1.9,11.59-1.95,10.6-2,9.48-2.07,8.26-2.16,6.9-2.23"/><path class="cls-1" d="M352.16,23.1l-1.57,7.11-2.28,8.22-2.95,9.24L341.8,57.82l-4.1,11-4.59,11.7-5,12.34-5.38,12.87L317,119l-5.91,13.66L305,146.59l-6.23,14.06-6.28,14.12-6.29,14.08L280,202.79l-6.11,13.72L268,229.89l-5.69,13-5.39,12.45-5.44,12.43-5.84,12.92L239.42,294,233,307.59l-6.61,13.83-6.72,13.94-6.77,14-6.75,13.9L199.49,377,193,390.45l-6.25,13.13-5.94,12.7-5.55,12.17L170.15,440l-4.59,10.83-4,10L158.22,470l-2.61,8.11-1.8,7"/><path class="cls-1" d="M394.34,462.05l-5.17-5.12-5.71-6.34-6.21-7.45-6.65-8.46-7.05-9.36-7.4-10.17-7.7-10.87-8-11.46-8.16-11.95L324,368.52l-8.43-12.63-8.49-12.83-8.51-12.9-8.48-12.89-8.39-12.76L273.43,292l-8.09-12.21L257.47,268l-7.59-11.24-7.55-11.28-7.75-11.88-7.9-12.37-8-12.75-8.09-13-8.12-13.18L194.32,169l-8.08-13.17-8-13-7.87-12.73-7.71-12.34-7.51-11.84-7.26-11.24-7-10.52-6.66-9.69L128,65.72,122.05,58l-5.45-6.56-5-5.3"/><path class="cls-1" d="M1.59,261.33l7.1-1.62,8.41-1.41,9.62-1.24L37.43,256l11.68-.91,12.55-.77L75,253.68l13.94-.54,14.48-.44,14.89-.36,15.19-.3,15.38-.26,15.46-.21,15.43-.21,15.28-.2,15-.21,14.65-.24,14.17-.29,13.56-.35,13.58-.29,14.18-.13h14.68l15.07.11,15.34.2,15.48.25,15.54.28,15.45.29,15.28.27,15,.21,14.56.15,14,.05,13.38-.07,12.63-.23,11.76-.4,10.77-.61,9.67-.83,8.46-1.08,7.13-1.36"/><path class="cls-1" d="M382.21,38.28l-2.44,6.87L376.46,53l-4.13,8.77-4.86,9.61L362,81.73l-6.1,11-6.62,11.56-7.06,12-7.42,12.43L327,141.51l-7.93,13L311,167.58l-8.15,13.15-8.14,13.11-8.06,13-7.91,12.77-7.69,12.48-7.38,12.09-7,11.63-7.06,11.6-7.53,12-7.91,12.38L226,304.44l-8.43,12.82L209,330.18l-8.61,12.94L191.81,356l-8.45,12.73-8.25,12.5-8,12.19-7.59,11.8-7.14,11.32-6.6,10.77-6,10.13-5.28,9.41-4.49,8.61-3.63,7.72-2.67,6.75"/><path class="cls-1" d="M365.36,479.21l-4.49-5.73-4.86-7-5.19-8.19L345.34,449l-5.75-10.22-6-11.06-6.19-11.81-6.35-12.43-6.48-12.95L308,377.18l-6.66-13.67-6.69-13.87L288,335.69l-6.67-13.92L274.69,308l-6.51-13.55-6.37-13.2-6.22-12.74-6-12.17-6-12.2L237.5,231.3,231.34,218l-6.23-13.72-6.27-14-6.28-14.18-6.27-14.22-6.23-14.16-6.18-14L187.79,120l-6-13.27L175.94,94l-5.7-12.11-5.52-11.37L159.39,60l-5.09-9.51-4.85-8.41-4.57-7.2L140.6,29"/><path class="cls-1" d="M2.72,227.67,10,227l8.53-.34,9.69,0,10.76.35,11.71.64,12.55.91,13.27,1.14L90.38,231l14.41,1.51,14.81,1.65,15.11,1.76L150,237.77l15.36,1.87,15.33,1.89,15.18,1.86,14.93,1.82,14.56,1.73,14.08,1.62,13.5,1.47,13.5,1.54,14.09,1.77,14.56,2L310,257.46l15.19,2.27,15.33,2.34,15.37,2.39,15.29,2.37,15.11,2.32,14.82,2.24,14.42,2.11,13.91,1.93,13.28,1.71,12.56,1.46L467,279.76l10.76.81,9.7.43H496l7.25-.46"/><path class="cls-1" d="M410,57.35l-3.27,6.51-4.29,7.38-5.23,8.16-6.08,8.88-6.84,9.53-7.52,10.09-8.11,10.58-8.61,11-9,11.34-9.37,11.6L332,164.19l-9.78,11.9L312.37,188l-9.85,11.91-9.75,11.79-9.57,11.6-9.3,11.34-8.95,11-8.52,10.59-8.55,10.55-9.09,10.92-9.51,11.21-9.85,11.43L209.34,312l-10.23,11.66-10.29,11.67-10.25,11.61-10.1,11.49-9.87,11.29-9.54,11L140,391.37l-8.6,10.27-8,9.8-7.27,9.26-6.47,8.63-5.57,8-4.58,7.19L96,450.85"/><path class="cls-1" d="M334.34,492.37l-3.75-6.25-3.92-7.58-4.08-8.8-4.23-9.89L314,449l-4.46-11.77L305,424.66l-4.63-13.18-4.69-13.72L291,383.61l-4.76-14.45-4.76-14.66-4.75-14.74L272,325.05l-4.68-14.57-4.62-14.32-4.55-14-4.45-13.47-4.35-12.87L245,243l-4.31-13.54-4.33-14.06-4.32-14.45-4.33-14.75-4.31-14.91-4.3-15-4.27-14.89-4.24-14.7-4.19-14.4-4.15-14-4.1-13.44-4-12.78-4-12L186.28,49,182.47,38.9l-3.72-9-3.61-7.72-3.52-6.36"/><path class="cls-1" d="M8.32,194.44l7.29.18,8.5.76,9.61,1.28,10.62,1.75,11.52,2.19,12.32,2.57,13,2.91,13.61,3.2,14.09,3.44,14.47,3.63,14.74,3.78L153,224,168,228,183,231.89l14.8,3.91,14.56,3.81,14.21,3.69,13.75,3.49,13.19,3.28,13.19,3.32L280.38,257,294.56,261l14.52,4.14,14.76,4.3,14.89,4.4,14.92,4.44,14.85,4.42L383.18,287l14.4,4.22,14,4,13.53,3.78,12.95,3.48,12.26,3.11,11.46,2.7,10.56,2.22,9.57,1.68,8.46,1.09,7.25.44"/><path class="cls-1" d="M435,80l-4.06,6-5.2,6.77-6.24,7.42-7.19,8-8,8.54-8.8,9L386,135.17l-10,9.74-10.49,10-10.86,10.23-11.13,10.4-11.31,10.48-11.39,10.5L309.43,207,298.16,217.4,287.1,227.62l-10.76,10L266,247.32l-9.86,9.36-9.9,9.32-10.48,9.61-10.94,9.84-11.31,10-11.58,10.12-11.73,10.18L178.41,326l-11.73,10.14-11.58,10L143.79,356l-10.95,9.65L122.36,375l-9.9,9.05-9.22,8.65-8.44,8.22-7.55,7.71L80.7,415.8l-5.46,6.55L71,428.24"/><path class="cls-1" d="M301.82,501.27l-2.94-6.67-2.92-8-2.91-9.25L290.16,467l-2.88-11.37-2.85-12.27-2.84-13-2.82-13.7L276,402.37l-2.79-14.67-2.76-15-2.74-15.18L265,342.28l-2.7-15.23L259.59,312l-2.65-14.82-2.63-14.45-2.61-14-2.58-13.35L246.59,242l-2.46-14-2.4-14.53-2.34-14.92-2.3-15.21L234.83,168l-2.24-15.42-2.22-15.35L228.15,122l-2.22-14.85-2.24-14.43-2.26-13.88-2.29-13.21-2.33-12.44-2.4-11.53L212,31.19l-2.53-9.38-2.6-8.12-2.7-6.75"/><path class="cls-1" d="M18.32,162.23l7.21,1.09,8.33,1.83,9.36,2.52,10.3,3.13,11.14,3.69,11.87,4.19,12.52,4.63,13.06,5,13.51,5.31,13.86,5.56,14.11,5.74,14.27,5.87,14.34,5.93,14.28,5.93,14.16,5.87,13.93,5.75,13.59,5.57,13.17,5.32,12.65,5,12.63,5.06,13.13,5.47,13.53,5.81,13.85,6.07,14.06,6.25,14.18,6.38,14.2,6.42L363.7,298l14,6.3,13.72,6.12,13.36,5.89,12.92,5.57,12.38,5.18,11.74,4.72,11,4.19L463,339.57l9.27,2.91,8.25,2.16,7.14,1.34"/><path class="cls-1" d="M456.75,105.73l-4.78,5.5-6,6-7.15,6.55-8.17,7-9.11,7.4L411.6,146,401,154.05l-11.25,8.32L378,170.9l-12.15,8.69-12.44,8.8-12.64,8.87L328,206.14,315.32,215l-12.58,8.77-12.35,8.64-12,8.46-11.57,8.24-11,8L244.71,265,233,273.11l-12.18,8.28-12.57,8.4-12.85,8.48-13,8.51-13.06,8.52-13,8.47-12.83,8.38-12.56,8.27-12.15,8.09-11.65,7.89-11,7.65L85.8,371.41l-9.46,7-8.5,6.66-7.42,6.26-6.25,5.81-5,5.31"/><path class="cls-1" d="M268.38,505.76l-2.08-7-1.88-8.33-1.69-9.54-1.51-10.67-1.34-11.65-1.2-12.54-1.07-13.31-1-14-.86-14.49L255,389.37l-.72-15.23-.66-15.43L253,343.2l-.61-15.47-.62-15.33-.63-15.06-.66-14.68-.71-14.2L249,254.88l-.71-13.6-.56-14.22-.42-14.73L247,197.2l-.22-15.4-.17-15.56-.13-15.6-.14-15.53-.15-15.34-.2-15-.28-14.62-.38-14.07-.5-13.41L244.14,50l-.84-11.75-1.05-10.75L241,17.87l-1.55-8.39-1.83-7"/><path class="cls-1" d="M32.53,131.63l7,2,8,2.88,9,3.71,9.8,4.46,10.55,5.13,11.22,5.73,11.79,6.27,12.29,6.7,12.68,7.09,13,7.38,13.22,7.6,13.36,7.75,13.41,7.82,13.38,7.82,13.24,7.74,13,7.58,12.73,7.35,12.35,7,11.87,6.67L266.32,257l12.29,7.19,12.64,7.58,12.92,7.89,13.1,8.11,13.21,8.25,13.22,8.29,13.17,8.25,13,8.14,12.78,7.93,12.47,7.64,12.07,7.25,11.58,6.8,11,6.24,10.37,5.61,9.63,4.89,8.81,4.08,7.91,3.2,6.92,2.21"/><path class="cls-1" d="M474.9,134.18l-5.42,4.87-6.74,5.23-7.94,5.57-9,5.87-10,6.14-10.87,6.37-11.63,6.57L401,181.54l-12.8,6.88-13.22,7-13.53,7-13.73,7.08-13.83,7.09-13.79,7.06-13.66,7L293,237.58,280,244.36,267.38,251l-12,6.41-12,6.38-12.68,6.49-13.21,6.57-13.6,6.64L190,290.15l-14.06,6.68-14.12,6.68-14.05,6.65-13.87,6.59-13.57,6.5-13.15,6.4-12.61,6.26-12,6.11L71.36,348l-10.31,5.72-9.3,5.5-8.18,5.23-6.93,5L31.06,374"/><path class="cls-1" d="M234.63,505.75l-1.21-7.19-.8-8.49-.44-9.69-.09-10.77.2-11.73.48-12.6.72-13.34.92-14,1.1-14.49,1.24-14.91,1.35-15.2L239.52,358,241,342.51l1.48-15.43,1.46-15.29,1.41-15,1.32-14.65,1.21-14.17,1-13.58L250,240.78l1.36-14.18L253,211.92l1.74-15,1.86-15.31,1.93-15.46,2-15.5,2-15.43,1.92-15.24L266.18,105l1.69-14.53,1.51-14,1.29-13.38,1-12.62.71-11.77.37-10.8,0-9.71-.46-8.52-1-7.2"/><path class="cls-1" d="M50.7,103.17,57.43,106,65,109.88l8.41,4.84,9.13,5.7,9.79,6.49,10.36,7.18,10.86,7.78,11.28,8.31,11.62,8.73,11.9,9.07,12.09,9.33,12.2,9.5,12.25,9.57,12.21,9.56,12.1,9.47,11.9,9.28,11.65,9,11.29,8.65,10.89,8.2,10.85,8.24L277,267.57l11.52,9.23,11.75,9.56,11.91,9.82,12,10,12,10,11.94,10L359.94,336l11.62,9.59,11.33,9.25,11,8.82,10.58,8.29,10.1,7.66,9.54,6.93,8.91,6.12,8.2,5.19,7.44,4.17,6.6,3.06"/><path class="cls-1" d="M489.11,164.82l-6,4.16-7.35,4.33-8.59,4.49-9.72,4.64-10.73,4.76-11.63,4.87-12.41,5-13.07,5L396,207.17l-14.06,5.14-14.37,5.17L353,222.65l-14.67,5.16L323.68,233l-14.5,5.1-14.24,5-13.86,5-13.38,4.86-12.77,4.76-12.79,4.72-13.45,4.73-14,4.74-14.4,4.75-14.68,4.75-14.86,4.73-14.91,4.72L141,295.51l-14.66,4.66L112,304.79l-13.9,4.58-13.36,4.52-12.69,4.46-11.89,4.39-11,4.31-9.94,4.23-8.79,4.14-7.51,4-6.12,3.93"/><path class="cls-1" d="M201.14,501.24l-.3-7.28.29-8.54.82-9.66,1.32-10.68L205,453.46,207.18,441l2.49-13.13,2.8-13.74,3-14.22,3.24-14.62,3.4-14.9,3.49-15.08,3.55-15.14,3.56-15.11,3.51-15,3.43-14.72L243,281.06l3.1-13.89,2.86-13.33,2.92-13.33,3.25-13.88,3.53-14.35,3.76-14.69,3.91-14.93,4-15.08,4.06-15.12,4-15,4-14.86L286.18,108l3.64-14.19L293.2,80.1,296.27,67,299,54.62,301.23,43,303,32.38l1.23-9.64.62-8.5,0-7.28"/><path class="cls-1" d="M72.53,77.37,78.84,81l7,4.81,7.71,5.89,8.31,6.85,8.84,7.73,9.32,8.5,9.72,9.17,10.08,9.75,10.35,10.22,10.58,10.61,10.73,10.89,10.83,11.07,10.85,11.15L204,198.8l10.72,11,10.56,10.82,10.33,10.5,10.05,10.09,9.69,9.59,9.67,9.63L275,270.67l10.19,10.71,10.37,11.08L306,303.8l10.55,11.51,10.55,11.56,10.5,11.51L348,349.73l10.23,11.08,10,10.7L378,381.74l9.39,9.63,9,8.95,8.54,8.14,8,7.22,7.46,6.22,6.85,5.08,6.16,3.86"/><path class="cls-1" d="M499.12,197.1l-6.46,3.39-7.85,3.36-9.1,3.34-10.25,3.32-11.27,3.31L442,217.1l-13,3.26L415.4,223.6l-14.2,3.22L386.56,230l-14.95,3.18-15.16,3.16-15.25,3.14L326,242.62l-15.07,3.1-14.8,3.08-14.43,3-13.91,3-13.31,3-13.32,3-14,2.89-14.51,2.83-14.92,2.76-15.22,2.73-15.38,2.69-15.43,2.67-15.36,2.65-15.17,2.65-14.85,2.65L91.9,288l-13.85,2.69-13.18,2.73-12.38,2.77L41,299.06,30.62,302l-9.25,3-8,3L6.84,311.1"/><path class="cls-1" d="M168.54,492.3l.6-7.27,1.38-8.42,2.07-9.47,2.7-10.43,3.28-11.28,3.79-12,4.23-12.69,4.61-13.24,4.93-13.71,5.19-14.06,5.38-14.32,5.5-14.48,5.57-14.55,5.57-14.51,5.51-14.37,5.38-14.13,5.19-13.8,4.94-13.38L249,253.32l4.67-12.83,5.1-13.33,5.44-13.75,5.7-14.08L275.8,185l6-14.42,6.07-14.45,6-14.38,5.93-14.21,5.77-14L311.14,100l5.2-13.13,4.79-12.58,4.32-11.93,3.78-11.18,3.16-10.34,2.47-9.39,1.7-8.36.86-7.22"/><path class="cls-1" d="M97.61,54.69l5.82,4.41,6.38,5.67,6.87,6.84L124,79.49l7.75,8.83L139.88,98l8.42,10.4,8.68,11,8.9,11.54,9.06,12,9.18,12.24,9.24,12.45,9.26,12.53,9.22,12.51L221,205l9,12.15L238.84,229l8.61,11.37,8.34,10.8L264.08,262l8.5,11.48,8.67,12L290,297.86l8.87,12.68,8.91,12.84,8.91,12.9,8.86,12.84,8.79,12.66L343,374.15l8.49,12,8.27,11.45,8,10.82,7.73,10.06,7.4,9.2,7,8.23,6.6,7.12,6.14,5.92,5.64,4.6"/><path class="cls-1" d="M504.74,230.46,497.9,233l-8.21,2.34-9.46,2.13-10.59,2L458,241.22l-12.51,1.63-13.3,1.5-14,1.39L403.73,247l-15,1.2-15.27,1.14L358,250.44l-15.56,1.05-15.51,1-15.37,1-15.1,1.05-14.72,1.09-14.22,1.14L254,258.05l-13.62,1.16-14.25,1-14.78.85-15.18.73-15.46.65-15.63.59-15.68.56-15.6.56-15.4.58-15.1.63-14.66.71-14.11.81-13.44.95-12.65,1.1L36.68,270.2,26,271.7l-9.56,1.74-8.28,2-6.91,2.3"/><path class="cls-1" d="M137.39,479.09l1.51-7.15,2.43-8.18,3.28-9.12,4-10,4.74-10.76,5.36-11.43,5.89-12L171,397.93,177.74,385l7-13.25,7.27-13.48,7.41-13.62L207,331l7.48-13.64,7.41-13.51,7.25-13.3,7-13,6.7-12.6,6.3-12.11,6.36-12.1,6.84-12.55,7.25-12.91,7.56-13.19,7.78-13.39,7.93-13.5,8-13.51,7.93-13.45,7.82-13.3,7.6-13.07,7.3-12.74,6.91-12.33,6.44-11.84,5.87-11.26,5.23-10.59,4.49-9.84,3.66-9,2.76-8.08,1.75-7.06"/><path class="cls-1" d="M125.52,35.54l5.23,5.1,5.59,6.44,5.94,7.67,6.24,8.78L155,73.32,161.79,84l7,11.44,7.14,12.1,7.27,12.64,7.38,13.07L198,146.62l7.49,13.6L213,173.9l7.47,13.67,7.4,13.52,7.3,13.27,7.18,12.91,7,12.43,6.82,11.84,6.77,11.87,6.9,12.53,7,13.06,7,13.48,7.09,13.78L298,330.21l7.1,14,7.06,13.94,7,13.75,6.93,13.45,6.8,13,6.68,12.46,6.52,11.81,6.32,11,6.12,10.1,5.89,9.08,5.62,7.92,5.33,6.66,5,5.26"/><path class="cls-1" d="M505.86,264.3,498.75,266l-8.43,1.26-9.66.9-10.76.54-11.76.24-12.62-.05-13.39-.29-14-.5-14.57-.68-15-.82-15.3-.94-15.49-1-15.58-1.05-15.53-1.08-15.39-1-15.12-1-14.75-.91-14.26-.78-13.65-.62-13.65-.68-14.28-.94-14.77-1.15-15.17-1.32-15.43-1.44-15.59-1.53-15.63-1.56L133.37,248,118,246.47l-15.06-1.41L88.3,243.79l-14.11-1.08-13.46-.86L48,241.26,36.23,241l-10.81.09-9.71.48-8.48.94L.1,243.91"/><path class="cls-1" d="M108.26,461.82l2.39-6.9,3.45-7.8,4.44-8.63,5.32-9.37,6.12-10,6.84-10.62,7.45-11.14,8-11.56,8.43-11.92,8.77-12.2,9-12.39,9.2-12.52L197,324.19l9.27-12.52,9.17-12.41,9-12.21,8.71-11.95,8.33-11.6,7.88-11.17,7.92-11.14,8.48-11.54,8.93-11.83,9.28-12.07,9.53-12.24,9.68-12.32,9.75-12.33,9.69-12.28,9.55-12.14,9.3-11.95,9-11.66,8.51-11.3,8-10.89,7.33-10.38,6.58-9.81,5.74-9.17,4.8-8.45,3.76-7.66,2.62-6.78"/><path class="cls-1" d="M155.75,20.27,160.31,26l4.73,7.1,4.89,8.37L175,51l5.17,10.56L185.42,73l5.37,12.27,5.45,13,5.51,13.52,5.56,14,5.58,14.3,5.59,14.5,5.58,14.59,5.56,14.56,5.52,14.42,5.45,14.15L246,226l5.28,13.28L256.44,252l5.13,12.69L266.73,278l5.17,13.91,5.17,14.32,5.18,14.63,5.17,14.8,5.15,14.86,5.13,14.79,5.09,14.59,5.06,14.27,5,13.84,5,13.27,4.88,12.57,4.81,11.77,4.73,10.83,4.65,9.77,4.55,8.59,4.45,7.27,4.33,5.86"/><path class="cls-1" d="M502.47,298l-7.27.79-8.53.18L477,298.6l-10.75-.87-11.68-1.32L442,294.69l-13.24-2.08-13.86-2.38-14.37-2.64-14.76-2.84-15.05-3-15.24-3.11L340.2,275.5l-15.27-3.16-15.12-3.12-14.88-3-14.5-2.88-14-2.69-13.46-2.45-13.46-2.5-14-2.85-14.51-3.13-14.86-3.35L181,242.82l-15.27-3.62-15.3-3.66-15.23-3.64-15.05-3.57-14.76-3.43L91,221.67l-13.85-3L63.9,216.05l-12.51-2.28-11.68-1.83L29,210.6l-9.68-.77-8.53-.15-7.26.53"/><path class="cls-1" d="M81.67,440.82l3.23-6.56,4.42-7.3,5.52-8,6.5-8.59,7.4-9.14,8.19-9.63,8.88-10,9.48-10.4,10-10.69,10.35-10.92,10.64-11.08,10.82-11.17L188,316.12,198.85,305l10.78-11.07L220.19,283l10.25-10.68,9.83-10.39,9.3-10,9.36-10,10-10.3L279.34,221l10.84-10.73,11.11-10.85,11.28-10.92,11.33-10.93,11.28-10.87L346.29,156l10.84-10.6L367.59,135l10-10.07,9.35-9.73,8.66-9.33L403.39,97l6.9-8.34,5.85-7.76,4.71-7.11,3.44-6.42"/><path class="cls-1" d="M187.78,9.16l3.81,6.24,3.79,7.65L199.14,32l3.75,10.11,3.73,11.15,3.71,12.09L214,78.23l3.66,13.58L221.33,106l3.63,14.6,3.61,14.93,3.59,15.15,3.56,15.23,3.55,15.2,3.52,15,3.51,14.78,3.48,14.39,3.47,13.87,3.44,13.25,3.39,13.27,3.32,13.95,3.26,14.49,3.2,14.91L273,324.26l3.13,15.39,3.11,15.44,3.09,15.37,3.09,15.17,3.09,14.85,3.1,14.39,3.14,13.83,3.16,13.13,3.21,12.32,3.26,11.36,3.33,10.3,3.4,9.11,3.48,7.78,3.57,6.35"/><path class="cls-1" d="M494.59,331l-7.3-.13-8.49-.9-9.56-1.63-10.54-2.26-11.41-2.86-12.19-3.38L422.25,316l-13.43-4.22-13.9-4.55-14.26-4.81-14.53-5-14.7-5.13-14.77-5.2-14.72-5.2-14.59-5.14-14.35-5-14-4.81-13.57-4.56-13-4.22-13-4.29-13.54-4.71-14-5.06-14.3-5.33-14.53-5.54-14.66-5.65-14.69-5.7-14.63-5.68-14.44-5.57-14.19-5.39-13.81-5.14-13.35-4.8L70.5,190.87,58.39,187l-11.33-3.37-10.48-2.73-9.5-2-8.44-1.24-7.27-.38"/><path class="cls-1" d="M58.09,416.43l4-6.11,5.32-6.67,6.5-7.2,7.58-7.67,8.55-8.08,9.41-8.46,10.15-8.78,10.79-9,11.32-9.27,11.74-9.43,12.05-9.56,12.24-9.62,12.34-9.64,12.32-9.61,12.19-9.53,11.95-9.4,11.6-9.21,11.15-9,10.58-8.7,10.61-8.66,11.27-8.89,11.79-9,12.2-9.19,12.49-9.27,12.67-9.31,12.72-9.31,12.67-9.27,12.48-9.18L371,160.28l11.77-8.88L394,142.73l10.59-8.4,9.82-8.1,8.94-7.75,7.93-7.37,6.81-6.94,5.57-6.45,4.22-5.94"/><path class="cls-1" d="M221,2.41l3,6.67,2.78,8.06,2.57,9.35L231.79,37,234,48.56,236.08,61,238,74.33l1.82,14,1.71,14.53,1.63,15,1.56,15.3,1.52,15.51,1.48,15.6,1.46,15.56,1.47,15.41,1.48,15.14,1.52,14.74,1.57,14.24,1.64,13.6,1.59,13.62,1.42,14.28,1.28,14.82,1.17,15.23,1.09,15.53,1,15.69,1,15.75,1,15.67,1,15.47,1.07,15.15,1.14,14.71L270.91,433l1.39,13.45,1.54,12.65,1.73,11.7,1.95,10.65,2.2,9.47,2.45,8.17,2.76,6.74"/><path class="cls-1" d="M482.39,362.65l-7.24-1-8.3-2-9.27-2.84-10.15-3.64-10.94-4.34-11.64-5-12.24-5.52-12.75-6L386.68,326l-13.5-6.7-13.75-6.93-13.89-7.08-13.94-7.16-13.91-7.15-13.78-7.07L290.35,277l-13.25-6.66L264.25,264,251.9,258l-12.34-6-12.8-6.49-13.19-6.9-13.47-7.22L186.43,224l-13.79-7.6-13.81-7.64-13.75-7.61-13.59-7.48-13.35-7.26-13-7-12.6-6.55-12.09-6.08L69,161.29l-10.81-4.83-10-4.08L39,149.14l-8.21-2.31-7.17-1.28"/><path class="cls-1" d="M38,389.09l4.75-5.56,6.13-5.94,7.38-6.29,8.52-6.61,9.54-6.89,10.45-7.14L96,343.32l11.92-7.53,12.48-7.67,12.92-7.78,13.24-7.85,13.46-7.9,13.54-7.9,13.52-7.87L200.45,281l13.12-7.71,12.76-7.58,12.26-7.42,11.66-7.21,11.7-7.18,12.36-7.3,12.92-7.4,13.35-7.47,13.65-7.51,13.83-7.53L342,199.17l13.82-7.48,13.63-7.43,13.31-7.35,12.88-7.22,12.31-7.09,11.63-6.93L430.35,149l9.89-6.51,8.83-6.27,7.66-6,6.34-5.7,4.93-5.36"/><path class="cls-1" d="M254.91.15l2.16,7,1.73,8.35,1.34,9.61,1,10.74.67,11.75.39,12.65.14,13.44-.07,14.1L262,102.43l-.41,15.08-.51,15.4-.6,15.6-.64,15.67-.65,15.64-.62,15.5L258,210.53l-.48,14.84-.36,14.34L257,253.42l-.24,13.72-.51,14.36-.72,14.88-.9,15.28-1,15.55-1.1,15.72-1.14,15.76-1.13,15.69-1.08,15.49-1,15.18-.85,14.75-.65,14.2-.42,13.54-.15,12.74.17,11.84.53,10.82.95,9.67,1.4,8.42,1.9,7"/><path class="cls-1" d="M466.06,392.44,459,390.51l-8-3-8.82-4-9.59-4.94-10.28-5.75-10.88-6.48-11.4-7.11-11.85-7.65L376,343.43,363.49,335l-12.7-8.73L338,317.33l-12.87-9-12.84-9-12.71-8.88L287,281.82l-12.25-8.4-11.89-8-11.46-7.54L240,250.26l-11.83-8.16L216,233.48l-12.4-9L191,215.25l-12.66-9.4-12.68-9.45L153.07,187l-12.48-9.26-12.27-9-12-8.66-11.62-8.2-11.19-7.64-10.67-7L72.79,131l-9.41-5.36-8.67-4.4-7.85-3.33-7-2.16"/><path class="cls-1" d="M21.64,359.29l5.4-4.92,6.84-5.12L42,344l9.32-5.43L61.7,333,73,327.27l12.14-5.78L98,315.62l13.41-5.93,13.87-6,14.2-6,14.42-6,14.51-6,14.48-6,14.34-5.94,14.07-5.88L225,262.07l13.17-5.71,12.53-5.6,12.56-5.55,13.26-5.58,13.81-5.6,14.26-5.62,14.56-5.61,14.74-5.61,14.8-5.59L363.38,206l14.53-5.54,14.2-5.49,13.76-5.44L419,184.18l12.46-5.32,11.63-5.23,10.67-5.15,9.58-5.06,8.37-4.95,7-4.84,5.55-4.71"/><path class="cls-1" d="M288.83,2.42l1.26,7.21.66,8.51.09,9.7-.43,10.78-.88,11.74L288.23,63l-1.65,13.34-2,14-2.22,14.5L280,119.7l-2.59,15.21-2.69,15.4-2.76,15.47-2.76,15.43-2.71,15.29-2.62,15-2.47,14.65-2.28,14.18-2,13.58L255,267.52l-2.44,14.18-2.72,14.67-2.94,15-3.12,15.3-3.21,15.46-3.26,15.49L234,373.07l-3.16,15.24-3,14.93L225,417.76l-2.56,14-2.23,13.37-1.84,12.62L217,469.53l-.88,10.8-.32,9.72.32,8.52,1,7.22"/><path class="cls-1" d="M445.89,419.81,439.13,417l-7.54-4-8.23-5.14-8.86-6.15-9.43-7.06-9.93-7.87-10.36-8.58L374.06,369l-11-9.69-11.26-10.08-11.43-10.38L328.82,328.3l-11.56-10.65L305.73,307l-11.42-10.53-11.26-10.3-11-10-10.72-9.55-10.36-9-10.33-9.06L230,238.87l-10.9-10.2L208,218.09l-11.23-10.87-11.29-11-11.31-11.1-11.25-11-11.14-10.87-11-10.59-10.73-10.2-10.43-9.7-10.07-9.08-9.66-8.34-9.17-7.51L82.1,101.2l-8-5.48-7.36-4.31-6.64-3"/><path class="cls-1" d="M9.42,327.55l6-4.22,7.42-4.2,8.76-4.19,10-4.16,11-4.16,12-4.13,12.81-4.12,13.52-4.09L105,290.2l14.57-4.06,14.91-4,15.12-4,15.21-4,15.18-4,15-4,14.75-3.94,14.35-3.92,13.83-3.9,13.19-3.88,13.2-3.83,13.91-3.76,14.46-3.69,14.9-3.65L322.8,232l15.39-3.58,15.45-3.55L369,221.28l15.17-3.53L399,214.21l14.38-3.55,13.79-3.58,13.08-3.6,12.24-3.65,11.26-3.7,10.16-3.75,8.94-3.83,7.59-3.9,6.09-4"/><path class="cls-1" d="M322.16,9.2l.37,7.31L322.09,25l-1.17,9.63L319.09,45.3l-2.43,11.53-3,12.33-3.43,13-3.83,13.6-4.15,14.09-4.43,14.47-4.62,14.74L288.48,154l-4.82,15-4.83,14.94-4.76,14.81-4.62,14.56L265,227.5l-4.16,13.76L257,254.46l-3.89,13.19-4.32,13.75-4.67,14.19-4.95,14.53-5.15,14.77-5.29,14.91-5.32,14.93-5.31,14.87L213,384.3l-5,14.41-4.75,14-4.41,13.56-4,13-3.51,12.28L188.33,463,186,473.63l-1.57,9.59-.78,8.5.11,7.29"/></g></svg>